<?xml version="1.0"?>
<!-- Created by MetaPost 2.10 on 2024.04.29:2335 -->
<svg version="1.1" xmlns="http://www.w3.org/2000/svg" xmlns:xlink="http://www.w3.org/1999/xlink" width="369.503906" height="432.504578" viewBox="0 0 369.503906 432.504578">
<!-- Original BoundingBox: -71.366150 -346.965210 298.137756 85.539368 -->
  <defs>
    <g transform="scale(0.009963,0.009963)" id="GLYPHcmmi10_85">
      <path style="fill-rule: evenodd;" d="M635.000000 -578.000000C645.000000 -619.000000,663.000000 -649.000000,743.000000 -652.000000C748.000000 -652.000000,760.000000 -653.000000,760.000000 -672.000000C760.000000 -673.000000,760.000000 -683.000000,747.000000 -683.000000C714.000000 -683.000000,679.000000 -680.000000,645.000000 -680.000000C611.000000 -680.000000,574.000000 -683.000000,541.000000 -683.000000C535.000000 -683.000000,523.000000 -683.000000,523.000000 -663.000000C523.000000 -652.000000,533.000000 -652.000000,541.000000 -652.000000C598.000000 -651.000000,609.000000 -630.000000,609.000000 -608.000000C609.000000 -605.000000,607.000000 -590.000000,606.000000 -587.000000L516.000000 -230.000000C482.000000 -96.000000,367.000000 -9.000000,267.000000 -9.000000C199.000000 -9.000000,145.000000 -53.000000,145.000000 -139.000000C145.000000 -141.000000,145.000000 -173.000000,156.000000 -217.000000L253.000000 -606.000000C262.000000 -642.000000,264.000000 -652.000000,337.000000 -652.000000C363.000000 -652.000000,371.000000 -652.000000,371.000000 -672.000000C371.000000 -683.000000,360.000000 -683.000000,357.000000 -683.000000C329.000000 -683.000000,257.000000 -680.000000,229.000000 -680.000000C200.000000 -680.000000,129.000000 -683.000000,100.000000 -683.000000C92.000000 -683.000000,81.000000 -683.000000,81.000000 -663.000000C81.000000 -652.000000,90.000000 -652.000000,109.000000 -652.000000C111.000000 -652.000000,130.000000 -652.000000,147.000000 -650.000000C165.000000 -648.000000,174.000000 -647.000000,174.000000 -634.000000C174.000000 -628.000000,163.000000 -586.000000,157.000000 -563.000000L135.000000 -475.000000C126.000000 -436.000000,78.000000 -247.000000,74.000000 -228.000000C67.000000 -200.000000,67.000000 -185.000000,67.000000 -170.000000C67.000000 -48.000000,158.000000 22.000000,263.000000 22.000000C389.000000 22.000000,513.000000 -91.000000,546.000000 -223.000000"></path>
    </g>
    <g transform="scale(0.009963,0.009963)" id="GLYPHcmmi10_86">
      <path style="fill-rule: evenodd;" d="M628.000000 -569.000000C677.000000 -647.000000,719.000000 -650.000000,756.000000 -652.000000C768.000000 -653.000000,769.000000 -670.000000,769.000000 -671.000000C769.000000 -679.000000,764.000000 -683.000000,756.000000 -683.000000C730.000000 -683.000000,701.000000 -680.000000,674.000000 -680.000000C641.000000 -680.000000,607.000000 -683.000000,575.000000 -683.000000C569.000000 -683.000000,556.000000 -683.000000,556.000000 -664.000000C556.000000 -653.000000,565.000000 -652.000000,572.000000 -652.000000C599.000000 -650.000000,618.000000 -640.000000,618.000000 -619.000000C618.000000 -604.000000,603.000000 -582.000000,603.000000 -581.000000L296.000000 -93.000000L228.000000 -622.000000C228.000000 -639.000000,251.000000 -652.000000,297.000000 -652.000000C311.000000 -652.000000,322.000000 -652.000000,322.000000 -672.000000C322.000000 -681.000000,314.000000 -683.000000,308.000000 -683.000000C268.000000 -683.000000,225.000000 -680.000000,184.000000 -680.000000C166.000000 -680.000000,147.000000 -681.000000,129.000000 -681.000000C111.000000 -681.000000,92.000000 -683.000000,75.000000 -683.000000C68.000000 -683.000000,56.000000 -683.000000,56.000000 -664.000000C56.000000 -652.000000,65.000000 -652.000000,81.000000 -652.000000C137.000000 -652.000000,138.000000 -643.000000,141.000000 -618.000000L220.000000 -1.000000C223.000000 19.000000,227.000000 22.000000,240.000000 22.000000C256.000000 22.000000,260.000000 17.000000,268.000000 4.000000"></path>
    </g>
    <g transform="scale(0.009963,0.009963)" id="GLYPHcmmi10_117">
      <path style="fill-rule: evenodd;" d="M350.000000 -56.000000C361.000000 -15.000000,396.000000 11.000000,439.000000 11.000000C474.000000 11.000000,497.000000 -12.000000,513.000000 -44.000000C530.000000 -80.000000,543.000000 -141.000000,543.000000 -143.000000C543.000000 -153.000000,534.000000 -153.000000,531.000000 -153.000000C521.000000 -153.000000,520.000000 -149.000000,517.000000 -135.000000C503.000000 -79.000000,484.000000 -11.000000,442.000000 -11.000000C421.000000 -11.000000,411.000000 -24.000000,411.000000 -57.000000C411.000000 -79.000000,423.000000 -126.000000,431.000000 -161.000000L459.000000 -269.000000C462.000000 -284.000000,472.000000 -322.000000,476.000000 -337.000000C481.000000 -360.000000,491.000000 -398.000000,491.000000 -404.000000C491.000000 -422.000000,477.000000 -431.000000,462.000000 -431.000000C457.000000 -431.000000,431.000000 -430.000000,423.000000 -396.000000C404.000000 -323.000000,360.000000 -148.000000,348.000000 -95.000000C347.000000 -91.000000,307.000000 -11.000000,234.000000 -11.000000C182.000000 -11.000000,172.000000 -56.000000,172.000000 -93.000000C172.000000 -149.000000,200.000000 -228.000000,226.000000 -297.000000C238.000000 -327.000000,243.000000 -341.000000,243.000000 -360.000000C243.000000 -405.000000,211.000000 -442.000000,161.000000 -442.000000C66.000000 -442.000000,29.000000 -297.000000,29.000000 -288.000000C29.000000 -278.000000,39.000000 -278.000000,41.000000 -278.000000C51.000000 -278.000000,52.000000 -280.000000,57.000000 -296.000000C82.000000 -383.000000,120.000000 -420.000000,158.000000 -420.000000C167.000000 -420.000000,183.000000 -419.000000,183.000000 -387.000000C183.000000 -363.000000,172.000000 -334.000000,166.000000 -319.000000C129.000000 -220.000000,108.000000 -158.000000,108.000000 -109.000000C108.000000 -14.000000,177.000000 11.000000,231.000000 11.000000C297.000000 11.000000,333.000000 -34.000000,350.000000 -56.000000"></path>
    </g>
    <g transform="scale(0.009963,0.009963)" id="GLYPHcmmi10_118">
      <path style="fill-rule: evenodd;" d="M468.000000 -372.000000C468.000000 -426.000000,442.000000 -442.000000,424.000000 -442.000000C399.000000 -442.000000,375.000000 -416.000000,375.000000 -394.000000C375.000000 -381.000000,380.000000 -375.000000,391.000000 -364.000000C412.000000 -344.000000,425.000000 -318.000000,425.000000 -282.000000C425.000000 -240.000000,364.000000 -11.000000,247.000000 -11.000000C196.000000 -11.000000,173.000000 -46.000000,173.000000 -98.000000C173.000000 -154.000000,200.000000 -227.000000,231.000000 -310.000000C238.000000 -327.000000,243.000000 -341.000000,243.000000 -360.000000C243.000000 -405.000000,211.000000 -442.000000,161.000000 -442.000000C67.000000 -442.000000,29.000000 -297.000000,29.000000 -288.000000C29.000000 -278.000000,39.000000 -278.000000,41.000000 -278.000000C51.000000 -278.000000,52.000000 -280.000000,57.000000 -296.000000C86.000000 -397.000000,129.000000 -420.000000,158.000000 -420.000000C166.000000 -420.000000,183.000000 -420.000000,183.000000 -388.000000C183.000000 -363.000000,173.000000 -336.000000,166.000000 -318.000000C122.000000 -202.000000,109.000000 -156.000000,109.000000 -113.000000C109.000000 -5.000000,197.000000 11.000000,243.000000 11.000000C411.000000 11.000000,468.000000 -320.000000,468.000000 -372.000000"></path>
    </g>
    <g transform="scale(0.006974,0.006974)" id="GLYPHcmr7_48">
      <path style="fill-rule: evenodd;" d="M516.000000 -319.000000C516.000000 -429.000000,503.000000 -508.000000,457.000000 -578.000000C426.000000 -624.000000,364.000000 -664.000000,284.000000 -664.000000C52.000000 -664.000000,52.000000 -391.000000,52.000000 -319.000000C52.000000 -247.000000,52.000000 20.000000,284.000000 20.000000C516.000000 20.000000,516.000000 -247.000000,516.000000 -319.000000M284.000000 -8.000000C238.000000 -8.000000,177.000000 -35.000000,157.000000 -117.000000C143.000000 -176.000000,143.000000 -258.000000,143.000000 -332.000000C143.000000 -405.000000,143.000000 -481.000000,158.000000 -536.000000C179.000000 -615.000000,243.000000 -636.000000,284.000000 -636.000000C338.000000 -636.000000,390.000000 -603.000000,408.000000 -545.000000C424.000000 -491.000000,425.000000 -419.000000,425.000000 -332.000000C425.000000 -258.000000,425.000000 -184.000000,412.000000 -121.000000C392.000000 -30.000000,324.000000 -8.000000,284.000000 -8.000000"></path>
    </g>
    <g transform="scale(0.006974,0.006974)" id="GLYPHcmr7_49">
      <path style="fill-rule: evenodd;" d="M335.000000 -636.000000C335.000000 -663.000000,333.000000 -664.000000,305.000000 -664.000000C241.000000 -601.000000,150.000000 -600.000000,109.000000 -600.000000L109.000000 -564.000000C133.000000 -564.000000,199.000000 -564.000000,254.000000 -592.000000L254.000000 -82.000000C254.000000 -49.000000,254.000000 -36.000000,154.000000 -36.000000L116.000000 -36.000000L116.000000 -0.000000C134.000000 -1.000000,257.000000 -4.000000,294.000000 -4.000000C325.000000 -4.000000,451.000000 -1.000000,473.000000 -0.000000L473.000000 -36.000000L435.000000 -36.000000C335.000000 -36.000000,335.000000 -49.000000,335.000000 -82.000000"></path>
    </g>
    <g transform="scale(0.006974,0.006974)" id="GLYPHcmr7_50">
      <path style="fill-rule: evenodd;" d="M505.000000 -182.000000L471.000000 -182.000000C468.000000 -160.000000,458.000000 -101.000000,445.000000 -91.000000C437.000000 -85.000000,360.000000 -85.000000,346.000000 -85.000000L162.000000 -85.000000C267.000000 -178.000000,302.000000 -206.000000,362.000000 -253.000000C436.000000 -312.000000,505.000000 -374.000000,505.000000 -469.000000C505.000000 -590.000000,399.000000 -664.000000,271.000000 -664.000000C147.000000 -664.000000,63.000000 -577.000000,63.000000 -485.000000C63.000000 -434.000000,106.000000 -429.000000,116.000000 -429.000000C140.000000 -429.000000,169.000000 -446.000000,169.000000 -482.000000C169.000000 -500.000000,162.000000 -535.000000,110.000000 -535.000000C141.000000 -606.000000,209.000000 -628.000000,256.000000 -628.000000C356.000000 -628.000000,408.000000 -550.000000,408.000000 -469.000000C408.000000 -382.000000,346.000000 -313.000000,314.000000 -277.000000L73.000000 -39.000000C63.000000 -30.000000,63.000000 -28.000000,63.000000 -0.000000L475.000000 -0.000000"></path>
    </g>
    <g transform="scale(0.006974,0.006974)" id="GLYPHcmr7_51">
      <path style="fill-rule: evenodd;" d="M273.000000 -334.000000C351.000000 -334.000000,407.000000 -280.000000,407.000000 -173.000000C407.000000 -49.000000,335.000000 -12.000000,277.000000 -12.000000C237.000000 -12.000000,149.000000 -23.000000,107.000000 -82.000000C154.000000 -84.000000,165.000000 -117.000000,165.000000 -138.000000C165.000000 -170.000000,141.000000 -193.000000,110.000000 -193.000000C82.000000 -193.000000,54.000000 -176.000000,54.000000 -135.000000C54.000000 -41.000000,158.000000 20.000000,279.000000 20.000000C418.000000 20.000000,514.000000 -73.000000,514.000000 -173.000000C514.000000 -251.000000,450.000000 -329.000000,340.000000 -352.000000C445.000000 -390.000000,483.000000 -465.000000,483.000000 -526.000000C483.000000 -605.000000,392.000000 -664.000000,281.000000 -664.000000C170.000000 -664.000000,85.000000 -610.000000,85.000000 -530.000000C85.000000 -496.000000,107.000000 -477.000000,137.000000 -477.000000C168.000000 -477.000000,188.000000 -500.000000,188.000000 -528.000000C188.000000 -557.000000,168.000000 -578.000000,137.000000 -580.000000C172.000000 -624.000000,241.000000 -635.000000,278.000000 -635.000000C323.000000 -635.000000,386.000000 -613.000000,386.000000 -526.000000C386.000000 -484.000000,372.000000 -438.000000,346.000000 -407.000000C313.000000 -369.000000,285.000000 -367.000000,235.000000 -364.000000C210.000000 -362.000000,208.000000 -362.000000,203.000000 -361.000000C201.000000 -361.000000,193.000000 -359.000000,193.000000 -348.000000C193.000000 -334.000000,202.000000 -334.000000,219.000000 -334.000000"></path>
    </g>
    <g transform="scale(0.006974,0.006974)" id="GLYPHcmr7_52">
      <path style="fill-rule: evenodd;" d="M529.000000 -164.000000L529.000000 -200.000000L418.000000 -200.000000L418.000000 -646.000000C418.000000 -667.000000,418.000000 -674.000000,396.000000 -674.000000C384.000000 -674.000000,380.000000 -674.000000,370.000000 -660.000000L39.000000 -200.000000L39.000000 -164.000000L333.000000 -164.000000L333.000000 -82.000000C333.000000 -48.000000,333.000000 -36.000000,252.000000 -36.000000L225.000000 -36.000000L225.000000 -0.000000C275.000000 -2.000000,339.000000 -4.000000,375.000000 -4.000000C412.000000 -4.000000,476.000000 -2.000000,526.000000 -0.000000L526.000000 -36.000000L499.000000 -36.000000C418.000000 -36.000000,418.000000 -48.000000,418.000000 -82.000000L418.000000 -164.000000M340.000000 -566.000000L340.000000 -200.000000L76.000000 -200.000000"></path>
    </g>
    <g transform="scale(0.006974,0.006974)" id="GLYPHcmr7_53">
      <path style="fill-rule: evenodd;" d="M155.000000 -558.000000C206.000000 -545.000000,236.000000 -545.000000,252.000000 -545.000000C384.000000 -545.000000,462.000000 -635.000000,462.000000 -650.000000C462.000000 -661.000000,455.000000 -664.000000,450.000000 -664.000000C448.000000 -664.000000,446.000000 -664.000000,442.000000 -661.000000C418.000000 -652.000000,365.000000 -632.000000,291.000000 -632.000000C263.000000 -632.000000,210.000000 -634.000000,145.000000 -659.000000C135.000000 -664.000000,133.000000 -664.000000,132.000000 -664.000000C119.000000 -664.000000,119.000000 -653.000000,119.000000 -637.000000L119.000000 -342.000000C119.000000 -325.000000,119.000000 -313.000000,135.000000 -313.000000C144.000000 -313.000000,145.000000 -315.000000,155.000000 -327.000000C198.000000 -382.000000,259.000000 -390.000000,294.000000 -390.000000C354.000000 -390.000000,381.000000 -342.000000,386.000000 -334.000000C404.000000 -301.000000,410.000000 -263.000000,410.000000 -205.000000C410.000000 -175.000000,410.000000 -116.000000,380.000000 -72.000000C355.000000 -36.000000,312.000000 -12.000000,263.000000 -12.000000C198.000000 -12.000000,131.000000 -48.000000,106.000000 -114.000000C144.000000 -111.000000,163.000000 -136.000000,163.000000 -163.000000C163.000000 -206.000000,126.000000 -214.000000,113.000000 -214.000000C111.000000 -214.000000,63.000000 -214.000000,63.000000 -160.000000C63.000000 -70.000000,145.000000 20.000000,265.000000 20.000000C393.000000 20.000000,505.000000 -75.000000,505.000000 -201.000000C505.000000 -314.000000,419.000000 -418.000000,295.000000 -418.000000C251.000000 -418.000000,199.000000 -407.000000,155.000000 -369.000000"></path>
    </g>
  </defs>
  <path d="M71.366150 85.539368L298.137756 340.657410" style="stroke:rgb(100.000000%,0.000000%,0.000000%); stroke-width: 8.503937;stroke-linecap: round;stroke-linejoin: round;stroke-miterlimit: 10.000000;fill: none;"></path>
  <path d="M71.366150 142.232269L298.137756 170.578705" style="stroke:rgb(100.000000%,0.000000%,0.000000%); stroke-width: 8.503937;stroke-linecap: round;stroke-linejoin: round;stroke-miterlimit: 10.000000;fill: none;"></path>
  <path d="M71.366150 255.618073L298.137756 227.271606" style="stroke:rgb(100.000000%,0.000000%,0.000000%); stroke-width: 8.503937;stroke-linecap: round;stroke-linejoin: round;stroke-miterlimit: 10.000000;fill: none;"></path>
  <path d="M71.366150 85.539368l0 0" style="stroke:rgb(0.000000%,0.000000%,0.000000%); stroke-width: 8.503937;stroke-linecap: round;stroke-linejoin: round;stroke-miterlimit: 10.000000;fill: none;"></path>
  <path d="M71.366150 142.232269l0 0" style="stroke:rgb(0.000000%,0.000000%,0.000000%); stroke-width: 8.503937;stroke-linecap: round;stroke-linejoin: round;stroke-miterlimit: 10.000000;fill: none;"></path>
  <path d="M71.366150 198.925171l0 0" style="stroke:rgb(0.000000%,0.000000%,0.000000%); stroke-width: 8.503937;stroke-linecap: round;stroke-linejoin: round;stroke-miterlimit: 10.000000;fill: none;"></path>
  <path d="M71.366150 255.618073l0 0" style="stroke:rgb(0.000000%,0.000000%,0.000000%); stroke-width: 8.503937;stroke-linecap: round;stroke-linejoin: round;stroke-miterlimit: 10.000000;fill: none;"></path>
  <path d="M71.366150 312.310974l0 0" style="stroke:rgb(0.000000%,0.000000%,0.000000%); stroke-width: 8.503937;stroke-linecap: round;stroke-linejoin: round;stroke-miterlimit: 10.000000;fill: none;"></path>
  <path d="M298.137756 57.192902l0 0" style="stroke:rgb(0.000000%,0.000000%,0.000000%); stroke-width: 8.503937;stroke-linecap: round;stroke-linejoin: round;stroke-miterlimit: 10.000000;fill: none;"></path>
  <path d="M298.137756 113.885803l0 0" style="stroke:rgb(0.000000%,0.000000%,0.000000%); stroke-width: 8.503937;stroke-linecap: round;stroke-linejoin: round;stroke-miterlimit: 10.000000;fill: none;"></path>
  <path d="M298.137756 170.578705l0 0" style="stroke:rgb(0.000000%,0.000000%,0.000000%); stroke-width: 8.503937;stroke-linecap: round;stroke-linejoin: round;stroke-miterlimit: 10.000000;fill: none;"></path>
  <path d="M298.137756 227.271606l0 0" style="stroke:rgb(0.000000%,0.000000%,0.000000%); stroke-width: 8.503937;stroke-linecap: round;stroke-linejoin: round;stroke-miterlimit: 10.000000;fill: none;"></path>
  <path d="M298.137756 283.964508l0 0" style="stroke:rgb(0.000000%,0.000000%,0.000000%); stroke-width: 8.503937;stroke-linecap: round;stroke-linejoin: round;stroke-miterlimit: 10.000000;fill: none;"></path>
  <path d="M298.137756 340.657410l0 0" style="stroke:rgb(0.000000%,0.000000%,0.000000%); stroke-width: 8.503937;stroke-linecap: round;stroke-linejoin: round;stroke-miterlimit: 10.000000;fill: none;"></path>
  <g transform="matrix(2.000000,-0.000000,-0.000000,2.000000,45.020935 88.334503)" style="fill: rgb(0.000000%,0.000000%,0.000000%);">
    <use xlink:href="#GLYPHcmmi10_117"></use>
  </g>
  <g transform="matrix(2.000000,-0.000000,-0.000000,2.000000,56.427338 91.323303)" style="fill: rgb(0.000000%,0.000000%,0.000000%);">
    <use xlink:href="#GLYPHcmr7_48"></use>
  </g>
  <g transform="matrix(2.000000,-0.000000,-0.000000,2.000000,45.020935 145.027405)" style="fill: rgb(0.000000%,0.000000%,0.000000%);">
    <use xlink:href="#GLYPHcmmi10_117"></use>
  </g>
  <g transform="matrix(2.000000,-0.000000,-0.000000,2.000000,56.427338 148.016205)" style="fill: rgb(0.000000%,0.000000%,0.000000%);">
    <use xlink:href="#GLYPHcmr7_49"></use>
  </g>
  <g transform="matrix(2.000000,-0.000000,-0.000000,2.000000,45.020935 201.720306)" style="fill: rgb(0.000000%,0.000000%,0.000000%);">
    <use xlink:href="#GLYPHcmmi10_117"></use>
  </g>
  <g transform="matrix(2.000000,-0.000000,-0.000000,2.000000,56.427338 204.709106)" style="fill: rgb(0.000000%,0.000000%,0.000000%);">
    <use xlink:href="#GLYPHcmr7_50"></use>
  </g>
  <g transform="matrix(2.000000,-0.000000,-0.000000,2.000000,45.020935 258.413208)" style="fill: rgb(0.000000%,0.000000%,0.000000%);">
    <use xlink:href="#GLYPHcmmi10_117"></use>
  </g>
  <g transform="matrix(2.000000,-0.000000,-0.000000,2.000000,56.427338 261.402008)" style="fill: rgb(0.000000%,0.000000%,0.000000%);">
    <use xlink:href="#GLYPHcmr7_51"></use>
  </g>
  <g transform="matrix(2.000000,-0.000000,-0.000000,2.000000,45.020935 315.106110)" style="fill: rgb(0.000000%,0.000000%,0.000000%);">
    <use xlink:href="#GLYPHcmmi10_117"></use>
  </g>
  <g transform="matrix(2.000000,-0.000000,-0.000000,2.000000,56.427338 318.094910)" style="fill: rgb(0.000000%,0.000000%,0.000000%);">
    <use xlink:href="#GLYPHcmr7_52"></use>
  </g>
  <g transform="matrix(2.000000,-0.000000,-0.000000,2.000000,304.137756 59.988007)" style="fill: rgb(0.000000%,0.000000%,0.000000%);">
    <use xlink:href="#GLYPHcmmi10_118"></use>
  </g>
  <g transform="matrix(2.000000,-0.000000,-0.000000,2.000000,313.795959 62.976807)" style="fill: rgb(0.000000%,0.000000%,0.000000%);">
    <use xlink:href="#GLYPHcmr7_48"></use>
  </g>
  <g transform="matrix(2.000000,-0.000000,-0.000000,2.000000,304.137756 116.680908)" style="fill: rgb(0.000000%,0.000000%,0.000000%);">
    <use xlink:href="#GLYPHcmmi10_118"></use>
  </g>
  <g transform="matrix(2.000000,-0.000000,-0.000000,2.000000,313.795959 119.669708)" style="fill: rgb(0.000000%,0.000000%,0.000000%);">
    <use xlink:href="#GLYPHcmr7_49"></use>
  </g>
  <g transform="matrix(2.000000,-0.000000,-0.000000,2.000000,304.137756 173.373810)" style="fill: rgb(0.000000%,0.000000%,0.000000%);">
    <use xlink:href="#GLYPHcmmi10_118"></use>
  </g>
  <g transform="matrix(2.000000,-0.000000,-0.000000,2.000000,313.795959 176.362610)" style="fill: rgb(0.000000%,0.000000%,0.000000%);">
    <use xlink:href="#GLYPHcmr7_50"></use>
  </g>
  <g transform="matrix(2.000000,-0.000000,-0.000000,2.000000,304.137756 230.066711)" style="fill: rgb(0.000000%,0.000000%,0.000000%);">
    <use xlink:href="#GLYPHcmmi10_118"></use>
  </g>
  <g transform="matrix(2.000000,-0.000000,-0.000000,2.000000,313.795959 233.055511)" style="fill: rgb(0.000000%,0.000000%,0.000000%);">
    <use xlink:href="#GLYPHcmr7_51"></use>
  </g>
  <g transform="matrix(2.000000,-0.000000,-0.000000,2.000000,304.137756 286.759613)" style="fill: rgb(0.000000%,0.000000%,0.000000%);">
    <use xlink:href="#GLYPHcmmi10_118"></use>
  </g>
  <g transform="matrix(2.000000,-0.000000,-0.000000,2.000000,313.795959 289.748413)" style="fill: rgb(0.000000%,0.000000%,0.000000%);">
    <use xlink:href="#GLYPHcmr7_52"></use>
  </g>
  <g transform="matrix(2.000000,-0.000000,-0.000000,2.000000,304.137756 343.452515)" style="fill: rgb(0.000000%,0.000000%,0.000000%);">
    <use xlink:href="#GLYPHcmmi10_118"></use>
  </g>
  <g transform="matrix(2.000000,-0.000000,-0.000000,2.000000,313.795959 346.441315)" style="fill: rgb(0.000000%,0.000000%,0.000000%);">
    <use xlink:href="#GLYPHcmr7_53"></use>
  </g>
  <path d="M71.366150 85.539368L298.137756 57.192902" style="stroke:rgb(0.000000%,0.000000%,0.000000%); stroke-width: 1.000000;stroke-linecap: round;stroke-linejoin: round;stroke-miterlimit: 10.000000;fill: none;"></path>
  <path d="M71.366150 85.539368L298.137756 170.578705" style="stroke:rgb(0.000000%,0.000000%,0.000000%); stroke-width: 1.000000;stroke-linecap: round;stroke-linejoin: round;stroke-miterlimit: 10.000000;fill: none;"></path>
  <path d="M71.366150 85.539368L298.137756 227.271606" style="stroke:rgb(0.000000%,0.000000%,0.000000%); stroke-width: 1.000000;stroke-linecap: round;stroke-linejoin: round;stroke-miterlimit: 10.000000;fill: none;"></path>
  <path d="M71.366150 85.539368L298.137756 283.964508" style="stroke:rgb(0.000000%,0.000000%,0.000000%); stroke-width: 1.000000;stroke-linecap: round;stroke-linejoin: round;stroke-miterlimit: 10.000000;fill: none;"></path>
  <path d="M71.366150 85.539368L298.137756 340.657410" style="stroke:rgb(0.000000%,0.000000%,0.000000%); stroke-width: 1.000000;stroke-linecap: round;stroke-linejoin: round;stroke-miterlimit: 10.000000;fill: none;"></path>
  <path d="M71.366150 142.232269L298.137756 113.885803" style="stroke:rgb(0.000000%,0.000000%,0.000000%); stroke-width: 1.000000;stroke-linecap: round;stroke-linejoin: round;stroke-miterlimit: 10.000000;fill: none;"></path>
  <path d="M71.366150 142.232269L298.137756 170.578705" style="stroke:rgb(0.000000%,0.000000%,0.000000%); stroke-width: 1.000000;stroke-linecap: round;stroke-linejoin: round;stroke-miterlimit: 10.000000;fill: none;"></path>
  <path d="M71.366150 198.925171L298.137756 283.964508" style="stroke:rgb(0.000000%,0.000000%,0.000000%); stroke-width: 1.000000;stroke-linecap: round;stroke-linejoin: round;stroke-miterlimit: 10.000000;fill: none;"></path>
  <path d="M71.366150 198.925171L298.137756 340.657410" style="stroke:rgb(0.000000%,0.000000%,0.000000%); stroke-width: 1.000000;stroke-linecap: round;stroke-linejoin: round;stroke-miterlimit: 10.000000;fill: none;"></path>
  <path d="M71.366150 255.618073L298.137756 227.271606" style="stroke:rgb(0.000000%,0.000000%,0.000000%); stroke-width: 1.000000;stroke-linecap: round;stroke-linejoin: round;stroke-miterlimit: 10.000000;fill: none;"></path>
  <path d="M71.366150 312.310974L298.137756 340.657410" style="stroke:rgb(0.000000%,0.000000%,0.000000%); stroke-width: 1.000000;stroke-linecap: round;stroke-linejoin: round;stroke-miterlimit: 10.000000;fill: none;"></path>
  <path d="M142.232300 198.925171C142.232300 153.815491,134.764618 110.558777,121.475037 78.663818C108.185486 46.768890,90.161865 28.846466,71.366150 28.846466C52.570435 28.846466,34.546814 46.768890,21.257263 78.663818C7.967682 110.558777,0.500000 153.815491,0.500000 198.925171C0.500000 244.034851,7.967682 287.291565,21.257263 319.186523C34.546814 351.081451,52.570435 369.003876,71.366150 369.003876C90.161865 369.003876,108.185486 351.081451,121.475037 319.186523C134.764618 287.291565,142.232300 244.034851,142.232300 198.925171Z" style="stroke:rgb(0.000000%,0.000000%,0.000000%); stroke-width: 1.000000;stroke-linecap: round;stroke-dasharray: 6.000000 6.000000 ;stroke-linejoin: round;stroke-miterlimit: 10.000000;fill: none;"></path>
  <path d="M369.003906 198.925171C369.003906 146.297211,361.536224 95.831055,348.246643 58.620270C334.957092 21.409515,316.933472 0.500000,298.137756 0.500000C279.342041 0.500000,261.318420 21.409515,248.028870 58.620270C234.739288 95.831055,227.271606 146.297211,227.271606 198.925171C227.271606 251.553131,234.739288 302.019287,248.028870 339.230072C261.318420 376.440826,279.342041 397.350342,298.137756 397.350342C316.933472 397.350342,334.957092 376.440826,348.246643 339.230072C361.536224 302.019287,369.003906 251.553131,369.003906 198.925171Z" style="stroke:rgb(0.000000%,0.000000%,0.000000%); stroke-width: 1.000000;stroke-linecap: round;stroke-dasharray: 6.000000 6.000000 ;stroke-linejoin: round;stroke-miterlimit: 10.000000;fill: none;"></path>
  <g transform="matrix(2.000000,-0.000000,-0.000000,2.000000,63.477753 404.158142)" style="fill: rgb(0.000000%,0.000000%,0.000000%);">
    <use xlink:href="#GLYPHcmmi10_85"></use>
  </g>
  <g transform="matrix(2.000000,-0.000000,-0.000000,2.000000,290.112244 432.504578)" style="fill: rgb(0.000000%,0.000000%,0.000000%);">
    <use xlink:href="#GLYPHcmmi10_86"></use>
  </g>
</svg>
