<?xml version="1.0"?>
<!-- Created by MetaPost 2.10 on 2024.04.29:1337 -->
<svg version="1.1" xmlns="http://www.w3.org/2000/svg" xmlns:xlink="http://www.w3.org/1999/xlink" width="369.503906" height="432.504578" viewBox="0 0 369.503906 432.504578">
<!-- Original BoundingBox: -71.366150 -346.965210 298.137756 85.539368 -->
  <defs>
    <g transform="scale(0.009963,0.009963)" id="GLYPHcmr10_48">
      <path style="fill-rule: evenodd;" d="M460.000000 -320.000000C460.000000 -400.000000,455.000000 -480.000000,420.000000 -554.000000C374.000000 -650.000000,292.000000 -666.000000,250.000000 -666.000000C190.000000 -666.000000,117.000000 -640.000000,76.000000 -547.000000C44.000000 -478.000000,39.000000 -400.000000,39.000000 -320.000000C39.000000 -245.000000,43.000000 -155.000000,84.000000 -79.000000C127.000000 2.000000,200.000000 22.000000,249.000000 22.000000C303.000000 22.000000,379.000000 1.000000,423.000000 -94.000000C455.000000 -163.000000,460.000000 -241.000000,460.000000 -320.000000M249.000000 -0.000000C210.000000 -0.000000,151.000000 -25.000000,133.000000 -121.000000C122.000000 -181.000000,122.000000 -273.000000,122.000000 -332.000000C122.000000 -396.000000,122.000000 -462.000000,130.000000 -516.000000C149.000000 -635.000000,224.000000 -644.000000,249.000000 -644.000000C282.000000 -644.000000,348.000000 -626.000000,367.000000 -527.000000C377.000000 -471.000000,377.000000 -395.000000,377.000000 -332.000000C377.000000 -257.000000,377.000000 -189.000000,366.000000 -125.000000C351.000000 -30.000000,294.000000 -0.000000,249.000000 -0.000000"></path>
    </g>
    <g transform="scale(0.009963,0.009963)" id="GLYPHcmr10_49">
      <path style="fill-rule: evenodd;" d="M294.000000 -640.000000C294.000000 -664.000000,294.000000 -666.000000,271.000000 -666.000000C209.000000 -602.000000,121.000000 -602.000000,89.000000 -602.000000L89.000000 -571.000000C109.000000 -571.000000,168.000000 -571.000000,220.000000 -597.000000L220.000000 -79.000000C220.000000 -43.000000,217.000000 -31.000000,127.000000 -31.000000L95.000000 -31.000000L95.000000 -0.000000C130.000000 -3.000000,217.000000 -3.000000,257.000000 -3.000000C297.000000 -3.000000,384.000000 -3.000000,419.000000 -0.000000L419.000000 -31.000000L387.000000 -31.000000C297.000000 -31.000000,294.000000 -42.000000,294.000000 -79.000000"></path>
    </g>
    <g transform="scale(0.009963,0.009963)" id="GLYPHcmr10_50">
      <path style="fill-rule: evenodd;" d="M127.000000 -77.000000L233.000000 -180.000000C389.000000 -318.000000,449.000000 -372.000000,449.000000 -472.000000C449.000000 -586.000000,359.000000 -666.000000,237.000000 -666.000000C124.000000 -666.000000,50.000000 -574.000000,50.000000 -485.000000C50.000000 -429.000000,100.000000 -429.000000,103.000000 -429.000000C120.000000 -429.000000,155.000000 -441.000000,155.000000 -482.000000C155.000000 -508.000000,137.000000 -534.000000,102.000000 -534.000000C94.000000 -534.000000,92.000000 -534.000000,89.000000 -533.000000C112.000000 -598.000000,166.000000 -635.000000,224.000000 -635.000000C315.000000 -635.000000,358.000000 -554.000000,358.000000 -472.000000C358.000000 -392.000000,308.000000 -313.000000,253.000000 -251.000000L61.000000 -37.000000C50.000000 -26.000000,50.000000 -24.000000,50.000000 -0.000000L421.000000 -0.000000L449.000000 -174.000000L424.000000 -174.000000C419.000000 -144.000000,412.000000 -100.000000,402.000000 -85.000000C395.000000 -77.000000,329.000000 -77.000000,307.000000 -77.000000"></path>
    </g>
    <g transform="scale(0.009963,0.009963)" id="GLYPHcmr10_51">
      <path style="fill-rule: evenodd;" d="M290.000000 -352.000000C372.000000 -379.000000,430.000000 -449.000000,430.000000 -528.000000C430.000000 -610.000000,342.000000 -666.000000,246.000000 -666.000000C145.000000 -666.000000,69.000000 -606.000000,69.000000 -530.000000C69.000000 -497.000000,91.000000 -478.000000,120.000000 -478.000000C151.000000 -478.000000,171.000000 -500.000000,171.000000 -529.000000C171.000000 -579.000000,124.000000 -579.000000,109.000000 -579.000000C140.000000 -628.000000,206.000000 -641.000000,242.000000 -641.000000C283.000000 -641.000000,338.000000 -619.000000,338.000000 -529.000000C338.000000 -517.000000,336.000000 -459.000000,310.000000 -415.000000C280.000000 -367.000000,246.000000 -364.000000,221.000000 -363.000000C213.000000 -362.000000,189.000000 -360.000000,182.000000 -360.000000C174.000000 -359.000000,167.000000 -358.000000,167.000000 -348.000000C167.000000 -337.000000,174.000000 -337.000000,191.000000 -337.000000L235.000000 -337.000000C317.000000 -337.000000,354.000000 -269.000000,354.000000 -171.000000C354.000000 -35.000000,285.000000 -6.000000,241.000000 -6.000000C198.000000 -6.000000,123.000000 -23.000000,88.000000 -82.000000C123.000000 -77.000000,154.000000 -99.000000,154.000000 -137.000000C154.000000 -173.000000,127.000000 -193.000000,98.000000 -193.000000C74.000000 -193.000000,42.000000 -179.000000,42.000000 -135.000000C42.000000 -44.000000,135.000000 22.000000,244.000000 22.000000C366.000000 22.000000,457.000000 -69.000000,457.000000 -171.000000C457.000000 -253.000000,394.000000 -331.000000,290.000000 -352.000000"></path>
    </g>
    <g transform="scale(0.009963,0.009963)" id="GLYPHcmr10_52">
      <path style="fill-rule: evenodd;" d="M294.000000 -165.000000L294.000000 -78.000000C294.000000 -42.000000,292.000000 -31.000000,218.000000 -31.000000L197.000000 -31.000000L197.000000 -0.000000C238.000000 -3.000000,290.000000 -3.000000,332.000000 -3.000000C374.000000 -3.000000,427.000000 -3.000000,468.000000 -0.000000L468.000000 -31.000000L447.000000 -31.000000C373.000000 -31.000000,371.000000 -42.000000,371.000000 -78.000000L371.000000 -165.000000L471.000000 -165.000000L471.000000 -196.000000L371.000000 -196.000000L371.000000 -651.000000C371.000000 -671.000000,371.000000 -677.000000,355.000000 -677.000000C346.000000 -677.000000,343.000000 -677.000000,335.000000 -665.000000L28.000000 -196.000000L28.000000 -165.000000M300.000000 -196.000000L56.000000 -196.000000L300.000000 -569.000000"></path>
    </g>
    <g transform="scale(0.009963,0.009963)" id="GLYPHcmr10_53">
      <path style="fill-rule: evenodd;" d="M449.000000 -201.000000C449.000000 -320.000000,367.000000 -420.000000,259.000000 -420.000000C211.000000 -420.000000,168.000000 -404.000000,132.000000 -369.000000L132.000000 -564.000000C152.000000 -558.000000,185.000000 -551.000000,217.000000 -551.000000C340.000000 -551.000000,410.000000 -642.000000,410.000000 -655.000000C410.000000 -661.000000,407.000000 -666.000000,400.000000 -666.000000C399.000000 -666.000000,397.000000 -666.000000,392.000000 -663.000000C372.000000 -654.000000,323.000000 -634.000000,256.000000 -634.000000C216.000000 -634.000000,170.000000 -641.000000,123.000000 -662.000000C115.000000 -665.000000,113.000000 -665.000000,111.000000 -665.000000C101.000000 -665.000000,101.000000 -657.000000,101.000000 -641.000000L101.000000 -345.000000C101.000000 -327.000000,101.000000 -319.000000,115.000000 -319.000000C122.000000 -319.000000,124.000000 -322.000000,128.000000 -328.000000C139.000000 -344.000000,176.000000 -398.000000,257.000000 -398.000000C309.000000 -398.000000,334.000000 -352.000000,342.000000 -334.000000C358.000000 -297.000000,360.000000 -258.000000,360.000000 -208.000000C360.000000 -173.000000,360.000000 -113.000000,336.000000 -71.000000C312.000000 -32.000000,275.000000 -6.000000,229.000000 -6.000000C156.000000 -6.000000,99.000000 -59.000000,82.000000 -118.000000C85.000000 -117.000000,88.000000 -116.000000,99.000000 -116.000000C132.000000 -116.000000,149.000000 -141.000000,149.000000 -165.000000C149.000000 -189.000000,132.000000 -214.000000,99.000000 -214.000000C85.000000 -214.000000,50.000000 -207.000000,50.000000 -161.000000C50.000000 -75.000000,119.000000 22.000000,231.000000 22.000000C347.000000 22.000000,449.000000 -74.000000,449.000000 -201.000000"></path>
    </g>
    <g transform="scale(0.009963,0.009963)" id="GLYPHcmr10_117">
      <path style="fill-rule: evenodd;" d="M391.000000 -79.000000L391.000000 11.000000L535.000000 -0.000000L535.000000 -31.000000C465.000000 -31.000000,457.000000 -38.000000,457.000000 -87.000000L457.000000 -442.000000L310.000000 -431.000000L310.000000 -400.000000C380.000000 -400.000000,388.000000 -393.000000,388.000000 -344.000000L388.000000 -166.000000C388.000000 -79.000000,340.000000 -11.000000,267.000000 -11.000000C183.000000 -11.000000,179.000000 -58.000000,179.000000 -110.000000L179.000000 -442.000000L32.000000 -431.000000L32.000000 -400.000000C110.000000 -400.000000,110.000000 -397.000000,110.000000 -308.000000L110.000000 -158.000000C110.000000 -80.000000,110.000000 11.000000,262.000000 11.000000C318.000000 11.000000,362.000000 -17.000000,391.000000 -79.000000"></path>
    </g>
    <g transform="scale(0.009963,0.009963)" id="GLYPHcmr10_118">
      <path style="fill-rule: evenodd;" d="M416.000000 -333.000000C425.000000 -356.000000,442.000000 -399.000000,508.000000 -400.000000L508.000000 -431.000000C485.000000 -429.000000,456.000000 -428.000000,433.000000 -428.000000C409.000000 -428.000000,363.000000 -430.000000,346.000000 -431.000000L346.000000 -400.000000C383.000000 -399.000000,394.000000 -376.000000,394.000000 -357.000000C394.000000 -348.000000,392.000000 -344.000000,388.000000 -333.000000L286.000000 -78.000000L174.000000 -357.000000C168.000000 -370.000000,168.000000 -372.000000,168.000000 -374.000000C168.000000 -400.000000,207.000000 -400.000000,225.000000 -400.000000L225.000000 -431.000000C195.000000 -430.000000,139.000000 -428.000000,116.000000 -428.000000C89.000000 -428.000000,49.000000 -429.000000,19.000000 -431.000000L19.000000 -400.000000C82.000000 -400.000000,86.000000 -394.000000,99.000000 -363.000000L243.000000 -8.000000C249.000000 6.000000,251.000000 11.000000,264.000000 11.000000C277.000000 11.000000,281.000000 2.000000,285.000000 -8.000000"></path>
    </g>
    <g transform="scale(0.009963,0.009963)" id="GLYPHcmmi10_85">
      <path style="fill-rule: evenodd;" d="M635.000000 -578.000000C645.000000 -619.000000,663.000000 -649.000000,743.000000 -652.000000C748.000000 -652.000000,760.000000 -653.000000,760.000000 -672.000000C760.000000 -673.000000,760.000000 -683.000000,747.000000 -683.000000C714.000000 -683.000000,679.000000 -680.000000,645.000000 -680.000000C611.000000 -680.000000,574.000000 -683.000000,541.000000 -683.000000C535.000000 -683.000000,523.000000 -683.000000,523.000000 -663.000000C523.000000 -652.000000,533.000000 -652.000000,541.000000 -652.000000C598.000000 -651.000000,609.000000 -630.000000,609.000000 -608.000000C609.000000 -605.000000,607.000000 -590.000000,606.000000 -587.000000L516.000000 -230.000000C482.000000 -96.000000,367.000000 -9.000000,267.000000 -9.000000C199.000000 -9.000000,145.000000 -53.000000,145.000000 -139.000000C145.000000 -141.000000,145.000000 -173.000000,156.000000 -217.000000L253.000000 -606.000000C262.000000 -642.000000,264.000000 -652.000000,337.000000 -652.000000C363.000000 -652.000000,371.000000 -652.000000,371.000000 -672.000000C371.000000 -683.000000,360.000000 -683.000000,357.000000 -683.000000C329.000000 -683.000000,257.000000 -680.000000,229.000000 -680.000000C200.000000 -680.000000,129.000000 -683.000000,100.000000 -683.000000C92.000000 -683.000000,81.000000 -683.000000,81.000000 -663.000000C81.000000 -652.000000,90.000000 -652.000000,109.000000 -652.000000C111.000000 -652.000000,130.000000 -652.000000,147.000000 -650.000000C165.000000 -648.000000,174.000000 -647.000000,174.000000 -634.000000C174.000000 -628.000000,163.000000 -586.000000,157.000000 -563.000000L135.000000 -475.000000C126.000000 -436.000000,78.000000 -247.000000,74.000000 -228.000000C67.000000 -200.000000,67.000000 -185.000000,67.000000 -170.000000C67.000000 -48.000000,158.000000 22.000000,263.000000 22.000000C389.000000 22.000000,513.000000 -91.000000,546.000000 -223.000000"></path>
    </g>
    <g transform="scale(0.009963,0.009963)" id="GLYPHcmmi10_86">
      <path style="fill-rule: evenodd;" d="M628.000000 -569.000000C677.000000 -647.000000,719.000000 -650.000000,756.000000 -652.000000C768.000000 -653.000000,769.000000 -670.000000,769.000000 -671.000000C769.000000 -679.000000,764.000000 -683.000000,756.000000 -683.000000C730.000000 -683.000000,701.000000 -680.000000,674.000000 -680.000000C641.000000 -680.000000,607.000000 -683.000000,575.000000 -683.000000C569.000000 -683.000000,556.000000 -683.000000,556.000000 -664.000000C556.000000 -653.000000,565.000000 -652.000000,572.000000 -652.000000C599.000000 -650.000000,618.000000 -640.000000,618.000000 -619.000000C618.000000 -604.000000,603.000000 -582.000000,603.000000 -581.000000L296.000000 -93.000000L228.000000 -622.000000C228.000000 -639.000000,251.000000 -652.000000,297.000000 -652.000000C311.000000 -652.000000,322.000000 -652.000000,322.000000 -672.000000C322.000000 -681.000000,314.000000 -683.000000,308.000000 -683.000000C268.000000 -683.000000,225.000000 -680.000000,184.000000 -680.000000C166.000000 -680.000000,147.000000 -681.000000,129.000000 -681.000000C111.000000 -681.000000,92.000000 -683.000000,75.000000 -683.000000C68.000000 -683.000000,56.000000 -683.000000,56.000000 -664.000000C56.000000 -652.000000,65.000000 -652.000000,81.000000 -652.000000C137.000000 -652.000000,138.000000 -643.000000,141.000000 -618.000000L220.000000 -1.000000C223.000000 19.000000,227.000000 22.000000,240.000000 22.000000C256.000000 22.000000,260.000000 17.000000,268.000000 4.000000"></path>
    </g>
  </defs>
  <path d="M71.366150 85.539368L298.137756 340.657410" style="stroke:rgb(100.000000%,0.000000%,0.000000%); stroke-width: 8.503937;stroke-linecap: round;stroke-linejoin: round;stroke-miterlimit: 10.000000;fill: none;"></path>
  <path d="M71.366150 142.232269L298.137756 170.578705" style="stroke:rgb(100.000000%,0.000000%,0.000000%); stroke-width: 8.503937;stroke-linecap: round;stroke-linejoin: round;stroke-miterlimit: 10.000000;fill: none;"></path>
  <path d="M71.366150 255.618073L298.137756 227.271606" style="stroke:rgb(100.000000%,0.000000%,0.000000%); stroke-width: 8.503937;stroke-linecap: round;stroke-linejoin: round;stroke-miterlimit: 10.000000;fill: none;"></path>
  <path d="M71.366150 85.539368l0 0" style="stroke:rgb(0.000000%,0.000000%,0.000000%); stroke-width: 8.503937;stroke-linecap: round;stroke-linejoin: round;stroke-miterlimit: 10.000000;fill: none;"></path>
  <path d="M71.366150 142.232269l0 0" style="stroke:rgb(0.000000%,0.000000%,0.000000%); stroke-width: 8.503937;stroke-linecap: round;stroke-linejoin: round;stroke-miterlimit: 10.000000;fill: none;"></path>
  <path d="M71.366150 198.925171l0 0" style="stroke:rgb(0.000000%,0.000000%,0.000000%); stroke-width: 8.503937;stroke-linecap: round;stroke-linejoin: round;stroke-miterlimit: 10.000000;fill: none;"></path>
  <path d="M71.366150 255.618073l0 0" style="stroke:rgb(0.000000%,0.000000%,0.000000%); stroke-width: 8.503937;stroke-linecap: round;stroke-linejoin: round;stroke-miterlimit: 10.000000;fill: none;"></path>
  <path d="M71.366150 312.310974l0 0" style="stroke:rgb(0.000000%,0.000000%,0.000000%); stroke-width: 8.503937;stroke-linecap: round;stroke-linejoin: round;stroke-miterlimit: 10.000000;fill: none;"></path>
  <path d="M298.137756 57.192902l0 0" style="stroke:rgb(0.000000%,0.000000%,0.000000%); stroke-width: 8.503937;stroke-linecap: round;stroke-linejoin: round;stroke-miterlimit: 10.000000;fill: none;"></path>
  <path d="M298.137756 113.885803l0 0" style="stroke:rgb(0.000000%,0.000000%,0.000000%); stroke-width: 8.503937;stroke-linecap: round;stroke-linejoin: round;stroke-miterlimit: 10.000000;fill: none;"></path>
  <path d="M298.137756 170.578705l0 0" style="stroke:rgb(0.000000%,0.000000%,0.000000%); stroke-width: 8.503937;stroke-linecap: round;stroke-linejoin: round;stroke-miterlimit: 10.000000;fill: none;"></path>
  <path d="M298.137756 227.271606l0 0" style="stroke:rgb(0.000000%,0.000000%,0.000000%); stroke-width: 8.503937;stroke-linecap: round;stroke-linejoin: round;stroke-miterlimit: 10.000000;fill: none;"></path>
  <path d="M298.137756 283.964508l0 0" style="stroke:rgb(0.000000%,0.000000%,0.000000%); stroke-width: 8.503937;stroke-linecap: round;stroke-linejoin: round;stroke-miterlimit: 10.000000;fill: none;"></path>
  <path d="M298.137756 340.657410l0 0" style="stroke:rgb(0.000000%,0.000000%,0.000000%); stroke-width: 8.503937;stroke-linecap: round;stroke-linejoin: round;stroke-miterlimit: 10.000000;fill: none;"></path>
  <g transform="matrix(2.000000,-0.000000,-0.000000,2.000000,44.333832 91.959747)" style="fill: rgb(0.000000%,0.000000%,0.000000%);">
    <use xlink:href="#GLYPHcmr10_117"></use>
    <use xlink:href="#GLYPHcmr10_48" x="5.555661"></use>
  </g>
  <g transform="matrix(2.000000,-0.000000,-0.000000,2.000000,44.333832 148.652649)" style="fill: rgb(0.000000%,0.000000%,0.000000%);">
    <use xlink:href="#GLYPHcmr10_117"></use>
    <use xlink:href="#GLYPHcmr10_49" x="5.555661"></use>
  </g>
  <g transform="matrix(2.000000,-0.000000,-0.000000,2.000000,44.333832 205.345551)" style="fill: rgb(0.000000%,0.000000%,0.000000%);">
    <use xlink:href="#GLYPHcmr10_117"></use>
    <use xlink:href="#GLYPHcmr10_50" x="5.555661"></use>
  </g>
  <g transform="matrix(2.000000,-0.000000,-0.000000,2.000000,44.333832 262.038452)" style="fill: rgb(0.000000%,0.000000%,0.000000%);">
    <use xlink:href="#GLYPHcmr10_117"></use>
    <use xlink:href="#GLYPHcmr10_51" x="5.555661"></use>
  </g>
  <g transform="matrix(2.000000,-0.000000,-0.000000,2.000000,44.333832 318.731354)" style="fill: rgb(0.000000%,0.000000%,0.000000%);">
    <use xlink:href="#GLYPHcmr10_117"></use>
    <use xlink:href="#GLYPHcmr10_52" x="5.555661"></use>
  </g>
  <g transform="matrix(2.000000,-0.000000,-0.000000,2.000000,304.137756 63.613281)" style="fill: rgb(0.000000%,0.000000%,0.000000%);">
    <use xlink:href="#GLYPHcmr10_118"></use>
    <use xlink:href="#GLYPHcmr10_48" x="5.277886"></use>
  </g>
  <g transform="matrix(2.000000,-0.000000,-0.000000,2.000000,304.137756 120.306183)" style="fill: rgb(0.000000%,0.000000%,0.000000%);">
    <use xlink:href="#GLYPHcmr10_118"></use>
    <use xlink:href="#GLYPHcmr10_49" x="5.277886"></use>
  </g>
  <g transform="matrix(2.000000,-0.000000,-0.000000,2.000000,304.137756 176.999084)" style="fill: rgb(0.000000%,0.000000%,0.000000%);">
    <use xlink:href="#GLYPHcmr10_118"></use>
    <use xlink:href="#GLYPHcmr10_50" x="5.277886"></use>
  </g>
  <g transform="matrix(2.000000,-0.000000,-0.000000,2.000000,304.137756 233.691986)" style="fill: rgb(0.000000%,0.000000%,0.000000%);">
    <use xlink:href="#GLYPHcmr10_118"></use>
    <use xlink:href="#GLYPHcmr10_51" x="5.277886"></use>
  </g>
  <g transform="matrix(2.000000,-0.000000,-0.000000,2.000000,304.137756 290.384888)" style="fill: rgb(0.000000%,0.000000%,0.000000%);">
    <use xlink:href="#GLYPHcmr10_118"></use>
    <use xlink:href="#GLYPHcmr10_52" x="5.277886"></use>
  </g>
  <g transform="matrix(2.000000,-0.000000,-0.000000,2.000000,304.137756 347.077789)" style="fill: rgb(0.000000%,0.000000%,0.000000%);">
    <use xlink:href="#GLYPHcmr10_118"></use>
    <use xlink:href="#GLYPHcmr10_53" x="5.277886"></use>
  </g>
  <path d="M71.366150 85.539368L298.137756 57.192902" style="stroke:rgb(0.000000%,0.000000%,0.000000%); stroke-width: 1.000000;stroke-linecap: round;stroke-linejoin: round;stroke-miterlimit: 10.000000;fill: none;"></path>
  <path d="M71.366150 85.539368L298.137756 170.578705" style="stroke:rgb(0.000000%,0.000000%,0.000000%); stroke-width: 1.000000;stroke-linecap: round;stroke-linejoin: round;stroke-miterlimit: 10.000000;fill: none;"></path>
  <path d="M71.366150 85.539368L298.137756 227.271606" style="stroke:rgb(0.000000%,0.000000%,0.000000%); stroke-width: 1.000000;stroke-linecap: round;stroke-linejoin: round;stroke-miterlimit: 10.000000;fill: none;"></path>
  <path d="M71.366150 85.539368L298.137756 283.964508" style="stroke:rgb(0.000000%,0.000000%,0.000000%); stroke-width: 1.000000;stroke-linecap: round;stroke-linejoin: round;stroke-miterlimit: 10.000000;fill: none;"></path>
  <path d="M71.366150 85.539368L298.137756 340.657410" style="stroke:rgb(0.000000%,0.000000%,0.000000%); stroke-width: 1.000000;stroke-linecap: round;stroke-linejoin: round;stroke-miterlimit: 10.000000;fill: none;"></path>
  <path d="M71.366150 142.232269L298.137756 113.885803" style="stroke:rgb(0.000000%,0.000000%,0.000000%); stroke-width: 1.000000;stroke-linecap: round;stroke-linejoin: round;stroke-miterlimit: 10.000000;fill: none;"></path>
  <path d="M71.366150 142.232269L298.137756 170.578705" style="stroke:rgb(0.000000%,0.000000%,0.000000%); stroke-width: 1.000000;stroke-linecap: round;stroke-linejoin: round;stroke-miterlimit: 10.000000;fill: none;"></path>
  <path d="M71.366150 198.925171L298.137756 283.964508" style="stroke:rgb(0.000000%,0.000000%,0.000000%); stroke-width: 1.000000;stroke-linecap: round;stroke-linejoin: round;stroke-miterlimit: 10.000000;fill: none;"></path>
  <path d="M71.366150 198.925171L298.137756 340.657410" style="stroke:rgb(0.000000%,0.000000%,0.000000%); stroke-width: 1.000000;stroke-linecap: round;stroke-linejoin: round;stroke-miterlimit: 10.000000;fill: none;"></path>
  <path d="M71.366150 255.618073L298.137756 227.271606" style="stroke:rgb(0.000000%,0.000000%,0.000000%); stroke-width: 1.000000;stroke-linecap: round;stroke-linejoin: round;stroke-miterlimit: 10.000000;fill: none;"></path>
  <path d="M71.366150 312.310974L298.137756 340.657410" style="stroke:rgb(0.000000%,0.000000%,0.000000%); stroke-width: 1.000000;stroke-linecap: round;stroke-linejoin: round;stroke-miterlimit: 10.000000;fill: none;"></path>
  <path d="M142.232300 198.925171C142.232300 153.815491,134.764618 110.558777,121.475037 78.663818C108.185486 46.768890,90.161865 28.846466,71.366150 28.846466C52.570435 28.846466,34.546814 46.768890,21.257263 78.663818C7.967682 110.558777,0.500000 153.815491,0.500000 198.925171C0.500000 244.034851,7.967682 287.291565,21.257263 319.186523C34.546814 351.081451,52.570435 369.003876,71.366150 369.003876C90.161865 369.003876,108.185486 351.081451,121.475037 319.186523C134.764618 287.291565,142.232300 244.034851,142.232300 198.925171Z" style="stroke:rgb(0.000000%,0.000000%,0.000000%); stroke-width: 1.000000;stroke-linecap: round;stroke-dasharray: 6.000000 6.000000 ;stroke-linejoin: round;stroke-miterlimit: 10.000000;fill: none;"></path>
  <path d="M369.003906 198.925171C369.003906 146.297211,361.536224 95.831055,348.246643 58.620270C334.957092 21.409515,316.933472 0.500000,298.137756 0.500000C279.342041 0.500000,261.318420 21.409515,248.028870 58.620270C234.739288 95.831055,227.271606 146.297211,227.271606 198.925171C227.271606 251.553131,234.739288 302.019287,248.028870 339.230072C261.318420 376.440826,279.342041 397.350342,298.137756 397.350342C316.933472 397.350342,334.957092 376.440826,348.246643 339.230072C361.536224 302.019287,369.003906 251.553131,369.003906 198.925171Z" style="stroke:rgb(0.000000%,0.000000%,0.000000%); stroke-width: 1.000000;stroke-linecap: round;stroke-dasharray: 6.000000 6.000000 ;stroke-linejoin: round;stroke-miterlimit: 10.000000;fill: none;"></path>
  <g transform="matrix(2.000000,-0.000000,-0.000000,2.000000,63.477753 404.158142)" style="fill: rgb(0.000000%,0.000000%,0.000000%);">
    <use xlink:href="#GLYPHcmmi10_85"></use>
  </g>
  <g transform="matrix(2.000000,-0.000000,-0.000000,2.000000,290.112244 432.504578)" style="fill: rgb(0.000000%,0.000000%,0.000000%);">
    <use xlink:href="#GLYPHcmmi10_86"></use>
  </g>
</svg>
