<?xml version="1.0"?>
<!-- Created by MetaPost 2.10 on 2025.03.13:1029 -->
<svg version="1.1" xmlns="http://www.w3.org/2000/svg" xmlns:xlink="http://www.w3.org/1999/xlink" width="669.496841" height="228.764191" viewBox="0 0 669.496841 228.764191">
<!-- Original BoundingBox: -86.035629 -114.382095 583.461212 114.382095 -->
  <defs>
    <g transform="scale(0.009963,0.009963)" id="GLYPHcmmi10_59">
      <path style="fill-rule: evenodd;" d="M203.000000 -1.000000C203.000000 -67.000000,178.000000 -106.000000,139.000000 -106.000000C106.000000 -106.000000,86.000000 -81.000000,86.000000 -53.000000C86.000000 -26.000000,106.000000 -0.000000,139.000000 -0.000000C151.000000 -0.000000,164.000000 -4.000000,174.000000 -13.000000C177.000000 -15.000000,178.000000 -16.000000,179.000000 -16.000000C180.000000 -16.000000,181.000000 -15.000000,181.000000 -1.000000C181.000000 73.000000,146.000000 133.000000,113.000000 166.000000C102.000000 177.000000,102.000000 179.000000,102.000000 182.000000C102.000000 189.000000,107.000000 193.000000,112.000000 193.000000C123.000000 193.000000,203.000000 116.000000,203.000000 -1.000000"></path>
    </g>
    <g transform="scale(0.009963,0.009963)" id="GLYPHcmmi10_65">
      <path style="fill-rule: evenodd;" d="M179.000000 -115.000000C139.000000 -48.000000,100.000000 -34.000000,56.000000 -31.000000C44.000000 -30.000000,35.000000 -30.000000,35.000000 -11.000000C35.000000 -5.000000,40.000000 -0.000000,48.000000 -0.000000C75.000000 -0.000000,106.000000 -3.000000,134.000000 -3.000000C167.000000 -3.000000,202.000000 -0.000000,234.000000 -0.000000C240.000000 -0.000000,253.000000 -0.000000,253.000000 -19.000000C253.000000 -30.000000,244.000000 -31.000000,237.000000 -31.000000C214.000000 -33.000000,190.000000 -41.000000,190.000000 -66.000000C190.000000 -78.000000,196.000000 -89.000000,204.000000 -103.000000L280.000000 -231.000000L531.000000 -231.000000C533.000000 -210.000000,547.000000 -74.000000,547.000000 -64.000000C547.000000 -34.000000,495.000000 -31.000000,475.000000 -31.000000C461.000000 -31.000000,451.000000 -31.000000,451.000000 -11.000000C451.000000 -0.000000,463.000000 -0.000000,465.000000 -0.000000C506.000000 -0.000000,549.000000 -3.000000,590.000000 -3.000000C615.000000 -3.000000,678.000000 -0.000000,703.000000 -0.000000C709.000000 -0.000000,721.000000 -0.000000,721.000000 -20.000000C721.000000 -31.000000,711.000000 -31.000000,698.000000 -31.000000C636.000000 -31.000000,636.000000 -38.000000,633.000000 -67.000000L572.000000 -692.000000C570.000000 -712.000000,570.000000 -716.000000,553.000000 -716.000000C537.000000 -716.000000,533.000000 -709.000000,527.000000 -699.000000M299.000000 -262.000000L496.000000 -592.000000L528.000000 -262.000000"></path>
    </g>
    <g transform="scale(0.009963,0.009963)" id="GLYPHcmmi10_66">
      <path style="fill-rule: evenodd;" d="M160.000000 -78.000000C150.000000 -39.000000,148.000000 -31.000000,69.000000 -31.000000C52.000000 -31.000000,42.000000 -31.000000,42.000000 -11.000000C42.000000 -0.000000,51.000000 -0.000000,69.000000 -0.000000L426.000000 -0.000000C584.000000 -0.000000,702.000000 -118.000000,702.000000 -216.000000C702.000000 -288.000000,644.000000 -346.000000,547.000000 -357.000000C651.000000 -376.000000,756.000000 -450.000000,756.000000 -545.000000C756.000000 -619.000000,690.000000 -683.000000,570.000000 -683.000000L234.000000 -683.000000C215.000000 -683.000000,205.000000 -683.000000,205.000000 -663.000000C205.000000 -652.000000,214.000000 -652.000000,233.000000 -652.000000C235.000000 -652.000000,254.000000 -652.000000,271.000000 -650.000000C289.000000 -648.000000,298.000000 -647.000000,298.000000 -634.000000C298.000000 -630.000000,297.000000 -627.000000,294.000000 -615.000000M311.000000 -366.000000L373.000000 -614.000000C382.000000 -649.000000,384.000000 -652.000000,427.000000 -652.000000L556.000000 -652.000000C644.000000 -652.000000,665.000000 -593.000000,665.000000 -549.000000C665.000000 -461.000000,579.000000 -366.000000,457.000000 -366.000000M266.000000 -31.000000C252.000000 -31.000000,250.000000 -31.000000,244.000000 -32.000000C234.000000 -33.000000,231.000000 -34.000000,231.000000 -42.000000C231.000000 -45.000000,231.000000 -47.000000,236.000000 -65.000000L305.000000 -344.000000L494.000000 -344.000000C590.000000 -344.000000,609.000000 -270.000000,609.000000 -227.000000C609.000000 -128.000000,520.000000 -31.000000,402.000000 -31.000000"></path>
    </g>
    <g transform="scale(0.009963,0.009963)" id="GLYPHcmmi10_67">
      <path style="fill-rule: evenodd;" d="M760.000000 -695.000000C760.000000 -698.000000,758.000000 -705.000000,749.000000 -705.000000C746.000000 -705.000000,745.000000 -704.000000,734.000000 -693.000000L664.000000 -616.000000C655.000000 -630.000000,609.000000 -705.000000,498.000000 -705.000000C275.000000 -705.000000,50.000000 -484.000000,50.000000 -252.000000C50.000000 -87.000000,168.000000 22.000000,321.000000 22.000000C408.000000 22.000000,484.000000 -18.000000,537.000000 -64.000000C630.000000 -146.000000,647.000000 -237.000000,647.000000 -240.000000C647.000000 -250.000000,637.000000 -250.000000,635.000000 -250.000000C629.000000 -250.000000,624.000000 -248.000000,622.000000 -240.000000C613.000000 -211.000000,590.000000 -140.000000,521.000000 -82.000000C452.000000 -26.000000,389.000000 -9.000000,337.000000 -9.000000C247.000000 -9.000000,141.000000 -61.000000,141.000000 -217.000000C141.000000 -274.000000,162.000000 -436.000000,262.000000 -553.000000C323.000000 -624.000000,417.000000 -674.000000,506.000000 -674.000000C608.000000 -674.000000,667.000000 -597.000000,667.000000 -481.000000C667.000000 -441.000000,664.000000 -440.000000,664.000000 -430.000000C664.000000 -420.000000,675.000000 -420.000000,679.000000 -420.000000C692.000000 -420.000000,692.000000 -422.000000,697.000000 -440.000000"></path>
    </g>
    <g transform="scale(0.009963,0.009963)" id="GLYPHcmmi10_68">
      <path style="fill-rule: evenodd;" d="M159.000000 -78.000000C149.000000 -39.000000,147.000000 -31.000000,68.000000 -31.000000C51.000000 -31.000000,40.000000 -31.000000,40.000000 -12.000000C40.000000 -0.000000,49.000000 -0.000000,68.000000 -0.000000L399.000000 -0.000000C607.000000 -0.000000,804.000000 -211.000000,804.000000 -430.000000C804.000000 -571.000000,719.000000 -683.000000,569.000000 -683.000000L233.000000 -683.000000C214.000000 -683.000000,203.000000 -683.000000,203.000000 -664.000000C203.000000 -652.000000,212.000000 -652.000000,232.000000 -652.000000C245.000000 -652.000000,263.000000 -651.000000,275.000000 -650.000000C291.000000 -648.000000,297.000000 -645.000000,297.000000 -634.000000C297.000000 -630.000000,296.000000 -627.000000,293.000000 -615.000000M375.000000 -614.000000C384.000000 -649.000000,386.000000 -652.000000,429.000000 -652.000000L536.000000 -652.000000C634.000000 -652.000000,717.000000 -599.000000,717.000000 -467.000000C717.000000 -418.000000,697.000000 -254.000000,612.000000 -144.000000C583.000000 -107.000000,504.000000 -31.000000,381.000000 -31.000000L268.000000 -31.000000C254.000000 -31.000000,252.000000 -31.000000,246.000000 -32.000000C236.000000 -33.000000,233.000000 -34.000000,233.000000 -42.000000C233.000000 -45.000000,233.000000 -47.000000,238.000000 -65.000000"></path>
    </g>
    <g transform="scale(0.009963,0.009963)" id="GLYPHcmmi10_97">
      <path style="fill-rule: evenodd;" d="M373.000000 -378.000000C355.000000 -415.000000,326.000000 -442.000000,281.000000 -442.000000C164.000000 -442.000000,40.000000 -295.000000,40.000000 -149.000000C40.000000 -55.000000,95.000000 11.000000,173.000000 11.000000C193.000000 11.000000,243.000000 7.000000,303.000000 -64.000000C311.000000 -22.000000,346.000000 11.000000,394.000000 11.000000C429.000000 11.000000,452.000000 -12.000000,468.000000 -44.000000C485.000000 -80.000000,498.000000 -141.000000,498.000000 -143.000000C498.000000 -153.000000,489.000000 -153.000000,486.000000 -153.000000C476.000000 -153.000000,475.000000 -149.000000,472.000000 -135.000000C455.000000 -70.000000,437.000000 -11.000000,396.000000 -11.000000C369.000000 -11.000000,366.000000 -37.000000,366.000000 -57.000000C366.000000 -79.000000,368.000000 -87.000000,379.000000 -131.000000C390.000000 -173.000000,392.000000 -183.000000,401.000000 -221.000000L437.000000 -361.000000C444.000000 -389.000000,444.000000 -391.000000,444.000000 -395.000000C444.000000 -412.000000,432.000000 -422.000000,415.000000 -422.000000C391.000000 -422.000000,376.000000 -400.000000,373.000000 -378.000000M308.000000 -119.000000C303.000000 -101.000000,303.000000 -99.000000,288.000000 -82.000000C244.000000 -27.000000,203.000000 -11.000000,175.000000 -11.000000C125.000000 -11.000000,111.000000 -66.000000,111.000000 -105.000000C111.000000 -155.000000,143.000000 -278.000000,166.000000 -324.000000C197.000000 -383.000000,242.000000 -420.000000,282.000000 -420.000000C347.000000 -420.000000,361.000000 -338.000000,361.000000 -332.000000C361.000000 -326.000000,359.000000 -320.000000,358.000000 -315.000000"></path>
    </g>
    <g transform="scale(0.009963,0.009963)" id="GLYPHcmmi10_98">
      <path style="fill-rule: evenodd;" d="M239.000000 -683.000000C239.000000 -684.000000,239.000000 -694.000000,226.000000 -694.000000C203.000000 -694.000000,130.000000 -686.000000,104.000000 -684.000000C96.000000 -683.000000,85.000000 -682.000000,85.000000 -664.000000C85.000000 -652.000000,94.000000 -652.000000,109.000000 -652.000000C157.000000 -652.000000,159.000000 -645.000000,159.000000 -635.000000C159.000000 -628.000000,150.000000 -594.000000,145.000000 -573.000000L63.000000 -247.000000C51.000000 -197.000000,47.000000 -181.000000,47.000000 -146.000000C47.000000 -51.000000,100.000000 11.000000,174.000000 11.000000C292.000000 11.000000,415.000000 -138.000000,415.000000 -282.000000C415.000000 -373.000000,362.000000 -442.000000,282.000000 -442.000000C236.000000 -442.000000,195.000000 -413.000000,165.000000 -382.000000M145.000000 -305.000000C151.000000 -327.000000,151.000000 -329.000000,160.000000 -340.000000C209.000000 -405.000000,254.000000 -420.000000,280.000000 -420.000000C316.000000 -420.000000,343.000000 -390.000000,343.000000 -326.000000C343.000000 -267.000000,310.000000 -152.000000,292.000000 -114.000000C259.000000 -47.000000,213.000000 -11.000000,174.000000 -11.000000C140.000000 -11.000000,107.000000 -38.000000,107.000000 -112.000000C107.000000 -131.000000,107.000000 -150.000000,123.000000 -213.000000"></path>
    </g>
    <g transform="scale(0.009963,0.009963)" id="GLYPHcmr10_48">
      <path style="fill-rule: evenodd;" d="M460.000000 -320.000000C460.000000 -400.000000,455.000000 -480.000000,420.000000 -554.000000C374.000000 -650.000000,292.000000 -666.000000,250.000000 -666.000000C190.000000 -666.000000,117.000000 -640.000000,76.000000 -547.000000C44.000000 -478.000000,39.000000 -400.000000,39.000000 -320.000000C39.000000 -245.000000,43.000000 -155.000000,84.000000 -79.000000C127.000000 2.000000,200.000000 22.000000,249.000000 22.000000C303.000000 22.000000,379.000000 1.000000,423.000000 -94.000000C455.000000 -163.000000,460.000000 -241.000000,460.000000 -320.000000M249.000000 -0.000000C210.000000 -0.000000,151.000000 -25.000000,133.000000 -121.000000C122.000000 -181.000000,122.000000 -273.000000,122.000000 -332.000000C122.000000 -396.000000,122.000000 -462.000000,130.000000 -516.000000C149.000000 -635.000000,224.000000 -644.000000,249.000000 -644.000000C282.000000 -644.000000,348.000000 -626.000000,367.000000 -527.000000C377.000000 -471.000000,377.000000 -395.000000,377.000000 -332.000000C377.000000 -257.000000,377.000000 -189.000000,366.000000 -125.000000C351.000000 -30.000000,294.000000 -0.000000,249.000000 -0.000000"></path>
    </g>
    <g transform="scale(0.009963,0.009963)" id="GLYPHcmr10_49">
      <path style="fill-rule: evenodd;" d="M294.000000 -640.000000C294.000000 -664.000000,294.000000 -666.000000,271.000000 -666.000000C209.000000 -602.000000,121.000000 -602.000000,89.000000 -602.000000L89.000000 -571.000000C109.000000 -571.000000,168.000000 -571.000000,220.000000 -597.000000L220.000000 -79.000000C220.000000 -43.000000,217.000000 -31.000000,127.000000 -31.000000L95.000000 -31.000000L95.000000 -0.000000C130.000000 -3.000000,217.000000 -3.000000,257.000000 -3.000000C297.000000 -3.000000,384.000000 -3.000000,419.000000 -0.000000L419.000000 -31.000000L387.000000 -31.000000C297.000000 -31.000000,294.000000 -42.000000,294.000000 -79.000000"></path>
    </g>
  </defs>
  <path d="M114.382095 114.382095C114.382095 106.863815,111.395004 99.654373,106.079178 94.338547C100.763351 89.022720,93.553909 86.035629,86.035629 86.035629C78.517349 86.035629,71.307907 89.022720,65.992081 94.338547C60.676254 99.654373,57.689163 106.863815,57.689163 114.382095C57.689163 121.900375,60.676254 129.109818,65.992081 134.425644C71.307907 139.741470,78.517349 142.728561,86.035629 142.728561C93.553909 142.728561,100.763351 139.741470,106.079178 134.425644C111.395004 129.109818,114.382095 121.900375,114.382095 114.382095Z" style="stroke:rgb(0.000000%,0.000000%,0.000000%); stroke-width: 1.992523;stroke-linecap: round;stroke-linejoin: round;stroke-miterlimit: 10.000000;fill: none;"></path>
  <path d="M284.460800 114.382095C284.460800 106.863815,281.473709 99.654373,276.157883 94.338547C270.842056 89.022720,263.632614 86.035629,256.114334 86.035629C248.596054 86.035629,241.386612 89.022720,236.070786 94.338547C230.754959 99.654373,227.767868 106.863815,227.767868 114.382095C227.767868 121.900375,230.754959 129.109818,236.070786 134.425644C241.386612 139.741470,248.596054 142.728561,256.114334 142.728561C263.632614 142.728561,270.842056 139.741470,276.157883 134.425644C281.473709 129.109818,284.460800 121.900375,284.460800 114.382095Z" style="stroke:rgb(0.000000%,0.000000%,0.000000%); stroke-width: 1.992523;stroke-linecap: round;stroke-linejoin: round;stroke-miterlimit: 10.000000;fill: none;"></path>
  <path d="M454.539505 114.382095C454.539505 106.863815,451.552414 99.654373,446.236588 94.338547C440.920761 89.022720,433.711319 86.035629,426.193039 86.035629C418.674759 86.035629,411.465317 89.022720,406.149490 94.338547C400.833664 99.654373,397.846573 106.863815,397.846573 114.382095C397.846573 121.900375,400.833664 129.109818,406.149490 134.425644C411.465317 139.741470,418.674759 142.728561,426.193039 142.728561C433.711319 142.728561,440.920761 139.741470,446.236588 134.425644C451.552414 129.109818,454.539505 121.900375,454.539505 114.382095Z" style="stroke:rgb(0.000000%,0.000000%,0.000000%); stroke-width: 1.992523;stroke-linecap: round;stroke-linejoin: round;stroke-miterlimit: 10.000000;fill: none;"></path>
  <path d="M624.618210 199.421463C624.618210 191.903183,621.631119 184.693741,616.315292 179.377914C610.999466 174.062088,603.790024 171.074997,596.271744 171.074997C588.753464 171.074997,581.544022 174.062088,576.228195 179.377914C570.912369 184.693741,567.925278 191.903183,567.925278 199.421463C567.925278 206.939743,570.912369 214.149185,576.228195 219.465012C581.544022 224.780838,588.753464 227.767929,596.271744 227.767929C603.790024 227.767929,610.999466 224.780838,616.315292 219.465012C621.631119 214.149185,624.618210 206.939743,624.618210 199.421463Z" style="stroke:rgb(0.000000%,0.000000%,0.000000%); stroke-width: 1.992523;stroke-linecap: round;stroke-linejoin: round;stroke-miterlimit: 10.000000;fill: none;"></path>
  <path d="M624.618210 29.342728C624.618210 21.824448,621.631119 14.615005,616.315292 9.299179C610.999466 3.983353,603.790024 0.996262,596.271744 0.996262C588.753464 0.996262,581.544022 3.983353,576.228195 9.299179C570.912369 14.615005,567.925278 21.824448,567.925278 29.342728C567.925278 36.861008,570.912369 44.070450,576.228195 49.386276C581.544022 54.702103,588.753464 57.689194,596.271744 57.689194C603.790024 57.689194,610.999466 54.702103,616.315292 49.386276C621.631119 44.070450,624.618210 36.861008,624.618210 29.342728Z" style="stroke:rgb(0.000000%,0.000000%,0.000000%); stroke-width: 1.992523;stroke-linecap: round;stroke-linejoin: round;stroke-miterlimit: 10.000000;fill: none;"></path>
  <g transform="matrix(2.000000,-0.000000,-0.000000,2.000000,69.154526 119.252701)" style="fill: rgb(0.000000%,0.000000%,0.000000%);">
    <use xlink:href="#GLYPHcmmi10_65"></use>
    <use xlink:href="#GLYPHcmmi10_59" x="7.500135"></use>
  </g>
  <g transform="matrix(2.000000,-0.000000,-0.000000,2.000000,92.954117 119.252701)" style="fill: rgb(0.000000%,0.000000%,0.000000%);">
    <use xlink:href="#GLYPHcmr10_48"></use>
  </g>
  <g transform="matrix(2.000000,-0.000000,-0.000000,2.000000,238.648636 119.252701)" style="fill: rgb(0.000000%,0.000000%,0.000000%);">
    <use xlink:href="#GLYPHcmmi10_66"></use>
  </g>
  <g transform="matrix(2.000000,-0.000000,-0.000000,2.000000,254.761826 119.252701)" style="fill: rgb(0.000000%,0.000000%,0.000000%);">
    <use xlink:href="#GLYPHcmmi10_59"></use>
  </g>
  <g transform="matrix(2.000000,-0.000000,-0.000000,2.000000,263.617447 119.252701)" style="fill: rgb(0.000000%,0.000000%,0.000000%);">
    <use xlink:href="#GLYPHcmr10_48"></use>
  </g>
  <g transform="matrix(2.000000,-0.000000,-0.000000,2.000000,409.504227 119.252701)" style="fill: rgb(0.000000%,0.000000%,0.000000%);">
    <use xlink:href="#GLYPHcmmi10_67"></use>
  </g>
  <g transform="matrix(2.000000,-0.000000,-0.000000,2.000000,424.063431 119.252701)" style="fill: rgb(0.000000%,0.000000%,0.000000%);">
    <use xlink:href="#GLYPHcmmi10_59"></use>
  </g>
  <g transform="matrix(2.000000,-0.000000,-0.000000,2.000000,432.919022 119.252701)" style="fill: rgb(0.000000%,0.000000%,0.000000%);">
    <use xlink:href="#GLYPHcmr10_49"></use>
  </g>
  <g transform="matrix(2.000000,-0.000000,-0.000000,2.000000,578.337631 204.292068)" style="fill: rgb(0.000000%,0.000000%,0.000000%);">
    <use xlink:href="#GLYPHcmmi10_68"></use>
  </g>
  <g transform="matrix(2.000000,-0.000000,-0.000000,2.000000,595.387619 204.292068)" style="fill: rgb(0.000000%,0.000000%,0.000000%);">
    <use xlink:href="#GLYPHcmmi10_59"></use>
  </g>
  <g transform="matrix(2.000000,-0.000000,-0.000000,2.000000,604.243240 204.292068)" style="fill: rgb(0.000000%,0.000000%,0.000000%);">
    <use xlink:href="#GLYPHcmr10_49"></use>
  </g>
  <g transform="matrix(2.000000,-0.000000,-0.000000,2.000000,578.337631 34.213333)" style="fill: rgb(0.000000%,0.000000%,0.000000%);">
    <use xlink:href="#GLYPHcmmi10_68"></use>
  </g>
  <g transform="matrix(2.000000,-0.000000,-0.000000,2.000000,595.387619 34.213333)" style="fill: rgb(0.000000%,0.000000%,0.000000%);">
    <use xlink:href="#GLYPHcmmi10_59"></use>
  </g>
  <g transform="matrix(2.000000,-0.000000,-0.000000,2.000000,604.243240 34.213333)" style="fill: rgb(0.000000%,0.000000%,0.000000%);">
    <use xlink:href="#GLYPHcmr10_48"></use>
  </g>
  <path d="M114.382919 114.382095L227.768509 114.382095" style="stroke:rgb(0.000000%,0.000000%,0.000000%); stroke-width: 1.992523;stroke-linecap: round;stroke-linejoin: round;stroke-miterlimit: 10.000000;fill: none;"></path>
  <path d="M220.377457 117.443649L227.768509 114.382095L220.377457 111.320541Z" style="stroke:rgb(0.000000%,0.000000%,0.000000%); stroke-width: 1.992523;fill: rgb(0.000000%,0.000000%,0.000000%);"></path>
  <g transform="matrix(2.000000,-0.000000,-0.000000,2.000000,165.809647 108.382095)" style="fill: rgb(0.000000%,0.000000%,0.000000%);">
    <use xlink:href="#GLYPHcmmi10_97"></use>
  </g>
  <path d="M284.461624 114.382095L397.847214 114.382095" style="stroke:rgb(0.000000%,0.000000%,0.000000%); stroke-width: 1.992523;stroke-linecap: round;stroke-linejoin: round;stroke-miterlimit: 10.000000;fill: none;"></path>
  <path d="M390.456161 117.443649L397.847214 114.382095L390.456161 111.320541Z" style="stroke:rgb(0.000000%,0.000000%,0.000000%); stroke-width: 1.992523;fill: rgb(0.000000%,0.000000%,0.000000%);"></path>
  <g transform="matrix(2.000000,-0.000000,-0.000000,2.000000,336.878860 108.382095)" style="fill: rgb(0.000000%,0.000000%,0.000000%);">
    <use xlink:href="#GLYPHcmmi10_98"></use>
  </g>
  <path d="M451.545456 127.058304L570.917679 186.744431" style="stroke:rgb(0.000000%,0.000000%,0.000000%); stroke-width: 1.992523;stroke-linecap: round;stroke-linejoin: round;stroke-miterlimit: 10.000000;fill: none;"></path>
  <path d="M562.938553 186.177444L570.917679 186.744431L565.676651 180.701309Z" style="stroke:rgb(0.000000%,0.000000%,0.000000%); stroke-width: 1.992523;fill: rgb(0.000000%,0.000000%,0.000000%);"></path>
  <g transform="matrix(2.000000,-0.000000,-0.000000,2.000000,505.965500 150.901382)" style="fill: rgb(0.000000%,0.000000%,0.000000%);">
    <use xlink:href="#GLYPHcmmi10_97"></use>
  </g>
  <path d="M617.315475 218.412094C630.639297 226.965439,652.964645 220.635239,652.964645 199.421463C652.964645 178.207687,630.639297 171.877487,617.315475 180.430832" style="stroke:rgb(0.000000%,0.000000%,0.000000%); stroke-width: 1.992523;stroke-linecap: round;stroke-linejoin: round;stroke-miterlimit: 10.000000;fill: none;"></path>
  <path d="M622.969864 174.771622C620.777054 176.323807,618.845444 178.229568,617.315475 180.430832C619.953842 179.956192,622.667313 179.974503,625.315384 180.427567Z" style="stroke:rgb(0.000000%,0.000000%,0.000000%); stroke-width: 1.992523;fill: rgb(0.000000%,0.000000%,0.000000%);"></path>
  <g transform="matrix(2.000000,-0.000000,-0.000000,2.000000,658.964645 203.710983)" style="fill: rgb(0.000000%,0.000000%,0.000000%);">
    <use xlink:href="#GLYPHcmmi10_97"></use>
  </g>
  <path d="M617.315475 48.333359C630.639297 56.886703,652.964645 50.556503,652.964645 29.342728C652.964645 8.128952,630.639297 1.798752,617.315475 10.352097" style="stroke:rgb(0.000000%,0.000000%,0.000000%); stroke-width: 1.992523;stroke-linecap: round;stroke-linejoin: round;stroke-miterlimit: 10.000000;fill: none;"></path>
  <path d="M622.969864 4.692886C620.777054 6.245071,618.845444 8.150833,617.315475 10.352097C619.953842 9.877457,622.667313 9.895767,625.315384 10.348831Z" style="stroke:rgb(0.000000%,0.000000%,0.000000%); stroke-width: 1.992523;fill: rgb(0.000000%,0.000000%,0.000000%);"></path>
  <g transform="matrix(2.000000,-0.000000,-0.000000,2.000000,658.964645 33.632248)" style="fill: rgb(0.000000%,0.000000%,0.000000%);">
    <use xlink:href="#GLYPHcmmi10_97"></use>
  </g>
  <path d="M584.190689 173.779556C569.917221 135.492020,569.917221 93.272293,584.190628 54.984726" style="stroke:rgb(0.000000%,0.000000%,0.000000%); stroke-width: 1.992523;stroke-linecap: round;stroke-linejoin: round;stroke-miterlimit: 10.000000;fill: none;"></path>
  <path d="M584.665817 62.970932C584.445145 60.318069,584.286484 57.655319,584.190628 54.984726C582.369980 56.940842,580.599319 58.935867,578.879440 60.967758Z" style="stroke:rgb(0.000000%,0.000000%,0.000000%); stroke-width: 1.992523;fill: rgb(0.000000%,0.000000%,0.000000%);"></path>
  <g transform="matrix(2.000000,-0.000000,-0.000000,2.000000,558.934372 121.300644)" style="fill: rgb(0.000000%,0.000000%,0.000000%);">
    <use xlink:href="#GLYPHcmmi10_98"></use>
  </g>
  <path d="M608.352798 54.984634C622.626266 93.272171,622.626266 135.491898,608.352859 173.779465" style="stroke:rgb(0.000000%,0.000000%,0.000000%); stroke-width: 1.992523;stroke-linecap: round;stroke-linejoin: round;stroke-miterlimit: 10.000000;fill: none;"></path>
  <path d="M607.877670 165.793259C608.098343 168.446121,608.257004 171.108871,608.352859 173.779465C610.173508 171.823349,611.944168 169.828323,613.664047 167.796432Z" style="stroke:rgb(0.000000%,0.000000%,0.000000%); stroke-width: 1.992523;fill: rgb(0.000000%,0.000000%,0.000000%);"></path>
  <g transform="matrix(2.000000,-0.000000,-0.000000,2.000000,625.057907 121.300583)" style="fill: rgb(0.000000%,0.000000%,0.000000%);">
    <use xlink:href="#GLYPHcmmi10_98"></use>
  </g>
  <path d="M0.996262 114.382095L57.689621 114.382095" style="stroke:rgb(0.000000%,0.000000%,0.000000%); stroke-width: 1.992523;stroke-linecap: round;stroke-linejoin: round;stroke-miterlimit: 10.000000;fill: none;"></path>
  <path d="M50.298477 117.443680L57.689621 114.382095L50.298477 111.320511Z" style="stroke:rgb(0.000000%,0.000000%,0.000000%); stroke-width: 1.992523;fill: rgb(0.000000%,0.000000%,0.000000%);"></path>
  <path d="M618.948990 29.342728C618.948990 23.328079,616.559311 17.560501,612.306656 13.307816C608.053970 9.055161,602.286392 6.665482,596.271744 6.665482C590.257095 6.665482,584.489517 9.055161,580.236832 13.307816C575.984177 17.560501,573.594498 23.328079,573.594498 29.342728C573.594498 35.357376,575.984177 41.124954,580.236832 45.377640C584.489517 49.630295,590.257095 52.019974,596.271744 52.019974C602.286392 52.019974,608.053970 49.630295,612.306656 45.377640C616.559311 41.124954,618.948990 35.357376,618.948990 29.342728Z" style="stroke:rgb(0.000000%,0.000000%,0.000000%); stroke-width: 1.992523;stroke-linecap: round;stroke-linejoin: round;stroke-miterlimit: 10.000000;fill: none;"></path>
</svg>
