<?xml version="1.0"?>
<!-- Created by MetaPost 2.10 on 2025.03.12:1018 -->
<svg version="1.1" xmlns="http://www.w3.org/2000/svg" xmlns:xlink="http://www.w3.org/1999/xlink" width="455.535767" height="165.159119" viewBox="0 0 455.535767 165.159119">
<!-- Original BoundingBox: -86.035629 -71.271912 369.500137 93.887207 -->
  <defs>
    <g transform="scale(0.009963,0.009963)" id="GLYPHcmmi10_97">
      <path style="fill-rule: evenodd;" d="M373.000000 -378.000000C355.000000 -415.000000,326.000000 -442.000000,281.000000 -442.000000C164.000000 -442.000000,40.000000 -295.000000,40.000000 -149.000000C40.000000 -55.000000,95.000000 11.000000,173.000000 11.000000C193.000000 11.000000,243.000000 7.000000,303.000000 -64.000000C311.000000 -22.000000,346.000000 11.000000,394.000000 11.000000C429.000000 11.000000,452.000000 -12.000000,468.000000 -44.000000C485.000000 -80.000000,498.000000 -141.000000,498.000000 -143.000000C498.000000 -153.000000,489.000000 -153.000000,486.000000 -153.000000C476.000000 -153.000000,475.000000 -149.000000,472.000000 -135.000000C455.000000 -70.000000,437.000000 -11.000000,396.000000 -11.000000C369.000000 -11.000000,366.000000 -37.000000,366.000000 -57.000000C366.000000 -79.000000,368.000000 -87.000000,379.000000 -131.000000C390.000000 -173.000000,392.000000 -183.000000,401.000000 -221.000000L437.000000 -361.000000C444.000000 -389.000000,444.000000 -391.000000,444.000000 -395.000000C444.000000 -412.000000,432.000000 -422.000000,415.000000 -422.000000C391.000000 -422.000000,376.000000 -400.000000,373.000000 -378.000000M308.000000 -119.000000C303.000000 -101.000000,303.000000 -99.000000,288.000000 -82.000000C244.000000 -27.000000,203.000000 -11.000000,175.000000 -11.000000C125.000000 -11.000000,111.000000 -66.000000,111.000000 -105.000000C111.000000 -155.000000,143.000000 -278.000000,166.000000 -324.000000C197.000000 -383.000000,242.000000 -420.000000,282.000000 -420.000000C347.000000 -420.000000,361.000000 -338.000000,361.000000 -332.000000C361.000000 -326.000000,359.000000 -320.000000,358.000000 -315.000000"></path>
    </g>
    <g transform="scale(0.009963,0.009963)" id="GLYPHcmmi10_98">
      <path style="fill-rule: evenodd;" d="M239.000000 -683.000000C239.000000 -684.000000,239.000000 -694.000000,226.000000 -694.000000C203.000000 -694.000000,130.000000 -686.000000,104.000000 -684.000000C96.000000 -683.000000,85.000000 -682.000000,85.000000 -664.000000C85.000000 -652.000000,94.000000 -652.000000,109.000000 -652.000000C157.000000 -652.000000,159.000000 -645.000000,159.000000 -635.000000C159.000000 -628.000000,150.000000 -594.000000,145.000000 -573.000000L63.000000 -247.000000C51.000000 -197.000000,47.000000 -181.000000,47.000000 -146.000000C47.000000 -51.000000,100.000000 11.000000,174.000000 11.000000C292.000000 11.000000,415.000000 -138.000000,415.000000 -282.000000C415.000000 -373.000000,362.000000 -442.000000,282.000000 -442.000000C236.000000 -442.000000,195.000000 -413.000000,165.000000 -382.000000M145.000000 -305.000000C151.000000 -327.000000,151.000000 -329.000000,160.000000 -340.000000C209.000000 -405.000000,254.000000 -420.000000,280.000000 -420.000000C316.000000 -420.000000,343.000000 -390.000000,343.000000 -326.000000C343.000000 -267.000000,310.000000 -152.000000,292.000000 -114.000000C259.000000 -47.000000,213.000000 -11.000000,174.000000 -11.000000C140.000000 -11.000000,107.000000 -38.000000,107.000000 -112.000000C107.000000 -131.000000,107.000000 -150.000000,123.000000 -213.000000"></path>
    </g>
    <g transform="scale(0.009963,0.009963)" id="GLYPHcmmi10_113">
      <path style="fill-rule: evenodd;" d="M452.000000 -431.000000C452.000000 -435.000000,449.000000 -441.000000,442.000000 -441.000000C431.000000 -441.000000,391.000000 -401.000000,374.000000 -372.000000C352.000000 -426.000000,313.000000 -442.000000,281.000000 -442.000000C163.000000 -442.000000,40.000000 -294.000000,40.000000 -149.000000C40.000000 -51.000000,99.000000 11.000000,172.000000 11.000000C215.000000 11.000000,254.000000 -13.000000,290.000000 -49.000000C281.000000 -14.000000,248.000000 121.000000,245.000000 130.000000C237.000000 158.000000,229.000000 162.000000,173.000000 163.000000C160.000000 163.000000,150.000000 163.000000,150.000000 183.000000C150.000000 184.000000,150.000000 194.000000,163.000000 194.000000C195.000000 194.000000,230.000000 191.000000,263.000000 191.000000C297.000000 191.000000,333.000000 194.000000,366.000000 194.000000C371.000000 194.000000,384.000000 194.000000,384.000000 174.000000C384.000000 163.000000,374.000000 163.000000,358.000000 163.000000C310.000000 163.000000,310.000000 156.000000,310.000000 147.000000C310.000000 140.000000,312.000000 134.000000,314.000000 125.000000M175.000000 -11.000000C115.000000 -11.000000,111.000000 -88.000000,111.000000 -105.000000C111.000000 -153.000000,140.000000 -262.000000,157.000000 -304.000000C188.000000 -378.000000,240.000000 -420.000000,281.000000 -420.000000C346.000000 -420.000000,360.000000 -339.000000,360.000000 -332.000000C360.000000 -326.000000,305.000000 -107.000000,302.000000 -103.000000C287.000000 -75.000000,231.000000 -11.000000,175.000000 -11.000000"></path>
    </g>
    <g transform="scale(0.006974,0.006974)" id="GLYPHcmr7_48">
      <path style="fill-rule: evenodd;" d="M516.000000 -319.000000C516.000000 -429.000000,503.000000 -508.000000,457.000000 -578.000000C426.000000 -624.000000,364.000000 -664.000000,284.000000 -664.000000C52.000000 -664.000000,52.000000 -391.000000,52.000000 -319.000000C52.000000 -247.000000,52.000000 20.000000,284.000000 20.000000C516.000000 20.000000,516.000000 -247.000000,516.000000 -319.000000M284.000000 -8.000000C238.000000 -8.000000,177.000000 -35.000000,157.000000 -117.000000C143.000000 -176.000000,143.000000 -258.000000,143.000000 -332.000000C143.000000 -405.000000,143.000000 -481.000000,158.000000 -536.000000C179.000000 -615.000000,243.000000 -636.000000,284.000000 -636.000000C338.000000 -636.000000,390.000000 -603.000000,408.000000 -545.000000C424.000000 -491.000000,425.000000 -419.000000,425.000000 -332.000000C425.000000 -258.000000,425.000000 -184.000000,412.000000 -121.000000C392.000000 -30.000000,324.000000 -8.000000,284.000000 -8.000000"></path>
    </g>
    <g transform="scale(0.006974,0.006974)" id="GLYPHcmr7_49">
      <path style="fill-rule: evenodd;" d="M335.000000 -636.000000C335.000000 -663.000000,333.000000 -664.000000,305.000000 -664.000000C241.000000 -601.000000,150.000000 -600.000000,109.000000 -600.000000L109.000000 -564.000000C133.000000 -564.000000,199.000000 -564.000000,254.000000 -592.000000L254.000000 -82.000000C254.000000 -49.000000,254.000000 -36.000000,154.000000 -36.000000L116.000000 -36.000000L116.000000 -0.000000C134.000000 -1.000000,257.000000 -4.000000,294.000000 -4.000000C325.000000 -4.000000,451.000000 -1.000000,473.000000 -0.000000L473.000000 -36.000000L435.000000 -36.000000C335.000000 -36.000000,335.000000 -49.000000,335.000000 -82.000000"></path>
    </g>
    <g transform="scale(0.006974,0.006974)" id="GLYPHcmr7_50">
      <path style="fill-rule: evenodd;" d="M505.000000 -182.000000L471.000000 -182.000000C468.000000 -160.000000,458.000000 -101.000000,445.000000 -91.000000C437.000000 -85.000000,360.000000 -85.000000,346.000000 -85.000000L162.000000 -85.000000C267.000000 -178.000000,302.000000 -206.000000,362.000000 -253.000000C436.000000 -312.000000,505.000000 -374.000000,505.000000 -469.000000C505.000000 -590.000000,399.000000 -664.000000,271.000000 -664.000000C147.000000 -664.000000,63.000000 -577.000000,63.000000 -485.000000C63.000000 -434.000000,106.000000 -429.000000,116.000000 -429.000000C140.000000 -429.000000,169.000000 -446.000000,169.000000 -482.000000C169.000000 -500.000000,162.000000 -535.000000,110.000000 -535.000000C141.000000 -606.000000,209.000000 -628.000000,256.000000 -628.000000C356.000000 -628.000000,408.000000 -550.000000,408.000000 -469.000000C408.000000 -382.000000,346.000000 -313.000000,314.000000 -277.000000L73.000000 -39.000000C63.000000 -30.000000,63.000000 -28.000000,63.000000 -0.000000L475.000000 -0.000000"></path>
    </g>
  </defs>
  <path d="M114.382095 93.887207C114.382095 86.368927,111.395004 79.159485,106.079178 73.843658C100.763351 68.527832,93.553909 65.540741,86.035629 65.540741C78.517349 65.540741,71.307907 68.527832,65.992081 73.843658C60.676254 79.159485,57.689163 86.368927,57.689163 93.887207C57.689163 101.405487,60.676254 108.614929,65.992081 113.930756C71.307907 119.246582,78.517349 122.233673,86.035629 122.233673C93.553909 122.233673,100.763351 119.246582,106.079178 113.930756C111.395004 108.614929,114.382095 101.405487,114.382095 93.887207Z" style="stroke:rgb(0.000000%,0.000000%,0.000000%); stroke-width: 1.992523;stroke-linecap: round;stroke-linejoin: round;stroke-miterlimit: 10.000000;fill: none;"></path>
  <path d="M284.460800 93.887207C284.460800 86.368927,281.473709 79.159485,276.157883 73.843658C270.842056 68.527832,263.632614 65.540741,256.114334 65.540741C248.596054 65.540741,241.386612 68.527832,236.070786 73.843658C230.754959 79.159485,227.767868 86.368927,227.767868 93.887207C227.767868 101.405487,230.754959 108.614929,236.070786 113.930756C241.386612 119.246582,248.596054 122.233673,256.114334 122.233673C263.632614 122.233673,270.842056 119.246582,276.157883 113.930756C281.473709 108.614929,284.460800 101.405487,284.460800 93.887207Z" style="stroke:rgb(0.000000%,0.000000%,0.000000%); stroke-width: 1.992523;stroke-linecap: round;stroke-linejoin: round;stroke-miterlimit: 10.000000;fill: none;"></path>
  <path d="M454.539505 93.887207C454.539505 86.368927,451.552414 79.159485,446.236588 73.843658C440.920761 68.527832,433.711319 65.540741,426.193039 65.540741C418.674759 65.540741,411.465317 68.527832,406.149490 73.843658C400.833664 79.159485,397.846573 86.368927,397.846573 93.887207C397.846573 101.405487,400.833664 108.614929,406.149490 113.930756C411.465317 119.246582,418.674759 122.233673,426.193039 122.233673C433.711319 122.233673,440.920761 119.246582,446.236588 113.930756C451.552414 108.614929,454.539505 101.405487,454.539505 93.887207Z" style="stroke:rgb(0.000000%,0.000000%,0.000000%); stroke-width: 1.992523;stroke-linecap: round;stroke-linejoin: round;stroke-miterlimit: 10.000000;fill: none;"></path>
  <path d="M67.044998 114.930939C58.491653 128.254761,64.821854 150.580109,86.035629 150.580109C107.249405 150.580109,113.579605 128.254761,105.026260 114.930939" style="stroke:rgb(0.000000%,0.000000%,0.000000%); stroke-width: 1.992523;stroke-linecap: round;stroke-linejoin: round;stroke-miterlimit: 10.000000;fill: none;"></path>
  <path d="M110.685471 120.585327C109.133286 118.392517,107.227524 116.460907,105.026260 114.930939C105.500900 117.569305,105.482590 120.282776,105.029526 122.930847Z" style="stroke:rgb(0.000000%,0.000000%,0.000000%); stroke-width: 1.992523;fill: rgb(0.000000%,0.000000%,0.000000%);"></path>
  <path d="M110.699448 79.915802C149.081467 62.794006,193.067459 62.793884,231.449570 79.915405" style="stroke:rgb(0.000000%,0.000000%,0.000000%); stroke-width: 1.992523;stroke-linecap: round;stroke-linejoin: round;stroke-miterlimit: 10.000000;fill: none;"></path>
  <path d="M223.449295 79.916870C226.108719 79.844360,228.776352 79.843567,231.449570 79.915405C229.610153 77.974304,227.723282 76.088562,225.791580 74.259277Z" style="stroke:rgb(0.000000%,0.000000%,0.000000%); stroke-width: 1.992523;fill: rgb(0.000000%,0.000000%,0.000000%);"></path>
  <path d="M284.461624 93.887207L397.847214 93.887207" style="stroke:rgb(0.000000%,0.000000%,0.000000%); stroke-width: 1.992523;stroke-linecap: round;stroke-linejoin: round;stroke-miterlimit: 10.000000;fill: none;"></path>
  <path d="M390.456161 96.948761L397.847214 93.887207L390.456161 90.825653Z" style="stroke:rgb(0.000000%,0.000000%,0.000000%); stroke-width: 1.992523;fill: rgb(0.000000%,0.000000%,0.000000%);"></path>
  <path d="M231.450516 107.858612C193.068497 124.980408,149.082504 124.980530,110.700394 107.859009" style="stroke:rgb(0.000000%,0.000000%,0.000000%); stroke-width: 1.992523;stroke-linecap: round;stroke-linejoin: round;stroke-miterlimit: 10.000000;fill: none;"></path>
  <path d="M118.700668 107.857544C116.041245 107.930054,113.373611 107.930847,110.700394 107.859009C112.539810 109.800110,114.426682 111.685852,116.358383 113.515137Z" style="stroke:rgb(0.000000%,0.000000%,0.000000%); stroke-width: 1.992523;fill: rgb(0.000000%,0.000000%,0.000000%);"></path>
  <path d="M406.651291 73.354126C322.022781 -5.012482,190.206711 -5.012665,105.577957 73.353577" style="stroke:rgb(0.000000%,0.000000%,0.000000%); stroke-width: 1.992523;stroke-linecap: round;stroke-linejoin: round;stroke-miterlimit: 10.000000;fill: none;"></path>
  <path d="M109.051468 66.145966C107.854721 68.518921,106.696518 70.921600,105.577957 73.353577C108.088608 72.424896,110.606552 71.544983,113.130692 70.713287Z" style="stroke:rgb(0.000000%,0.000000%,0.000000%); stroke-width: 1.992523;fill: rgb(0.000000%,0.000000%,0.000000%);"></path>
  <g transform="matrix(2.000000,-0.000000,-0.000000,2.000000,77.118820 96.239532)" style="fill: rgb(0.000000%,0.000000%,0.000000%);">
    <use xlink:href="#GLYPHcmmi10_113"></use>
  </g>
  <g transform="matrix(2.000000,-0.000000,-0.000000,2.000000,86.013626 99.228333)" style="fill: rgb(0.000000%,0.000000%,0.000000%);">
    <use xlink:href="#GLYPHcmr7_48"></use>
  </g>
  <g transform="matrix(2.000000,-0.000000,-0.000000,2.000000,247.197525 96.239532)" style="fill: rgb(0.000000%,0.000000%,0.000000%);">
    <use xlink:href="#GLYPHcmmi10_113"></use>
  </g>
  <g transform="matrix(2.000000,-0.000000,-0.000000,2.000000,256.092331 99.228333)" style="fill: rgb(0.000000%,0.000000%,0.000000%);">
    <use xlink:href="#GLYPHcmr7_49"></use>
  </g>
  <g transform="matrix(2.000000,-0.000000,-0.000000,2.000000,417.276230 96.239532)" style="fill: rgb(0.000000%,0.000000%,0.000000%);">
    <use xlink:href="#GLYPHcmmi10_113"></use>
  </g>
  <g transform="matrix(2.000000,-0.000000,-0.000000,2.000000,426.171036 99.228333)" style="fill: rgb(0.000000%,0.000000%,0.000000%);">
    <use xlink:href="#GLYPHcmr7_50"></use>
  </g>
  <g transform="matrix(2.000000,-0.000000,-0.000000,2.000000,80.769516 165.159119)" style="fill: rgb(0.000000%,0.000000%,0.000000%);">
    <use xlink:href="#GLYPHcmmi10_97"></use>
  </g>
  <g transform="matrix(2.000000,-0.000000,-0.000000,2.000000,166.798904 61.074341)" style="fill: rgb(0.000000%,0.000000%,0.000000%);">
    <use xlink:href="#GLYPHcmmi10_98"></use>
  </g>
  <g transform="matrix(2.000000,-0.000000,-0.000000,2.000000,165.809341 135.279083)" style="fill: rgb(0.000000%,0.000000%,0.000000%);">
    <use xlink:href="#GLYPHcmmi10_97"></use>
  </g>
  <g transform="matrix(2.000000,-0.000000,-0.000000,2.000000,336.878860 87.887207)" style="fill: rgb(0.000000%,0.000000%,0.000000%);">
    <use xlink:href="#GLYPHcmmi10_98"></use>
  </g>
  <g transform="matrix(2.000000,-0.000000,-0.000000,2.000000,250.848587 8.579010)" style="fill: rgb(0.000000%,0.000000%,0.000000%);">
    <use xlink:href="#GLYPHcmmi10_97"></use>
  </g>
  <path d="M0.996262 93.887207L57.689621 93.887207" style="stroke:rgb(0.000000%,0.000000%,0.000000%); stroke-width: 1.992523;stroke-linecap: round;stroke-linejoin: round;stroke-miterlimit: 10.000000;fill: none;"></path>
  <path d="M50.298477 96.948792L57.689621 93.887207L50.298477 90.825623Z" style="stroke:rgb(0.000000%,0.000000%,0.000000%); stroke-width: 1.992523;fill: rgb(0.000000%,0.000000%,0.000000%);"></path>
  <path d="M278.791580 93.887207C278.791580 87.872559,276.401901 82.104980,272.149246 77.852295C267.896561 73.599640,262.128983 71.209961,256.114334 71.209961C250.099686 71.209961,244.332108 73.599640,240.079422 77.852295C235.826767 82.104980,233.437088 87.872559,233.437088 93.887207C233.437088 99.901855,235.826767 105.669434,240.079422 109.922119C244.332108 114.174774,250.099686 116.564453,256.114334 116.564453C262.128983 116.564453,267.896561 114.174774,272.149246 109.922119C276.401901 105.669434,278.791580 99.901855,278.791580 93.887207Z" style="stroke:rgb(0.000000%,0.000000%,0.000000%); stroke-width: 1.992523;stroke-linecap: round;stroke-linejoin: round;stroke-miterlimit: 10.000000;fill: none;"></path>
  <path d="M448.870285 93.887207C448.870285 87.872559,446.480606 82.104980,442.227951 77.852295C437.975266 73.599640,432.207687 71.209961,426.193039 71.209961C420.178391 71.209961,414.410812 73.599640,410.158127 77.852295C405.905472 82.104980,403.515793 87.872559,403.515793 93.887207C403.515793 99.901855,405.905472 105.669434,410.158127 109.922119C414.410812 114.174774,420.178391 116.564453,426.193039 116.564453C432.207687 116.564453,437.975266 114.174774,442.227951 109.922119C446.480606 105.669434,448.870285 99.901855,448.870285 93.887207Z" style="stroke:rgb(0.000000%,0.000000%,0.000000%); stroke-width: 1.992523;stroke-linecap: round;stroke-linejoin: round;stroke-miterlimit: 10.000000;fill: none;"></path>
</svg>
