<?xml version="1.0"?>
<!-- Created by MetaPost 2.10 on 2025.03.06:1916 -->
<svg version="1.1" xmlns="http://www.w3.org/2000/svg" xmlns:xlink="http://www.w3.org/1999/xlink" width="285.457062" height="122.061096" viewBox="0 0 285.457062 122.061096">
<!-- Original BoundingBox: -86.035629 -45.531189 199.421432 76.529907 -->
  <defs>
    <g transform="scale(0.009963,0.009963)" id="GLYPHcmmi10_97">
      <path style="fill-rule: evenodd;" d="M373.000000 -378.000000C355.000000 -415.000000,326.000000 -442.000000,281.000000 -442.000000C164.000000 -442.000000,40.000000 -295.000000,40.000000 -149.000000C40.000000 -55.000000,95.000000 11.000000,173.000000 11.000000C193.000000 11.000000,243.000000 7.000000,303.000000 -64.000000C311.000000 -22.000000,346.000000 11.000000,394.000000 11.000000C429.000000 11.000000,452.000000 -12.000000,468.000000 -44.000000C485.000000 -80.000000,498.000000 -141.000000,498.000000 -143.000000C498.000000 -153.000000,489.000000 -153.000000,486.000000 -153.000000C476.000000 -153.000000,475.000000 -149.000000,472.000000 -135.000000C455.000000 -70.000000,437.000000 -11.000000,396.000000 -11.000000C369.000000 -11.000000,366.000000 -37.000000,366.000000 -57.000000C366.000000 -79.000000,368.000000 -87.000000,379.000000 -131.000000C390.000000 -173.000000,392.000000 -183.000000,401.000000 -221.000000L437.000000 -361.000000C444.000000 -389.000000,444.000000 -391.000000,444.000000 -395.000000C444.000000 -412.000000,432.000000 -422.000000,415.000000 -422.000000C391.000000 -422.000000,376.000000 -400.000000,373.000000 -378.000000M308.000000 -119.000000C303.000000 -101.000000,303.000000 -99.000000,288.000000 -82.000000C244.000000 -27.000000,203.000000 -11.000000,175.000000 -11.000000C125.000000 -11.000000,111.000000 -66.000000,111.000000 -105.000000C111.000000 -155.000000,143.000000 -278.000000,166.000000 -324.000000C197.000000 -383.000000,242.000000 -420.000000,282.000000 -420.000000C347.000000 -420.000000,361.000000 -338.000000,361.000000 -332.000000C361.000000 -326.000000,359.000000 -320.000000,358.000000 -315.000000"></path>
    </g>
    <g transform="scale(0.009963,0.009963)" id="GLYPHcmmi10_98">
      <path style="fill-rule: evenodd;" d="M239.000000 -683.000000C239.000000 -684.000000,239.000000 -694.000000,226.000000 -694.000000C203.000000 -694.000000,130.000000 -686.000000,104.000000 -684.000000C96.000000 -683.000000,85.000000 -682.000000,85.000000 -664.000000C85.000000 -652.000000,94.000000 -652.000000,109.000000 -652.000000C157.000000 -652.000000,159.000000 -645.000000,159.000000 -635.000000C159.000000 -628.000000,150.000000 -594.000000,145.000000 -573.000000L63.000000 -247.000000C51.000000 -197.000000,47.000000 -181.000000,47.000000 -146.000000C47.000000 -51.000000,100.000000 11.000000,174.000000 11.000000C292.000000 11.000000,415.000000 -138.000000,415.000000 -282.000000C415.000000 -373.000000,362.000000 -442.000000,282.000000 -442.000000C236.000000 -442.000000,195.000000 -413.000000,165.000000 -382.000000M145.000000 -305.000000C151.000000 -327.000000,151.000000 -329.000000,160.000000 -340.000000C209.000000 -405.000000,254.000000 -420.000000,280.000000 -420.000000C316.000000 -420.000000,343.000000 -390.000000,343.000000 -326.000000C343.000000 -267.000000,310.000000 -152.000000,292.000000 -114.000000C259.000000 -47.000000,213.000000 -11.000000,174.000000 -11.000000C140.000000 -11.000000,107.000000 -38.000000,107.000000 -112.000000C107.000000 -131.000000,107.000000 -150.000000,123.000000 -213.000000"></path>
    </g>
    <g transform="scale(0.009963,0.009963)" id="GLYPHcmmi10_113">
      <path style="fill-rule: evenodd;" d="M452.000000 -431.000000C452.000000 -435.000000,449.000000 -441.000000,442.000000 -441.000000C431.000000 -441.000000,391.000000 -401.000000,374.000000 -372.000000C352.000000 -426.000000,313.000000 -442.000000,281.000000 -442.000000C163.000000 -442.000000,40.000000 -294.000000,40.000000 -149.000000C40.000000 -51.000000,99.000000 11.000000,172.000000 11.000000C215.000000 11.000000,254.000000 -13.000000,290.000000 -49.000000C281.000000 -14.000000,248.000000 121.000000,245.000000 130.000000C237.000000 158.000000,229.000000 162.000000,173.000000 163.000000C160.000000 163.000000,150.000000 163.000000,150.000000 183.000000C150.000000 184.000000,150.000000 194.000000,163.000000 194.000000C195.000000 194.000000,230.000000 191.000000,263.000000 191.000000C297.000000 191.000000,333.000000 194.000000,366.000000 194.000000C371.000000 194.000000,384.000000 194.000000,384.000000 174.000000C384.000000 163.000000,374.000000 163.000000,358.000000 163.000000C310.000000 163.000000,310.000000 156.000000,310.000000 147.000000C310.000000 140.000000,312.000000 134.000000,314.000000 125.000000M175.000000 -11.000000C115.000000 -11.000000,111.000000 -88.000000,111.000000 -105.000000C111.000000 -153.000000,140.000000 -262.000000,157.000000 -304.000000C188.000000 -378.000000,240.000000 -420.000000,281.000000 -420.000000C346.000000 -420.000000,360.000000 -339.000000,360.000000 -332.000000C360.000000 -326.000000,305.000000 -107.000000,302.000000 -103.000000C287.000000 -75.000000,231.000000 -11.000000,175.000000 -11.000000"></path>
    </g>
    <g transform="scale(0.006974,0.006974)" id="GLYPHcmr7_48">
      <path style="fill-rule: evenodd;" d="M516.000000 -319.000000C516.000000 -429.000000,503.000000 -508.000000,457.000000 -578.000000C426.000000 -624.000000,364.000000 -664.000000,284.000000 -664.000000C52.000000 -664.000000,52.000000 -391.000000,52.000000 -319.000000C52.000000 -247.000000,52.000000 20.000000,284.000000 20.000000C516.000000 20.000000,516.000000 -247.000000,516.000000 -319.000000M284.000000 -8.000000C238.000000 -8.000000,177.000000 -35.000000,157.000000 -117.000000C143.000000 -176.000000,143.000000 -258.000000,143.000000 -332.000000C143.000000 -405.000000,143.000000 -481.000000,158.000000 -536.000000C179.000000 -615.000000,243.000000 -636.000000,284.000000 -636.000000C338.000000 -636.000000,390.000000 -603.000000,408.000000 -545.000000C424.000000 -491.000000,425.000000 -419.000000,425.000000 -332.000000C425.000000 -258.000000,425.000000 -184.000000,412.000000 -121.000000C392.000000 -30.000000,324.000000 -8.000000,284.000000 -8.000000"></path>
    </g>
    <g transform="scale(0.006974,0.006974)" id="GLYPHcmr7_49">
      <path style="fill-rule: evenodd;" d="M335.000000 -636.000000C335.000000 -663.000000,333.000000 -664.000000,305.000000 -664.000000C241.000000 -601.000000,150.000000 -600.000000,109.000000 -600.000000L109.000000 -564.000000C133.000000 -564.000000,199.000000 -564.000000,254.000000 -592.000000L254.000000 -82.000000C254.000000 -49.000000,254.000000 -36.000000,154.000000 -36.000000L116.000000 -36.000000L116.000000 -0.000000C134.000000 -1.000000,257.000000 -4.000000,294.000000 -4.000000C325.000000 -4.000000,451.000000 -1.000000,473.000000 -0.000000L473.000000 -36.000000L435.000000 -36.000000C335.000000 -36.000000,335.000000 -49.000000,335.000000 -82.000000"></path>
    </g>
  </defs>
  <path d="M114.382095 76.529907C114.382095 69.011627,111.395004 61.802185,106.079178 56.486359C100.763351 51.170532,93.553909 48.183441,86.035629 48.183441C78.517349 48.183441,71.307907 51.170532,65.992081 56.486359C60.676254 61.802185,57.689163 69.011627,57.689163 76.529907C57.689163 84.048187,60.676254 91.257629,65.992081 96.573456C71.307907 101.889282,78.517349 104.876373,86.035629 104.876373C93.553909 104.876373,100.763351 101.889282,106.079178 96.573456C111.395004 91.257629,114.382095 84.048187,114.382095 76.529907Z" style="stroke:rgb(0.000000%,0.000000%,0.000000%); stroke-width: 1.992523;stroke-linecap: round;stroke-linejoin: round;stroke-miterlimit: 10.000000;fill: none;"></path>
  <path d="M284.460800 76.529907C284.460800 69.011627,281.473709 61.802185,276.157883 56.486359C270.842056 51.170532,263.632614 48.183441,256.114334 48.183441C248.596054 48.183441,241.386612 51.170532,236.070786 56.486359C230.754959 61.802185,227.767868 69.011627,227.767868 76.529907C227.767868 84.048187,230.754959 91.257629,236.070786 96.573456C241.386612 101.889282,248.596054 104.876373,256.114334 104.876373C263.632614 104.876373,270.842056 101.889282,276.157883 96.573456C281.473709 91.257629,284.460800 84.048187,284.460800 76.529907Z" style="stroke:rgb(0.000000%,0.000000%,0.000000%); stroke-width: 1.992523;stroke-linecap: round;stroke-linejoin: round;stroke-miterlimit: 10.000000;fill: none;"></path>
  <g transform="matrix(2.000000,-0.000000,-0.000000,2.000000,77.118820 78.882233)" style="fill: rgb(0.000000%,0.000000%,0.000000%);">
    <use xlink:href="#GLYPHcmmi10_113"></use>
  </g>
  <g transform="matrix(2.000000,-0.000000,-0.000000,2.000000,86.013626 81.871033)" style="fill: rgb(0.000000%,0.000000%,0.000000%);">
    <use xlink:href="#GLYPHcmr7_48"></use>
  </g>
  <g transform="matrix(2.000000,-0.000000,-0.000000,2.000000,247.197525 78.882233)" style="fill: rgb(0.000000%,0.000000%,0.000000%);">
    <use xlink:href="#GLYPHcmmi10_113"></use>
  </g>
  <g transform="matrix(2.000000,-0.000000,-0.000000,2.000000,256.092331 81.871033)" style="fill: rgb(0.000000%,0.000000%,0.000000%);">
    <use xlink:href="#GLYPHcmr7_49"></use>
  </g>
  <path d="M109.568192 60.727631C148.000595 40.527893,194.148453 40.527771,232.580978 60.727234" style="stroke:rgb(0.000000%,0.000000%,0.000000%); stroke-width: 1.992523;stroke-linecap: round;stroke-linejoin: round;stroke-miterlimit: 10.000000;fill: none;"></path>
  <path d="M224.595078 60.241028C227.252548 60.321869,229.915604 60.483490,232.580978 60.727234C230.868668 58.670135,229.099899 56.672760,227.278000 54.736450Z" style="stroke:rgb(0.000000%,0.000000%,0.000000%); stroke-width: 1.992523;fill: rgb(0.000000%,0.000000%,0.000000%);"></path>
  <g transform="matrix(2.000000,-0.000000,-0.000000,2.000000,165.808456 39.577728)" style="fill: rgb(0.000000%,0.000000%,0.000000%);">
    <use xlink:href="#GLYPHcmmi10_97"></use>
  </g>
  <path d="M105.026260 55.486176C113.579605 42.162354,107.249405 19.837006,86.035629 19.837006C64.821854 19.837006,58.491653 42.162354,67.044998 55.486176" style="stroke:rgb(0.000000%,0.000000%,0.000000%); stroke-width: 1.992523;stroke-linecap: round;stroke-linejoin: round;stroke-miterlimit: 10.000000;fill: none;"></path>
  <path d="M61.385788 49.831787C62.937973 52.024597,64.843735 53.956207,67.044998 55.486176C66.570358 52.847809,66.588669 50.134338,67.041733 47.486267Z" style="stroke:rgb(0.000000%,0.000000%,0.000000%); stroke-width: 1.992523;fill: rgb(0.000000%,0.000000%,0.000000%);"></path>
  <g transform="matrix(2.000000,-0.000000,-0.000000,2.000000,81.760025 13.837006)" style="fill: rgb(0.000000%,0.000000%,0.000000%);">
    <use xlink:href="#GLYPHcmmi10_98"></use>
  </g>
  <path d="M232.581772 92.332184C194.149368 112.531921,148.001511 112.532043,109.568985 92.332581" style="stroke:rgb(0.000000%,0.000000%,0.000000%); stroke-width: 1.992523;stroke-linecap: round;stroke-linejoin: round;stroke-miterlimit: 10.000000;fill: none;"></path>
  <path d="M117.554886 92.818787C114.897415 92.737946,112.234360 92.576324,109.568985 92.332581C111.281296 94.389679,113.050064 96.387054,114.871964 98.323364Z" style="stroke:rgb(0.000000%,0.000000%,0.000000%); stroke-width: 1.992523;fill: rgb(0.000000%,0.000000%,0.000000%);"></path>
  <g transform="matrix(2.000000,-0.000000,-0.000000,2.000000,165.809280 122.061096)" style="fill: rgb(0.000000%,0.000000%,0.000000%);">
    <use xlink:href="#GLYPHcmmi10_97"></use>
  </g>
  <path d="M275.104965 55.486176C283.658310 42.162354,277.328110 19.837006,256.114334 19.837006C234.900558 19.837006,228.570358 42.162354,237.123703 55.486176" style="stroke:rgb(0.000000%,0.000000%,0.000000%); stroke-width: 1.992523;stroke-linecap: round;stroke-linejoin: round;stroke-miterlimit: 10.000000;fill: none;"></path>
  <path d="M231.464493 49.831787C233.016678 52.024597,234.922440 53.956207,237.123703 55.486176C236.649063 52.847809,236.667374 50.134338,237.120438 47.486267Z" style="stroke:rgb(0.000000%,0.000000%,0.000000%); stroke-width: 1.992523;fill: rgb(0.000000%,0.000000%,0.000000%);"></path>
  <g transform="matrix(2.000000,-0.000000,-0.000000,2.000000,251.838730 13.837006)" style="fill: rgb(0.000000%,0.000000%,0.000000%);">
    <use xlink:href="#GLYPHcmmi10_98"></use>
  </g>
  <path d="M0.996262 76.529907L57.689621 76.529907" style="stroke:rgb(0.000000%,0.000000%,0.000000%); stroke-width: 1.992523;stroke-linecap: round;stroke-linejoin: round;stroke-miterlimit: 10.000000;fill: none;"></path>
  <path d="M50.298477 79.591492L57.689621 76.529907L50.298477 73.468323Z" style="stroke:rgb(0.000000%,0.000000%,0.000000%); stroke-width: 1.992523;fill: rgb(0.000000%,0.000000%,0.000000%);"></path>
  <path d="M278.791580 76.529907C278.791580 70.515259,276.401901 64.747681,272.149246 60.494995C267.896561 56.242340,262.128983 53.852661,256.114334 53.852661C250.099686 53.852661,244.332108 56.242340,240.079422 60.494995C235.826767 64.747681,233.437088 70.515259,233.437088 76.529907C233.437088 82.544556,235.826767 88.312134,240.079422 92.564819C244.332108 96.817474,250.099686 99.207153,256.114334 99.207153C262.128983 99.207153,267.896561 96.817474,272.149246 92.564819C276.401901 88.312134,278.791580 82.544556,278.791580 76.529907Z" style="stroke:rgb(0.000000%,0.000000%,0.000000%); stroke-width: 1.992523;stroke-linecap: round;stroke-linejoin: round;stroke-miterlimit: 10.000000;fill: none;"></path>
</svg>
