<?xml version="1.0"?>
<!-- Created by MetaPost 2.02 on 2024.12.29:1246 -->
<svg version="1.1" xmlns="http://www.w3.org/2000/svg" xmlns:xlink="http://www.w3.org/1999/xlink" width="199.421448" height="43.515961" viewBox="0 0 199.421448 43.515961">
<!-- Original BoundingBox: -14.671371 -14.671371 184.750076 28.844589 -->
  <defs>
    <g transform="scale(0.009963,0.009963)" id="GLYPHcmmi10_113">
      <path style="fill-rule: evenodd;" d="M452.000000 -431.000000C452.000000 -435.000000,449.000000 -441.000000,442.000000 -441.000000C431.000000 -441.000000,391.000000 -401.000000,374.000000 -372.000000C352.000000 -426.000000,313.000000 -442.000000,281.000000 -442.000000C163.000000 -442.000000,40.000000 -294.000000,40.000000 -149.000000C40.000000 -51.000000,99.000000 11.000000,172.000000 11.000000C215.000000 11.000000,254.000000 -13.000000,290.000000 -49.000000C281.000000 -14.000000,248.000000 121.000000,245.000000 130.000000C237.000000 158.000000,229.000000 162.000000,173.000000 163.000000C160.000000 163.000000,150.000000 163.000000,150.000000 183.000000C150.000000 184.000000,150.000000 194.000000,163.000000 194.000000C195.000000 194.000000,230.000000 191.000000,263.000000 191.000000C297.000000 191.000000,333.000000 194.000000,366.000000 194.000000C371.000000 194.000000,384.000000 194.000000,384.000000 174.000000C384.000000 163.000000,374.000000 163.000000,358.000000 163.000000C310.000000 163.000000,310.000000 156.000000,310.000000 147.000000C310.000000 140.000000,312.000000 134.000000,314.000000 125.000000M175.000000 -11.000000C115.000000 -11.000000,111.000000 -88.000000,111.000000 -105.000000C111.000000 -153.000000,140.000000 -262.000000,157.000000 -304.000000C188.000000 -378.000000,240.000000 -420.000000,281.000000 -420.000000C346.000000 -420.000000,360.000000 -339.000000,360.000000 -332.000000C360.000000 -326.000000,305.000000 -107.000000,302.000000 -103.000000C287.000000 -75.000000,231.000000 -11.000000,175.000000 -11.000000"></path>
    </g>
    <g transform="scale(0.006974,0.006974)" id="GLYPHcmr7_48">
      <path style="fill-rule: evenodd;" d="M516.000000 -319.000000C516.000000 -429.000000,503.000000 -508.000000,457.000000 -578.000000C426.000000 -624.000000,364.000000 -664.000000,284.000000 -664.000000C52.000000 -664.000000,52.000000 -391.000000,52.000000 -319.000000C52.000000 -247.000000,52.000000 20.000000,284.000000 20.000000C516.000000 20.000000,516.000000 -247.000000,516.000000 -319.000000M284.000000 -8.000000C238.000000 -8.000000,177.000000 -35.000000,157.000000 -117.000000C143.000000 -176.000000,143.000000 -258.000000,143.000000 -332.000000C143.000000 -405.000000,143.000000 -481.000000,158.000000 -536.000000C179.000000 -615.000000,243.000000 -636.000000,284.000000 -636.000000C338.000000 -636.000000,390.000000 -603.000000,408.000000 -545.000000C424.000000 -491.000000,425.000000 -419.000000,425.000000 -332.000000C425.000000 -258.000000,425.000000 -184.000000,412.000000 -121.000000C392.000000 -30.000000,324.000000 -8.000000,284.000000 -8.000000"></path>
    </g>
    <g transform="scale(0.006974,0.006974)" id="GLYPHcmr7_49">
      <path style="fill-rule: evenodd;" d="M335.000000 -636.000000C335.000000 -663.000000,333.000000 -664.000000,305.000000 -664.000000C241.000000 -601.000000,150.000000 -600.000000,109.000000 -600.000000L109.000000 -564.000000C133.000000 -564.000000,199.000000 -564.000000,254.000000 -592.000000L254.000000 -82.000000C254.000000 -49.000000,254.000000 -36.000000,154.000000 -36.000000L116.000000 -36.000000L116.000000 -0.000000C134.000000 -1.000000,257.000000 -4.000000,294.000000 -4.000000C325.000000 -4.000000,451.000000 -1.000000,473.000000 -0.000000L473.000000 -36.000000L435.000000 -36.000000C335.000000 -36.000000,335.000000 -49.000000,335.000000 -82.000000"></path>
    </g>
    <g transform="scale(0.006974,0.006974)" id="GLYPHcmr7_50">
      <path style="fill-rule: evenodd;" d="M505.000000 -182.000000L471.000000 -182.000000C468.000000 -160.000000,458.000000 -101.000000,445.000000 -91.000000C437.000000 -85.000000,360.000000 -85.000000,346.000000 -85.000000L162.000000 -85.000000C267.000000 -178.000000,302.000000 -206.000000,362.000000 -253.000000C436.000000 -312.000000,505.000000 -374.000000,505.000000 -469.000000C505.000000 -590.000000,399.000000 -664.000000,271.000000 -664.000000C147.000000 -664.000000,63.000000 -577.000000,63.000000 -485.000000C63.000000 -434.000000,106.000000 -429.000000,116.000000 -429.000000C140.000000 -429.000000,169.000000 -446.000000,169.000000 -482.000000C169.000000 -500.000000,162.000000 -535.000000,110.000000 -535.000000C141.000000 -606.000000,209.000000 -628.000000,256.000000 -628.000000C356.000000 -628.000000,408.000000 -550.000000,408.000000 -469.000000C408.000000 -382.000000,346.000000 -313.000000,314.000000 -277.000000L73.000000 -39.000000C63.000000 -30.000000,63.000000 -28.000000,63.000000 -0.000000L475.000000 -0.000000"></path>
    </g>
  </defs>
  <path d="M28.844604 28.844589C28.844604 25.085449,27.351059 21.480728,24.693146 18.822815C22.035233 16.164902,18.430511 14.671356,14.671371 14.671356C10.912231 14.671356,7.307510 16.164902,4.649597 18.822815C1.991684 21.480728,0.498138 25.085449,0.498138 28.844589C0.498138 32.603729,1.991684 36.208450,4.649597 38.866364C7.307510 41.524277,10.912231 43.017822,14.671371 43.017822C18.430511 43.017822,22.035233 41.524277,24.693146 38.866364C27.351059 36.208450,28.844604 32.603729,28.844604 28.844589Z" style="stroke:rgb(0.000000%,0.000000%,0.000000%); stroke-width: 0.996262;stroke-linecap: round;stroke-linejoin: round;stroke-miterlimit: 10.000000;fill: none;"></path>
  <path d="M113.883957 28.844589C113.883957 25.085449,112.390411 21.480728,109.732498 18.822815C107.074585 16.164902,103.469864 14.671356,99.710724 14.671356C95.951584 14.671356,92.346863 16.164902,89.688950 18.822815C87.031036 21.480728,85.537491 25.085449,85.537491 28.844589C85.537491 32.603729,87.031036 36.208450,89.688950 38.866364C92.346863 41.524277,95.951584 43.017822,99.710724 43.017822C103.469864 43.017822,107.074585 41.524277,109.732498 38.866364C112.390411 36.208450,113.883957 32.603729,113.883957 28.844589Z" style="stroke:rgb(0.000000%,0.000000%,0.000000%); stroke-width: 0.996262;stroke-linecap: round;stroke-linejoin: round;stroke-miterlimit: 10.000000;fill: none;"></path>
  <path d="M198.923309 28.844589C198.923309 25.085449,197.429764 21.480728,194.771851 18.822815C192.113937 16.164902,188.509216 14.671356,184.750076 14.671356C180.990936 14.671356,177.386215 16.164902,174.728302 18.822815C172.070389 21.480728,170.576843 25.085449,170.576843 28.844589C170.576843 32.603729,172.070389 36.208450,174.728302 38.866364C177.386215 41.524277,180.990936 43.017822,184.750076 43.017822C188.509216 43.017822,192.113937 41.524277,194.771851 38.866364C197.429764 36.208450,198.923309 32.603729,198.923309 28.844589Z" style="stroke:rgb(0.000000%,0.000000%,0.000000%); stroke-width: 0.996262;stroke-linecap: round;stroke-linejoin: round;stroke-miterlimit: 10.000000;fill: none;"></path>
  <path d="M24.166687 18.322723C28.443359 11.660812,25.278259 0.498138,14.671371 0.498138C4.064484 0.498138,0.899384 11.660812,5.176056 18.322723" style="stroke:rgb(0.000000%,0.000000%,0.000000%); stroke-width: 0.996262;stroke-linecap: round;stroke-linejoin: round;stroke-miterlimit: 10.000000;fill: none;"></path>
  <path d="M2.346451 15.495529C3.122543 16.591934,4.075424 17.557739,5.176056 18.322723C4.938736 17.003540,4.947891 15.646805,5.174423 14.322769Z" style="stroke:rgb(0.000000%,0.000000%,0.000000%); stroke-width: 0.996262;fill: rgb(0.000000%,0.000000%,0.000000%);"></path>
  <g transform="translate(10.212967 30.020752)" style="fill: rgb(0.000000%,0.000000%,0.000000%);">
    <use xlink:href="#GLYPHcmmi10_113"></use>
  </g>
  <g transform="translate(14.660370 31.515152)" style="fill: rgb(0.000000%,0.000000%,0.000000%);">
    <use xlink:href="#GLYPHcmr7_48"></use>
  </g>
  <g transform="translate(95.252319 30.020752)" style="fill: rgb(0.000000%,0.000000%,0.000000%);">
    <use xlink:href="#GLYPHcmmi10_113"></use>
  </g>
  <g transform="translate(99.699722 31.515152)" style="fill: rgb(0.000000%,0.000000%,0.000000%);">
    <use xlink:href="#GLYPHcmr7_49"></use>
  </g>
  <g transform="translate(180.291672 30.020752)" style="fill: rgb(0.000000%,0.000000%,0.000000%);">
    <use xlink:href="#GLYPHcmmi10_113"></use>
  </g>
  <g transform="translate(184.739075 31.515152)" style="fill: rgb(0.000000%,0.000000%,0.000000%);">
    <use xlink:href="#GLYPHcmr7_50"></use>
  </g>
</svg>
