<?xml version="1.0"?>
<!-- Created by MetaPost 2.10 on 2025.03.13:1242 -->
<svg version="1.1" xmlns="http://www.w3.org/2000/svg" xmlns:xlink="http://www.w3.org/1999/xlink" width="965.771881" height="282.033447" viewBox="0 0 965.771881 282.033447">
<!-- Original BoundingBox: -86.035629 -143.645721 879.736252 138.387726 -->
  <defs>
    <g transform="scale(0.009963,0.009963)" id="GLYPHcmmi10_97">
      <path style="fill-rule: evenodd;" d="M373.000000 -378.000000C355.000000 -415.000000,326.000000 -442.000000,281.000000 -442.000000C164.000000 -442.000000,40.000000 -295.000000,40.000000 -149.000000C40.000000 -55.000000,95.000000 11.000000,173.000000 11.000000C193.000000 11.000000,243.000000 7.000000,303.000000 -64.000000C311.000000 -22.000000,346.000000 11.000000,394.000000 11.000000C429.000000 11.000000,452.000000 -12.000000,468.000000 -44.000000C485.000000 -80.000000,498.000000 -141.000000,498.000000 -143.000000C498.000000 -153.000000,489.000000 -153.000000,486.000000 -153.000000C476.000000 -153.000000,475.000000 -149.000000,472.000000 -135.000000C455.000000 -70.000000,437.000000 -11.000000,396.000000 -11.000000C369.000000 -11.000000,366.000000 -37.000000,366.000000 -57.000000C366.000000 -79.000000,368.000000 -87.000000,379.000000 -131.000000C390.000000 -173.000000,392.000000 -183.000000,401.000000 -221.000000L437.000000 -361.000000C444.000000 -389.000000,444.000000 -391.000000,444.000000 -395.000000C444.000000 -412.000000,432.000000 -422.000000,415.000000 -422.000000C391.000000 -422.000000,376.000000 -400.000000,373.000000 -378.000000M308.000000 -119.000000C303.000000 -101.000000,303.000000 -99.000000,288.000000 -82.000000C244.000000 -27.000000,203.000000 -11.000000,175.000000 -11.000000C125.000000 -11.000000,111.000000 -66.000000,111.000000 -105.000000C111.000000 -155.000000,143.000000 -278.000000,166.000000 -324.000000C197.000000 -383.000000,242.000000 -420.000000,282.000000 -420.000000C347.000000 -420.000000,361.000000 -338.000000,361.000000 -332.000000C361.000000 -326.000000,359.000000 -320.000000,358.000000 -315.000000"></path>
    </g>
    <g transform="scale(0.009963,0.009963)" id="GLYPHcmmi10_98">
      <path style="fill-rule: evenodd;" d="M239.000000 -683.000000C239.000000 -684.000000,239.000000 -694.000000,226.000000 -694.000000C203.000000 -694.000000,130.000000 -686.000000,104.000000 -684.000000C96.000000 -683.000000,85.000000 -682.000000,85.000000 -664.000000C85.000000 -652.000000,94.000000 -652.000000,109.000000 -652.000000C157.000000 -652.000000,159.000000 -645.000000,159.000000 -635.000000C159.000000 -628.000000,150.000000 -594.000000,145.000000 -573.000000L63.000000 -247.000000C51.000000 -197.000000,47.000000 -181.000000,47.000000 -146.000000C47.000000 -51.000000,100.000000 11.000000,174.000000 11.000000C292.000000 11.000000,415.000000 -138.000000,415.000000 -282.000000C415.000000 -373.000000,362.000000 -442.000000,282.000000 -442.000000C236.000000 -442.000000,195.000000 -413.000000,165.000000 -382.000000M145.000000 -305.000000C151.000000 -327.000000,151.000000 -329.000000,160.000000 -340.000000C209.000000 -405.000000,254.000000 -420.000000,280.000000 -420.000000C316.000000 -420.000000,343.000000 -390.000000,343.000000 -326.000000C343.000000 -267.000000,310.000000 -152.000000,292.000000 -114.000000C259.000000 -47.000000,213.000000 -11.000000,174.000000 -11.000000C140.000000 -11.000000,107.000000 -38.000000,107.000000 -112.000000C107.000000 -131.000000,107.000000 -150.000000,123.000000 -213.000000"></path>
    </g>
    <g transform="scale(0.009963,0.009963)" id="GLYPHcmmi10_113">
      <path style="fill-rule: evenodd;" d="M452.000000 -431.000000C452.000000 -435.000000,449.000000 -441.000000,442.000000 -441.000000C431.000000 -441.000000,391.000000 -401.000000,374.000000 -372.000000C352.000000 -426.000000,313.000000 -442.000000,281.000000 -442.000000C163.000000 -442.000000,40.000000 -294.000000,40.000000 -149.000000C40.000000 -51.000000,99.000000 11.000000,172.000000 11.000000C215.000000 11.000000,254.000000 -13.000000,290.000000 -49.000000C281.000000 -14.000000,248.000000 121.000000,245.000000 130.000000C237.000000 158.000000,229.000000 162.000000,173.000000 163.000000C160.000000 163.000000,150.000000 163.000000,150.000000 183.000000C150.000000 184.000000,150.000000 194.000000,163.000000 194.000000C195.000000 194.000000,230.000000 191.000000,263.000000 191.000000C297.000000 191.000000,333.000000 194.000000,366.000000 194.000000C371.000000 194.000000,384.000000 194.000000,384.000000 174.000000C384.000000 163.000000,374.000000 163.000000,358.000000 163.000000C310.000000 163.000000,310.000000 156.000000,310.000000 147.000000C310.000000 140.000000,312.000000 134.000000,314.000000 125.000000M175.000000 -11.000000C115.000000 -11.000000,111.000000 -88.000000,111.000000 -105.000000C111.000000 -153.000000,140.000000 -262.000000,157.000000 -304.000000C188.000000 -378.000000,240.000000 -420.000000,281.000000 -420.000000C346.000000 -420.000000,360.000000 -339.000000,360.000000 -332.000000C360.000000 -326.000000,305.000000 -107.000000,302.000000 -103.000000C287.000000 -75.000000,231.000000 -11.000000,175.000000 -11.000000"></path>
    </g>
    <g transform="scale(0.006974,0.006974)" id="GLYPHcmr7_48">
      <path style="fill-rule: evenodd;" d="M516.000000 -319.000000C516.000000 -429.000000,503.000000 -508.000000,457.000000 -578.000000C426.000000 -624.000000,364.000000 -664.000000,284.000000 -664.000000C52.000000 -664.000000,52.000000 -391.000000,52.000000 -319.000000C52.000000 -247.000000,52.000000 20.000000,284.000000 20.000000C516.000000 20.000000,516.000000 -247.000000,516.000000 -319.000000M284.000000 -8.000000C238.000000 -8.000000,177.000000 -35.000000,157.000000 -117.000000C143.000000 -176.000000,143.000000 -258.000000,143.000000 -332.000000C143.000000 -405.000000,143.000000 -481.000000,158.000000 -536.000000C179.000000 -615.000000,243.000000 -636.000000,284.000000 -636.000000C338.000000 -636.000000,390.000000 -603.000000,408.000000 -545.000000C424.000000 -491.000000,425.000000 -419.000000,425.000000 -332.000000C425.000000 -258.000000,425.000000 -184.000000,412.000000 -121.000000C392.000000 -30.000000,324.000000 -8.000000,284.000000 -8.000000"></path>
    </g>
    <g transform="scale(0.006974,0.006974)" id="GLYPHcmr7_49">
      <path style="fill-rule: evenodd;" d="M335.000000 -636.000000C335.000000 -663.000000,333.000000 -664.000000,305.000000 -664.000000C241.000000 -601.000000,150.000000 -600.000000,109.000000 -600.000000L109.000000 -564.000000C133.000000 -564.000000,199.000000 -564.000000,254.000000 -592.000000L254.000000 -82.000000C254.000000 -49.000000,254.000000 -36.000000,154.000000 -36.000000L116.000000 -36.000000L116.000000 -0.000000C134.000000 -1.000000,257.000000 -4.000000,294.000000 -4.000000C325.000000 -4.000000,451.000000 -1.000000,473.000000 -0.000000L473.000000 -36.000000L435.000000 -36.000000C335.000000 -36.000000,335.000000 -49.000000,335.000000 -82.000000"></path>
    </g>
    <g transform="scale(0.006974,0.006974)" id="GLYPHcmr7_50">
      <path style="fill-rule: evenodd;" d="M505.000000 -182.000000L471.000000 -182.000000C468.000000 -160.000000,458.000000 -101.000000,445.000000 -91.000000C437.000000 -85.000000,360.000000 -85.000000,346.000000 -85.000000L162.000000 -85.000000C267.000000 -178.000000,302.000000 -206.000000,362.000000 -253.000000C436.000000 -312.000000,505.000000 -374.000000,505.000000 -469.000000C505.000000 -590.000000,399.000000 -664.000000,271.000000 -664.000000C147.000000 -664.000000,63.000000 -577.000000,63.000000 -485.000000C63.000000 -434.000000,106.000000 -429.000000,116.000000 -429.000000C140.000000 -429.000000,169.000000 -446.000000,169.000000 -482.000000C169.000000 -500.000000,162.000000 -535.000000,110.000000 -535.000000C141.000000 -606.000000,209.000000 -628.000000,256.000000 -628.000000C356.000000 -628.000000,408.000000 -550.000000,408.000000 -469.000000C408.000000 -382.000000,346.000000 -313.000000,314.000000 -277.000000L73.000000 -39.000000C63.000000 -30.000000,63.000000 -28.000000,63.000000 -0.000000L475.000000 -0.000000"></path>
    </g>
    <g transform="scale(0.006974,0.006974)" id="GLYPHcmr7_51">
      <path style="fill-rule: evenodd;" d="M273.000000 -334.000000C351.000000 -334.000000,407.000000 -280.000000,407.000000 -173.000000C407.000000 -49.000000,335.000000 -12.000000,277.000000 -12.000000C237.000000 -12.000000,149.000000 -23.000000,107.000000 -82.000000C154.000000 -84.000000,165.000000 -117.000000,165.000000 -138.000000C165.000000 -170.000000,141.000000 -193.000000,110.000000 -193.000000C82.000000 -193.000000,54.000000 -176.000000,54.000000 -135.000000C54.000000 -41.000000,158.000000 20.000000,279.000000 20.000000C418.000000 20.000000,514.000000 -73.000000,514.000000 -173.000000C514.000000 -251.000000,450.000000 -329.000000,340.000000 -352.000000C445.000000 -390.000000,483.000000 -465.000000,483.000000 -526.000000C483.000000 -605.000000,392.000000 -664.000000,281.000000 -664.000000C170.000000 -664.000000,85.000000 -610.000000,85.000000 -530.000000C85.000000 -496.000000,107.000000 -477.000000,137.000000 -477.000000C168.000000 -477.000000,188.000000 -500.000000,188.000000 -528.000000C188.000000 -557.000000,168.000000 -578.000000,137.000000 -580.000000C172.000000 -624.000000,241.000000 -635.000000,278.000000 -635.000000C323.000000 -635.000000,386.000000 -613.000000,386.000000 -526.000000C386.000000 -484.000000,372.000000 -438.000000,346.000000 -407.000000C313.000000 -369.000000,285.000000 -367.000000,235.000000 -364.000000C210.000000 -362.000000,208.000000 -362.000000,203.000000 -361.000000C201.000000 -361.000000,193.000000 -359.000000,193.000000 -348.000000C193.000000 -334.000000,202.000000 -334.000000,219.000000 -334.000000"></path>
    </g>
    <g transform="scale(0.006974,0.006974)" id="GLYPHcmr7_52">
      <path style="fill-rule: evenodd;" d="M529.000000 -164.000000L529.000000 -200.000000L418.000000 -200.000000L418.000000 -646.000000C418.000000 -667.000000,418.000000 -674.000000,396.000000 -674.000000C384.000000 -674.000000,380.000000 -674.000000,370.000000 -660.000000L39.000000 -200.000000L39.000000 -164.000000L333.000000 -164.000000L333.000000 -82.000000C333.000000 -48.000000,333.000000 -36.000000,252.000000 -36.000000L225.000000 -36.000000L225.000000 -0.000000C275.000000 -2.000000,339.000000 -4.000000,375.000000 -4.000000C412.000000 -4.000000,476.000000 -2.000000,526.000000 -0.000000L526.000000 -36.000000L499.000000 -36.000000C418.000000 -36.000000,418.000000 -48.000000,418.000000 -82.000000L418.000000 -164.000000M340.000000 -566.000000L340.000000 -200.000000L76.000000 -200.000000"></path>
    </g>
    <g transform="scale(0.006974,0.006974)" id="GLYPHcmr7_53">
      <path style="fill-rule: evenodd;" d="M155.000000 -558.000000C206.000000 -545.000000,236.000000 -545.000000,252.000000 -545.000000C384.000000 -545.000000,462.000000 -635.000000,462.000000 -650.000000C462.000000 -661.000000,455.000000 -664.000000,450.000000 -664.000000C448.000000 -664.000000,446.000000 -664.000000,442.000000 -661.000000C418.000000 -652.000000,365.000000 -632.000000,291.000000 -632.000000C263.000000 -632.000000,210.000000 -634.000000,145.000000 -659.000000C135.000000 -664.000000,133.000000 -664.000000,132.000000 -664.000000C119.000000 -664.000000,119.000000 -653.000000,119.000000 -637.000000L119.000000 -342.000000C119.000000 -325.000000,119.000000 -313.000000,135.000000 -313.000000C144.000000 -313.000000,145.000000 -315.000000,155.000000 -327.000000C198.000000 -382.000000,259.000000 -390.000000,294.000000 -390.000000C354.000000 -390.000000,381.000000 -342.000000,386.000000 -334.000000C404.000000 -301.000000,410.000000 -263.000000,410.000000 -205.000000C410.000000 -175.000000,410.000000 -116.000000,380.000000 -72.000000C355.000000 -36.000000,312.000000 -12.000000,263.000000 -12.000000C198.000000 -12.000000,131.000000 -48.000000,106.000000 -114.000000C144.000000 -111.000000,163.000000 -136.000000,163.000000 -163.000000C163.000000 -206.000000,126.000000 -214.000000,113.000000 -214.000000C111.000000 -214.000000,63.000000 -214.000000,63.000000 -160.000000C63.000000 -70.000000,145.000000 20.000000,265.000000 20.000000C393.000000 20.000000,505.000000 -75.000000,505.000000 -201.000000C505.000000 -314.000000,419.000000 -418.000000,295.000000 -418.000000C251.000000 -418.000000,199.000000 -407.000000,155.000000 -369.000000"></path>
    </g>
  </defs>
  <path d="M114.382095 138.387726C114.382095 130.869446,111.395004 123.660004,106.079178 118.344177C100.763351 113.028351,93.553909 110.041260,86.035629 110.041260C78.517349 110.041260,71.307907 113.028351,65.992081 118.344177C60.676254 123.660004,57.689163 130.869446,57.689163 138.387726C57.689163 145.906006,60.676254 153.115448,65.992081 158.431274C71.307907 163.747101,78.517349 166.734192,86.035629 166.734192C93.553909 166.734192,100.763351 163.747101,106.079178 158.431274C111.395004 153.115448,114.382095 145.906006,114.382095 138.387726Z" style="stroke:rgb(0.000000%,0.000000%,0.000000%); stroke-width: 1.992523;stroke-linecap: round;stroke-linejoin: round;stroke-miterlimit: 10.000000;fill: none;"></path>
  <path d="M284.460800 138.387726C284.460800 130.869446,281.473709 123.660004,276.157883 118.344177C270.842056 113.028351,263.632614 110.041260,256.114334 110.041260C248.596054 110.041260,241.386612 113.028351,236.070786 118.344177C230.754959 123.660004,227.767868 130.869446,227.767868 138.387726C227.767868 145.906006,230.754959 153.115448,236.070786 158.431274C241.386612 163.747101,248.596054 166.734192,256.114334 166.734192C263.632614 166.734192,270.842056 163.747101,276.157883 158.431274C281.473709 153.115448,284.460800 145.906006,284.460800 138.387726Z" style="stroke:rgb(0.000000%,0.000000%,0.000000%); stroke-width: 1.992523;stroke-linecap: round;stroke-linejoin: round;stroke-miterlimit: 10.000000;fill: none;"></path>
  <path d="M454.539505 138.387726C454.539505 130.869446,451.552414 123.660004,446.236588 118.344177C440.920761 113.028351,433.711319 110.041260,426.193039 110.041260C418.674759 110.041260,411.465317 113.028351,406.149490 118.344177C400.833664 123.660004,397.846573 130.869446,397.846573 138.387726C397.846573 145.906006,400.833664 153.115448,406.149490 158.431274C411.465317 163.747101,418.674759 166.734192,426.193039 166.734192C433.711319 166.734192,440.920761 163.747101,446.236588 158.431274C451.552414 153.115448,454.539505 145.906006,454.539505 138.387726Z" style="stroke:rgb(0.000000%,0.000000%,0.000000%); stroke-width: 1.992523;stroke-linecap: round;stroke-linejoin: round;stroke-miterlimit: 10.000000;fill: none;"></path>
  <path d="M624.618210 138.387726C624.618210 130.869446,621.631119 123.660004,616.315292 118.344177C610.999466 113.028351,603.790024 110.041260,596.271744 110.041260C588.753464 110.041260,581.544022 113.028351,576.228195 118.344177C570.912369 123.660004,567.925278 130.869446,567.925278 138.387726C567.925278 145.906006,570.912369 153.115448,576.228195 158.431274C581.544022 163.747101,588.753464 166.734192,596.271744 166.734192C603.790024 166.734192,610.999466 163.747101,616.315292 158.431274C621.631119 153.115448,624.618210 145.906006,624.618210 138.387726Z" style="stroke:rgb(0.000000%,0.000000%,0.000000%); stroke-width: 1.992523;stroke-linecap: round;stroke-linejoin: round;stroke-miterlimit: 10.000000;fill: none;"></path>
  <path d="M794.696915 138.387726C794.696915 130.869446,791.709824 123.660004,786.393997 118.344177C781.078171 113.028351,773.868729 110.041260,766.350449 110.041260C758.832169 110.041260,751.622726 113.028351,746.306900 118.344177C740.991074 123.660004,738.003983 130.869446,738.003983 138.387726C738.003983 145.906006,740.991074 153.115448,746.306900 158.431274C751.622726 163.747101,758.832169 166.734192,766.350449 166.734192C773.868729 166.734192,781.078171 163.747101,786.393997 158.431274C791.709824 153.115448,794.696915 145.906006,794.696915 138.387726Z" style="stroke:rgb(0.000000%,0.000000%,0.000000%); stroke-width: 1.992523;stroke-linecap: round;stroke-linejoin: round;stroke-miterlimit: 10.000000;fill: none;"></path>
  <path d="M964.775620 138.387726C964.775620 130.869446,961.788528 123.660004,956.472702 118.344177C951.156876 113.028351,943.947433 110.041260,936.429153 110.041260C928.910873 110.041260,921.701431 113.028351,916.385605 118.344177C911.069778 123.660004,908.082687 130.869446,908.082687 138.387726C908.082687 145.906006,911.069778 153.115448,916.385605 158.431274C921.701431 163.747101,928.910873 166.734192,936.429153 166.734192C943.947433 166.734192,951.156876 163.747101,956.472702 158.431274C961.788528 153.115448,964.775620 145.906006,964.775620 138.387726Z" style="stroke:rgb(0.000000%,0.000000%,0.000000%); stroke-width: 1.992523;stroke-linecap: round;stroke-linejoin: round;stroke-miterlimit: 10.000000;fill: none;"></path>
  <g transform="matrix(2.000000,-0.000000,-0.000000,2.000000,77.118820 140.740051)" style="fill: rgb(0.000000%,0.000000%,0.000000%);">
    <use xlink:href="#GLYPHcmmi10_113"></use>
  </g>
  <g transform="matrix(2.000000,-0.000000,-0.000000,2.000000,86.013626 143.728851)" style="fill: rgb(0.000000%,0.000000%,0.000000%);">
    <use xlink:href="#GLYPHcmr7_48"></use>
  </g>
  <g transform="matrix(2.000000,-0.000000,-0.000000,2.000000,247.197525 140.740051)" style="fill: rgb(0.000000%,0.000000%,0.000000%);">
    <use xlink:href="#GLYPHcmmi10_113"></use>
  </g>
  <g transform="matrix(2.000000,-0.000000,-0.000000,2.000000,256.092331 143.728851)" style="fill: rgb(0.000000%,0.000000%,0.000000%);">
    <use xlink:href="#GLYPHcmr7_49"></use>
  </g>
  <g transform="matrix(2.000000,-0.000000,-0.000000,2.000000,417.276230 140.740051)" style="fill: rgb(0.000000%,0.000000%,0.000000%);">
    <use xlink:href="#GLYPHcmmi10_113"></use>
  </g>
  <g transform="matrix(2.000000,-0.000000,-0.000000,2.000000,426.171036 143.728851)" style="fill: rgb(0.000000%,0.000000%,0.000000%);">
    <use xlink:href="#GLYPHcmr7_50"></use>
  </g>
  <g transform="matrix(2.000000,-0.000000,-0.000000,2.000000,587.354935 140.740051)" style="fill: rgb(0.000000%,0.000000%,0.000000%);">
    <use xlink:href="#GLYPHcmmi10_113"></use>
  </g>
  <g transform="matrix(2.000000,-0.000000,-0.000000,2.000000,596.249741 143.728851)" style="fill: rgb(0.000000%,0.000000%,0.000000%);">
    <use xlink:href="#GLYPHcmr7_51"></use>
  </g>
  <g transform="matrix(2.000000,-0.000000,-0.000000,2.000000,757.433640 140.740051)" style="fill: rgb(0.000000%,0.000000%,0.000000%);">
    <use xlink:href="#GLYPHcmmi10_113"></use>
  </g>
  <g transform="matrix(2.000000,-0.000000,-0.000000,2.000000,766.328445 143.728851)" style="fill: rgb(0.000000%,0.000000%,0.000000%);">
    <use xlink:href="#GLYPHcmr7_52"></use>
  </g>
  <g transform="matrix(2.000000,-0.000000,-0.000000,2.000000,927.512344 140.740051)" style="fill: rgb(0.000000%,0.000000%,0.000000%);">
    <use xlink:href="#GLYPHcmmi10_113"></use>
  </g>
  <g transform="matrix(2.000000,-0.000000,-0.000000,2.000000,936.407150 143.728851)" style="fill: rgb(0.000000%,0.000000%,0.000000%);">
    <use xlink:href="#GLYPHcmr7_53"></use>
  </g>
  <path d="M114.382919 138.387726L227.768509 138.387726" style="stroke:rgb(0.000000%,0.000000%,0.000000%); stroke-width: 1.992523;stroke-linecap: round;stroke-linejoin: round;stroke-miterlimit: 10.000000;fill: none;"></path>
  <path d="M220.377457 141.449280L227.768509 138.387726L220.377457 135.326172Z" style="stroke:rgb(0.000000%,0.000000%,0.000000%); stroke-width: 1.992523;fill: rgb(0.000000%,0.000000%,0.000000%);"></path>
  <g transform="matrix(2.000000,-0.000000,-0.000000,2.000000,165.809647 132.387726)" style="fill: rgb(0.000000%,0.000000%,0.000000%);">
    <use xlink:href="#GLYPHcmmi10_97"></use>
  </g>
  <path d="M284.461624 138.387726L397.847214 138.387726" style="stroke:rgb(0.000000%,0.000000%,0.000000%); stroke-width: 1.992523;stroke-linecap: round;stroke-linejoin: round;stroke-miterlimit: 10.000000;fill: none;"></path>
  <path d="M390.456161 141.449280L397.847214 138.387726L390.456161 135.326172Z" style="stroke:rgb(0.000000%,0.000000%,0.000000%); stroke-width: 1.992523;fill: rgb(0.000000%,0.000000%,0.000000%);"></path>
  <g transform="matrix(2.000000,-0.000000,-0.000000,2.000000,336.878860 132.387726)" style="fill: rgb(0.000000%,0.000000%,0.000000%);">
    <use xlink:href="#GLYPHcmmi10_98"></use>
  </g>
  <path d="M454.540329 138.387726L567.925919 138.387726" style="stroke:rgb(0.000000%,0.000000%,0.000000%); stroke-width: 1.992523;stroke-linecap: round;stroke-linejoin: round;stroke-miterlimit: 10.000000;fill: none;"></path>
  <path d="M560.534866 141.449280L567.925919 138.387726L560.534866 135.326172Z" style="stroke:rgb(0.000000%,0.000000%,0.000000%); stroke-width: 1.992523;fill: rgb(0.000000%,0.000000%,0.000000%);"></path>
  <g transform="matrix(2.000000,-0.000000,-0.000000,2.000000,505.967056 132.387726)" style="fill: rgb(0.000000%,0.000000%,0.000000%);">
    <use xlink:href="#GLYPHcmmi10_97"></use>
  </g>
  <path d="M624.619034 138.387726L738.004623 138.387726" style="stroke:rgb(0.000000%,0.000000%,0.000000%); stroke-width: 1.992523;stroke-linecap: round;stroke-linejoin: round;stroke-miterlimit: 10.000000;fill: none;"></path>
  <path d="M730.613571 141.449280L738.004623 138.387726L730.613571 135.326172Z" style="stroke:rgb(0.000000%,0.000000%,0.000000%); stroke-width: 1.992523;fill: rgb(0.000000%,0.000000%,0.000000%);"></path>
  <g transform="matrix(2.000000,-0.000000,-0.000000,2.000000,677.036270 132.387726)" style="fill: rgb(0.000000%,0.000000%,0.000000%);">
    <use xlink:href="#GLYPHcmmi10_98"></use>
  </g>
  <path d="M794.697739 138.387726L908.083328 138.387726" style="stroke:rgb(0.000000%,0.000000%,0.000000%); stroke-width: 1.992523;stroke-linecap: round;stroke-linejoin: round;stroke-miterlimit: 10.000000;fill: none;"></path>
  <path d="M900.692276 141.449280L908.083328 138.387726L900.692276 135.326172Z" style="stroke:rgb(0.000000%,0.000000%,0.000000%); stroke-width: 1.992523;fill: rgb(0.000000%,0.000000%,0.000000%);"></path>
  <g transform="matrix(2.000000,-0.000000,-0.000000,2.000000,846.124466 132.387726)" style="fill: rgb(0.000000%,0.000000%,0.000000%);">
    <use xlink:href="#GLYPHcmmi10_97"></use>
  </g>
  <path d="M0.996262 138.387726L57.689621 138.387726" style="stroke:rgb(0.000000%,0.000000%,0.000000%); stroke-width: 1.992523;stroke-linecap: round;stroke-linejoin: round;stroke-miterlimit: 10.000000;fill: none;"></path>
  <path d="M50.298477 141.449310L57.689621 138.387726L50.298477 135.326141Z" style="stroke:rgb(0.000000%,0.000000%,0.000000%); stroke-width: 1.992523;fill: rgb(0.000000%,0.000000%,0.000000%);"></path>
  <path d="M959.106400 138.387726C959.106400 132.373077,956.716721 126.605499,952.464066 122.352814C948.211380 118.100159,942.443802 115.710480,936.429153 115.710480C930.414505 115.710480,924.646927 118.100159,920.394241 122.352814C916.141586 126.605499,913.751907 132.373077,913.751907 138.387726C913.751907 144.402374,916.141586 150.169952,920.394241 154.422638C924.646927 158.675293,930.414505 161.064972,936.429153 161.064972C942.443802 161.064972,948.211380 158.675293,952.464066 154.422638C956.716721 150.169952,959.106400 144.402374,959.106400 138.387726Z" style="stroke:rgb(0.000000%,0.000000%,0.000000%); stroke-width: 1.992523;stroke-linecap: round;stroke-linejoin: round;stroke-miterlimit: 10.000000;fill: none;"></path>
  <path d="M105.026260 117.343994C113.579605 104.020172,107.249405 81.694824,86.035629 81.694824C64.821854 81.694824,58.491653 104.020172,67.044998 117.343994" style="stroke:rgb(100.000000%,0.000000%,0.000000%); stroke-width: 1.992523;stroke-linecap: round;stroke-linejoin: round;stroke-miterlimit: 10.000000;fill: none;"></path>
  <path d="M61.385788 111.689606C62.937973 113.882416,64.843735 115.814026,67.044998 117.343994C66.570358 114.705627,66.588669 111.992157,67.041733 109.344086Z" style="stroke:rgb(100.000000%,0.000000%,0.000000%); stroke-width: 1.992523;fill: rgb(100.000000%,0.000000%,0.000000%);"></path>
  <g transform="matrix(2.000000,-0.000000,-0.000000,2.000000,81.760025 75.694824)" style="fill: rgb(100.000000%,0.000000%,0.000000%);">
    <use xlink:href="#GLYPHcmmi10_98"></use>
  </g>
  <path d="M275.104965 117.343994C283.658310 104.020172,277.328110 81.694824,256.114334 81.694824C234.900558 81.694824,228.570358 104.020172,237.123703 117.343994" style="stroke:rgb(100.000000%,0.000000%,0.000000%); stroke-width: 1.992523;stroke-linecap: round;stroke-linejoin: round;stroke-miterlimit: 10.000000;fill: none;"></path>
  <path d="M231.464493 111.689606C233.016678 113.882416,234.922440 115.814026,237.123703 117.343994C236.649063 114.705627,236.667374 111.992157,237.120438 109.344086Z" style="stroke:rgb(100.000000%,0.000000%,0.000000%); stroke-width: 1.992523;fill: rgb(100.000000%,0.000000%,0.000000%);"></path>
  <g transform="matrix(2.000000,-0.000000,-0.000000,2.000000,250.848221 75.694824)" style="fill: rgb(100.000000%,0.000000%,0.000000%);">
    <use xlink:href="#GLYPHcmmi10_97"></use>
  </g>
  <path d="M401.077408 151.528229C309.322983 194.770538,202.906784 194.770691,111.152237 151.528687" style="stroke:rgb(100.000000%,0.000000%,0.000000%); stroke-width: 1.992523;stroke-linecap: round;stroke-linejoin: round;stroke-miterlimit: 10.000000;fill: none;"></path>
  <path d="M119.145981 151.816162C116.483810 151.751740,113.819077 151.656006,111.152237 151.528687C112.947922 153.504456,114.764450 155.456451,116.601303 157.384460Z" style="stroke:rgb(100.000000%,0.000000%,0.000000%); stroke-width: 1.992523;fill: rgb(100.000000%,0.000000%,0.000000%);"></path>
  <g transform="matrix(2.000000,-0.000000,-0.000000,2.000000,251.839249 203.797089)" style="fill: rgb(100.000000%,0.000000%,0.000000%);">
    <use xlink:href="#GLYPHcmmi10_98"></use>
  </g>
  <path d="M571.156113 125.247223C479.401688 82.004913,372.985489 82.004761,281.230942 125.246765" style="stroke:rgb(100.000000%,0.000000%,0.000000%); stroke-width: 1.992523;stroke-linecap: round;stroke-linejoin: round;stroke-miterlimit: 10.000000;fill: none;"></path>
  <path d="M286.680008 119.390991C284.843155 121.319000,283.026627 123.270996,281.230942 125.246765C283.897781 125.119446,286.562515 125.023712,289.224686 124.959290Z" style="stroke:rgb(100.000000%,0.000000%,0.000000%); stroke-width: 1.992523;fill: rgb(100.000000%,0.000000%,0.000000%);"></path>
  <g transform="matrix(2.000000,-0.000000,-0.000000,2.000000,420.927444 86.815369)" style="fill: rgb(100.000000%,0.000000%,0.000000%);">
    <use xlink:href="#GLYPHcmmi10_97"></use>
  </g>
  <path d="M744.160202 156.027618C556.037949 297.586273,296.347000 297.586029,108.224991 156.026947" style="stroke:rgb(100.000000%,0.000000%,0.000000%); stroke-width: 1.992523;stroke-linecap: round;stroke-linejoin: round;stroke-miterlimit: 10.000000;fill: none;"></path>
  <path d="M115.983231 157.965607C113.395767 157.339661,110.809586 156.693481,108.224991 156.026947C109.581253 158.325867,110.952957 160.611511,112.339920 162.883759Z" style="stroke:rgb(100.000000%,0.000000%,0.000000%); stroke-width: 1.992523;fill: rgb(100.000000%,0.000000%,0.000000%);"></path>
  <g transform="matrix(2.000000,-0.000000,-0.000000,2.000000,421.916885 282.033447)" style="fill: rgb(100.000000%,0.000000%,0.000000%);">
    <use xlink:href="#GLYPHcmmi10_98"></use>
  </g>
  <path d="M912.896591 154.190002C874.464188 174.389740,828.316330 174.389862,789.883804 154.190399" style="stroke:rgb(100.000000%,0.000000%,0.000000%); stroke-width: 1.992523;stroke-linecap: round;stroke-linejoin: round;stroke-miterlimit: 10.000000;fill: none;"></path>
  <path d="M797.869705 154.676605C795.212234 154.595764,792.549179 154.434143,789.883804 154.190399C791.596115 156.247498,793.364883 158.244873,795.186783 160.181183Z" style="stroke:rgb(100.000000%,0.000000%,0.000000%); stroke-width: 1.992523;fill: rgb(100.000000%,0.000000%,0.000000%);"></path>
  <g transform="matrix(2.000000,-0.000000,-0.000000,2.000000,847.114609 189.176910)" style="fill: rgb(100.000000%,0.000000%,0.000000%);">
    <use xlink:href="#GLYPHcmmi10_98"></use>
  </g>
  <path d="M914.238907 120.747833C726.116653 -20.810822,466.425705 -20.810577,278.303696 120.748505" style="stroke:rgb(100.000000%,0.000000%,0.000000%); stroke-width: 1.992523;stroke-linecap: round;stroke-linejoin: round;stroke-miterlimit: 10.000000;fill: none;"></path>
  <path d="M282.418625 113.891693C281.031662 116.163940,279.659958 118.449585,278.303696 120.748505C280.888290 120.081970,283.474472 119.435791,286.061935 118.809845Z" style="stroke:rgb(100.000000%,0.000000%,0.000000%); stroke-width: 1.992523;fill: rgb(100.000000%,0.000000%,0.000000%);"></path>
  <g transform="matrix(2.000000,-0.000000,-0.000000,2.000000,591.005081 8.579010)" style="fill: rgb(100.000000%,0.000000%,0.000000%);">
    <use xlink:href="#GLYPHcmmi10_97"></use>
  </g>
</svg>
