<?xml version="1.0"?>
<!-- Created by MetaPost 2.02 on 2024.03.05:0943 -->
<svg version="1.1" xmlns="http://www.w3.org/2000/svg" xmlns:xlink="http://www.w3.org/1999/xlink" width="419.528046" height="198.425201" viewBox="0 0 419.528046 198.425201">
<!-- Original BoundingBox: -167.244354 -184.251953 252.283691 14.173248 -->
  <defs>
    <g transform="scale(0.009963,0.009963)" id="GLYPHcmmi10_34">
      <path style="fill-rule: evenodd;" d="M141.000000 -227.000000C174.000000 -213.000000,203.000000 -213.000000,227.000000 -213.000000C253.000000 -213.000000,308.000000 -213.000000,308.000000 -244.000000C308.000000 -268.000000,273.000000 -271.000000,235.000000 -271.000000C214.000000 -271.000000,179.000000 -269.000000,142.000000 -252.000000C119.000000 -264.000000,102.000000 -283.000000,102.000000 -310.000000C102.000000 -371.000000,200.000000 -407.000000,290.000000 -407.000000C306.000000 -407.000000,342.000000 -407.000000,382.000000 -379.000000C393.000000 -371.000000,395.000000 -369.000000,402.000000 -369.000000C415.000000 -369.000000,429.000000 -382.000000,429.000000 -396.000000C429.000000 -415.000000,368.000000 -453.000000,300.000000 -453.000000C185.000000 -453.000000,77.000000 -386.000000,77.000000 -310.000000C77.000000 -267.000000,113.000000 -242.000000,117.000000 -239.000000C58.000000 -206.000000,26.000000 -150.000000,26.000000 -104.000000C26.000000 -39.000000,83.000000 22.000000,189.000000 22.000000C321.000000 22.000000,377.000000 -66.000000,377.000000 -81.000000C377.000000 -87.000000,372.000000 -91.000000,366.000000 -91.000000C361.000000 -91.000000,358.000000 -87.000000,356.000000 -84.000000C342.000000 -61.000000,318.000000 -24.000000,198.000000 -24.000000C137.000000 -24.000000,52.000000 -39.000000,52.000000 -110.000000C52.000000 -144.000000,80.000000 -197.000000,141.000000 -227.000000M174.000000 -240.000000C197.000000 -248.000000,218.000000 -249.000000,235.000000 -249.000000C260.000000 -249.000000,264.000000 -248.000000,282.000000 -243.000000C267.000000 -236.000000,265.000000 -235.000000,227.000000 -235.000000C205.000000 -235.000000,193.000000 -235.000000,174.000000 -240.000000"></path>
    </g>
    <g transform="scale(0.009963,0.009963)" id="GLYPHcmmi10_83">
      <path style="fill-rule: evenodd;" d="M645.000000 -695.000000C645.000000 -698.000000,643.000000 -705.000000,634.000000 -705.000000C629.000000 -705.000000,628.000000 -704.000000,616.000000 -690.000000L568.000000 -633.000000C542.000000 -680.000000,490.000000 -705.000000,425.000000 -705.000000C298.000000 -705.000000,178.000000 -590.000000,178.000000 -469.000000C178.000000 -388.000000,231.000000 -342.000000,282.000000 -327.000000L389.000000 -299.000000C426.000000 -290.000000,481.000000 -275.000000,481.000000 -193.000000C481.000000 -103.000000,399.000000 -9.000000,301.000000 -9.000000C237.000000 -9.000000,126.000000 -31.000000,126.000000 -155.000000C126.000000 -179.000000,131.000000 -203.000000,132.000000 -209.000000C133.000000 -213.000000,134.000000 -214.000000,134.000000 -216.000000C134.000000 -226.000000,127.000000 -227.000000,122.000000 -227.000000C117.000000 -227.000000,115.000000 -226.000000,112.000000 -223.000000C108.000000 -219.000000,52.000000 9.000000,52.000000 12.000000C52.000000 18.000000,57.000000 22.000000,63.000000 22.000000C68.000000 22.000000,69.000000 21.000000,81.000000 7.000000L130.000000 -50.000000C173.000000 8.000000,241.000000 22.000000,299.000000 22.000000C435.000000 22.000000,553.000000 -111.000000,553.000000 -235.000000C553.000000 -304.000000,519.000000 -338.000000,504.000000 -352.000000C481.000000 -375.000000,466.000000 -379.000000,377.000000 -402.000000C355.000000 -408.000000,319.000000 -418.000000,310.000000 -420.000000C283.000000 -429.000000,249.000000 -458.000000,249.000000 -511.000000C249.000000 -592.000000,329.000000 -677.000000,424.000000 -677.000000C507.000000 -677.000000,568.000000 -634.000000,568.000000 -522.000000C568.000000 -490.000000,564.000000 -472.000000,564.000000 -466.000000C564.000000 -465.000000,564.000000 -456.000000,576.000000 -456.000000C586.000000 -456.000000,587.000000 -459.000000,591.000000 -476.000000"></path>
    </g>
    <g transform="scale(0.009963,0.009963)" id="GLYPHcmmi10_97">
      <path style="fill-rule: evenodd;" d="M373.000000 -378.000000C355.000000 -415.000000,326.000000 -442.000000,281.000000 -442.000000C164.000000 -442.000000,40.000000 -295.000000,40.000000 -149.000000C40.000000 -55.000000,95.000000 11.000000,173.000000 11.000000C193.000000 11.000000,243.000000 7.000000,303.000000 -64.000000C311.000000 -22.000000,346.000000 11.000000,394.000000 11.000000C429.000000 11.000000,452.000000 -12.000000,468.000000 -44.000000C485.000000 -80.000000,498.000000 -141.000000,498.000000 -143.000000C498.000000 -153.000000,489.000000 -153.000000,486.000000 -153.000000C476.000000 -153.000000,475.000000 -149.000000,472.000000 -135.000000C455.000000 -70.000000,437.000000 -11.000000,396.000000 -11.000000C369.000000 -11.000000,366.000000 -37.000000,366.000000 -57.000000C366.000000 -79.000000,368.000000 -87.000000,379.000000 -131.000000C390.000000 -173.000000,392.000000 -183.000000,401.000000 -221.000000L437.000000 -361.000000C444.000000 -389.000000,444.000000 -391.000000,444.000000 -395.000000C444.000000 -412.000000,432.000000 -422.000000,415.000000 -422.000000C391.000000 -422.000000,376.000000 -400.000000,373.000000 -378.000000M308.000000 -119.000000C303.000000 -101.000000,303.000000 -99.000000,288.000000 -82.000000C244.000000 -27.000000,203.000000 -11.000000,175.000000 -11.000000C125.000000 -11.000000,111.000000 -66.000000,111.000000 -105.000000C111.000000 -155.000000,143.000000 -278.000000,166.000000 -324.000000C197.000000 -383.000000,242.000000 -420.000000,282.000000 -420.000000C347.000000 -420.000000,361.000000 -338.000000,361.000000 -332.000000C361.000000 -326.000000,359.000000 -320.000000,358.000000 -315.000000"></path>
    </g>
    <g transform="scale(0.009963,0.009963)" id="GLYPHcmmi10_98">
      <path style="fill-rule: evenodd;" d="M239.000000 -683.000000C239.000000 -684.000000,239.000000 -694.000000,226.000000 -694.000000C203.000000 -694.000000,130.000000 -686.000000,104.000000 -684.000000C96.000000 -683.000000,85.000000 -682.000000,85.000000 -664.000000C85.000000 -652.000000,94.000000 -652.000000,109.000000 -652.000000C157.000000 -652.000000,159.000000 -645.000000,159.000000 -635.000000C159.000000 -628.000000,150.000000 -594.000000,145.000000 -573.000000L63.000000 -247.000000C51.000000 -197.000000,47.000000 -181.000000,47.000000 -146.000000C47.000000 -51.000000,100.000000 11.000000,174.000000 11.000000C292.000000 11.000000,415.000000 -138.000000,415.000000 -282.000000C415.000000 -373.000000,362.000000 -442.000000,282.000000 -442.000000C236.000000 -442.000000,195.000000 -413.000000,165.000000 -382.000000M145.000000 -305.000000C151.000000 -327.000000,151.000000 -329.000000,160.000000 -340.000000C209.000000 -405.000000,254.000000 -420.000000,280.000000 -420.000000C316.000000 -420.000000,343.000000 -390.000000,343.000000 -326.000000C343.000000 -267.000000,310.000000 -152.000000,292.000000 -114.000000C259.000000 -47.000000,213.000000 -11.000000,174.000000 -11.000000C140.000000 -11.000000,107.000000 -38.000000,107.000000 -112.000000C107.000000 -131.000000,107.000000 -150.000000,123.000000 -213.000000"></path>
    </g>
  </defs>
  <path d="M167.244354 14.173248L14.173248 70.866150" style="stroke:rgb(0.000000%,0.000000%,0.000000%); stroke-width: 1.000000;stroke-linecap: round;stroke-linejoin: round;stroke-miterlimit: 10.000000;fill: none;"></path>
  <path d="M167.244354 14.173248L116.220642 70.866150" style="stroke:rgb(0.000000%,0.000000%,0.000000%); stroke-width: 1.000000;stroke-linecap: round;stroke-linejoin: round;stroke-miterlimit: 10.000000;fill: none;"></path>
  <path d="M167.244354 14.173248L218.268066 70.866150" style="stroke:rgb(0.000000%,0.000000%,0.000000%); stroke-width: 1.000000;stroke-linecap: round;stroke-linejoin: round;stroke-miterlimit: 10.000000;fill: none;"></path>
  <path d="M167.244354 14.173248L320.315460 70.866150" style="stroke:rgb(0.000000%,0.000000%,0.000000%); stroke-width: 1.000000;stroke-linecap: round;stroke-linejoin: round;stroke-miterlimit: 10.000000;fill: none;"></path>
  <path d="M116.220642 70.866150L31.181274 127.559052" style="stroke:rgb(0.000000%,0.000000%,0.000000%); stroke-width: 1.000000;stroke-linecap: round;stroke-linejoin: round;stroke-miterlimit: 10.000000;fill: none;"></path>
  <path d="M116.220642 70.866150L87.874176 127.559052" style="stroke:rgb(0.000000%,0.000000%,0.000000%); stroke-width: 1.000000;stroke-linecap: round;stroke-linejoin: round;stroke-miterlimit: 10.000000;fill: none;"></path>
  <path d="M116.220642 70.866150L144.567078 127.559052" style="stroke:rgb(0.000000%,0.000000%,0.000000%); stroke-width: 1.000000;stroke-linecap: round;stroke-linejoin: round;stroke-miterlimit: 10.000000;fill: none;"></path>
  <path d="M116.220642 70.866150L201.259979 127.559052" style="stroke:rgb(0.000000%,0.000000%,0.000000%); stroke-width: 1.000000;stroke-linecap: round;stroke-linejoin: round;stroke-miterlimit: 10.000000;fill: none;"></path>
  <path d="M320.315460 70.866150L235.276093 127.559052" style="stroke:rgb(0.000000%,0.000000%,0.000000%); stroke-width: 1.000000;stroke-linecap: round;stroke-linejoin: round;stroke-miterlimit: 10.000000;fill: none;"></path>
  <path d="M320.315460 70.866150L291.968994 127.559052" style="stroke:rgb(0.000000%,0.000000%,0.000000%); stroke-width: 1.000000;stroke-linecap: round;stroke-linejoin: round;stroke-miterlimit: 10.000000;fill: none;"></path>
  <path d="M320.315460 70.866150L348.661896 127.559052" style="stroke:rgb(0.000000%,0.000000%,0.000000%); stroke-width: 1.000000;stroke-linecap: round;stroke-linejoin: round;stroke-miterlimit: 10.000000;fill: none;"></path>
  <path d="M320.315460 70.866150L405.354797 127.559052" style="stroke:rgb(0.000000%,0.000000%,0.000000%); stroke-width: 1.000000;stroke-linecap: round;stroke-linejoin: round;stroke-miterlimit: 10.000000;fill: none;"></path>
  <path d="M87.874176 127.559052L87.874176 184.251953" style="stroke:rgb(0.000000%,0.000000%,0.000000%); stroke-width: 1.000000;stroke-linecap: round;stroke-linejoin: round;stroke-miterlimit: 10.000000;fill: none;"></path>
  <path d="M201.259979 127.559052L201.259979 184.251953" style="stroke:rgb(0.000000%,0.000000%,0.000000%); stroke-width: 1.000000;stroke-linecap: round;stroke-linejoin: round;stroke-miterlimit: 10.000000;fill: none;"></path>
  <path d="M291.968994 127.559052L291.968994 184.251953" style="stroke:rgb(0.000000%,0.000000%,0.000000%); stroke-width: 1.000000;stroke-linecap: round;stroke-linejoin: round;stroke-miterlimit: 10.000000;fill: none;"></path>
  <path d="M405.354797 127.559052L405.354797 184.251953" style="stroke:rgb(0.000000%,0.000000%,0.000000%); stroke-width: 1.000000;stroke-linecap: round;stroke-linejoin: round;stroke-miterlimit: 10.000000;fill: none;"></path>
  <path d="M181.417603 14.173248C181.417603 10.414093,179.924042 6.809387,177.266144 4.151459C174.608215 1.493561,171.003510 -0.000000,167.244354 -0.000000C163.485199 -0.000000,159.880493 1.493561,157.222565 4.151459C154.564667 6.809387,153.071106 10.414093,153.071106 14.173248C153.071106 17.932404,154.564667 21.537109,157.222565 24.195038C159.880493 26.852936,163.485199 28.346497,167.244354 28.346497C171.003510 28.346497,174.608215 26.852936,177.266144 24.195038C179.924042 21.537109,181.417603 17.932404,181.417603 14.173248Z" style="fill: rgb(100.000000%,100.000000%,100.000000%);stroke: none;"></path>
  <path d="M181.417603 14.173248C181.417603 10.414093,179.924042 6.809387,177.266144 4.151459C174.608215 1.493561,171.003510 -0.000000,167.244354 -0.000000C163.485199 -0.000000,159.880493 1.493561,157.222565 4.151459C154.564667 6.809387,153.071106 10.414093,153.071106 14.173248C153.071106 17.932404,154.564667 21.537109,157.222565 24.195038C159.880493 26.852936,163.485199 28.346497,167.244354 28.346497C171.003510 28.346497,174.608215 26.852936,177.266144 24.195038C179.924042 21.537109,181.417603 17.932404,181.417603 14.173248Z" style="fill: rgb(100.000000%,100.000000%,100.000000%);stroke: none;"></path>
  <path d="M28.346497 70.866150C28.346497 67.106995,26.852936 63.502289,24.195038 60.844360C21.537109 58.186462,17.932404 56.692902,14.173248 56.692902C10.414093 56.692902,6.809387 58.186462,4.151459 60.844360C1.493561 63.502289,0.000000 67.106995,0.000000 70.866150C0.000000 74.625305,1.493561 78.230011,4.151459 80.887939C6.809387 83.545837,10.414093 85.039398,14.173248 85.039398C17.932404 85.039398,21.537109 83.545837,24.195038 80.887939C26.852936 78.230011,28.346497 74.625305,28.346497 70.866150Z" style="fill: rgb(100.000000%,100.000000%,100.000000%);stroke: none;"></path>
  <path d="M28.346497 70.866150C28.346497 67.106995,26.852936 63.502289,24.195038 60.844360C21.537109 58.186462,17.932404 56.692902,14.173248 56.692902C10.414093 56.692902,6.809387 58.186462,4.151459 60.844360C1.493561 63.502289,0.000000 67.106995,0.000000 70.866150C0.000000 74.625305,1.493561 78.230011,4.151459 80.887939C6.809387 83.545837,10.414093 85.039398,14.173248 85.039398C17.932404 85.039398,21.537109 83.545837,24.195038 80.887939C26.852936 78.230011,28.346497 74.625305,28.346497 70.866150Z" style="fill: rgb(100.000000%,100.000000%,100.000000%);stroke: none;"></path>
  <path d="M130.393890 70.866150C130.393890 67.106995,128.900330 63.502289,126.242432 60.844360C123.584503 58.186462,119.979797 56.692902,116.220642 56.692902C112.461487 56.692902,108.856781 58.186462,106.198853 60.844360C103.540955 63.502289,102.047394 67.106995,102.047394 70.866150C102.047394 74.625305,103.540955 78.230011,106.198853 80.887939C108.856781 83.545837,112.461487 85.039398,116.220642 85.039398C119.979797 85.039398,123.584503 83.545837,126.242432 80.887939C128.900330 78.230011,130.393890 74.625305,130.393890 70.866150Z" style="fill: rgb(100.000000%,100.000000%,100.000000%);stroke: none;"></path>
  <path d="M130.393890 70.866150C130.393890 67.106995,128.900330 63.502289,126.242432 60.844360C123.584503 58.186462,119.979797 56.692902,116.220642 56.692902C112.461487 56.692902,108.856781 58.186462,106.198853 60.844360C103.540955 63.502289,102.047394 67.106995,102.047394 70.866150C102.047394 74.625305,103.540955 78.230011,106.198853 80.887939C108.856781 83.545837,112.461487 85.039398,116.220642 85.039398C119.979797 85.039398,123.584503 83.545837,126.242432 80.887939C128.900330 78.230011,130.393890 74.625305,130.393890 70.866150Z" style="fill: rgb(100.000000%,100.000000%,100.000000%);stroke: none;"></path>
  <path d="M232.441315 70.866150C232.441315 67.106995,230.947754 63.502289,228.289856 60.844360C225.631927 58.186462,222.027222 56.692902,218.268066 56.692902C214.508911 56.692902,210.904205 58.186462,208.246277 60.844360C205.588379 63.502289,204.094818 67.106995,204.094818 70.866150C204.094818 74.625305,205.588379 78.230011,208.246277 80.887939C210.904205 83.545837,214.508911 85.039398,218.268066 85.039398C222.027222 85.039398,225.631927 83.545837,228.289856 80.887939C230.947754 78.230011,232.441315 74.625305,232.441315 70.866150Z" style="fill: rgb(100.000000%,100.000000%,100.000000%);stroke: none;"></path>
  <path d="M232.441315 70.866150C232.441315 67.106995,230.947754 63.502289,228.289856 60.844360C225.631927 58.186462,222.027222 56.692902,218.268066 56.692902C214.508911 56.692902,210.904205 58.186462,208.246277 60.844360C205.588379 63.502289,204.094818 67.106995,204.094818 70.866150C204.094818 74.625305,205.588379 78.230011,208.246277 80.887939C210.904205 83.545837,214.508911 85.039398,218.268066 85.039398C222.027222 85.039398,225.631927 83.545837,228.289856 80.887939C230.947754 78.230011,232.441315 74.625305,232.441315 70.866150Z" style="fill: rgb(100.000000%,100.000000%,100.000000%);stroke: none;"></path>
  <path d="M334.488708 70.866150C334.488708 67.106995,332.995148 63.502289,330.337250 60.844360C327.679321 58.186462,324.074615 56.692902,320.315460 56.692902C316.556305 56.692902,312.951599 58.186462,310.293671 60.844360C307.635773 63.502289,306.142212 67.106995,306.142212 70.866150C306.142212 74.625305,307.635773 78.230011,310.293671 80.887939C312.951599 83.545837,316.556305 85.039398,320.315460 85.039398C324.074615 85.039398,327.679321 83.545837,330.337250 80.887939C332.995148 78.230011,334.488708 74.625305,334.488708 70.866150Z" style="fill: rgb(100.000000%,100.000000%,100.000000%);stroke: none;"></path>
  <path d="M334.488708 70.866150C334.488708 67.106995,332.995148 63.502289,330.337250 60.844360C327.679321 58.186462,324.074615 56.692902,320.315460 56.692902C316.556305 56.692902,312.951599 58.186462,310.293671 60.844360C307.635773 63.502289,306.142212 67.106995,306.142212 70.866150C306.142212 74.625305,307.635773 78.230011,310.293671 80.887939C312.951599 83.545837,316.556305 85.039398,320.315460 85.039398C324.074615 85.039398,327.679321 83.545837,330.337250 80.887939C332.995148 78.230011,334.488708 74.625305,334.488708 70.866150Z" style="fill: rgb(100.000000%,100.000000%,100.000000%);stroke: none;"></path>
  <path d="M45.354523 127.559052C45.354523 123.799896,43.860962 120.195190,41.203064 117.537262C38.545135 114.879364,34.940430 113.385803,31.181274 113.385803C27.422119 113.385803,23.817413 114.879364,21.159485 117.537262C18.501587 120.195190,17.008026 123.799896,17.008026 127.559052C17.008026 131.318207,18.501587 134.922913,21.159485 137.580841C23.817413 140.238739,27.422119 141.732300,31.181274 141.732300C34.940430 141.732300,38.545135 140.238739,41.203064 137.580841C43.860962 134.922913,45.354523 131.318207,45.354523 127.559052Z" style="fill: rgb(100.000000%,100.000000%,100.000000%);stroke: none;"></path>
  <path d="M45.354523 127.559052C45.354523 123.799896,43.860962 120.195190,41.203064 117.537262C38.545135 114.879364,34.940430 113.385803,31.181274 113.385803C27.422119 113.385803,23.817413 114.879364,21.159485 117.537262C18.501587 120.195190,17.008026 123.799896,17.008026 127.559052C17.008026 131.318207,18.501587 134.922913,21.159485 137.580841C23.817413 140.238739,27.422119 141.732300,31.181274 141.732300C34.940430 141.732300,38.545135 140.238739,41.203064 137.580841C43.860962 134.922913,45.354523 131.318207,45.354523 127.559052Z" style="fill: rgb(100.000000%,100.000000%,100.000000%);stroke: none;"></path>
  <path d="M102.047424 127.559052C102.047424 123.799896,100.553864 120.195190,97.895966 117.537262C95.238037 114.879364,91.633331 113.385803,87.874176 113.385803C84.115021 113.385803,80.510315 114.879364,77.852386 117.537262C75.194489 120.195190,73.700928 123.799896,73.700928 127.559052C73.700928 131.318207,75.194489 134.922913,77.852386 137.580841C80.510315 140.238739,84.115021 141.732300,87.874176 141.732300C91.633331 141.732300,95.238037 140.238739,97.895966 137.580841C100.553864 134.922913,102.047424 131.318207,102.047424 127.559052Z" style="fill: rgb(100.000000%,100.000000%,100.000000%);stroke: none;"></path>
  <path d="M102.047424 127.559052C102.047424 123.799896,100.553864 120.195190,97.895966 117.537262C95.238037 114.879364,91.633331 113.385803,87.874176 113.385803C84.115021 113.385803,80.510315 114.879364,77.852386 117.537262C75.194489 120.195190,73.700928 123.799896,73.700928 127.559052C73.700928 131.318207,75.194489 134.922913,77.852386 137.580841C80.510315 140.238739,84.115021 141.732300,87.874176 141.732300C91.633331 141.732300,95.238037 140.238739,97.895966 137.580841C100.553864 134.922913,102.047424 131.318207,102.047424 127.559052Z" style="fill: rgb(100.000000%,100.000000%,100.000000%);stroke: none;"></path>
  <path d="M158.740326 127.559052C158.740326 123.799896,157.246765 120.195190,154.588867 117.537262C151.930939 114.879364,148.326233 113.385803,144.567078 113.385803C140.807922 113.385803,137.203217 114.879364,134.545288 117.537262C131.887390 120.195190,130.393829 123.799896,130.393829 127.559052C130.393829 131.318207,131.887390 134.922913,134.545288 137.580841C137.203217 140.238739,140.807922 141.732300,144.567078 141.732300C148.326233 141.732300,151.930939 140.238739,154.588867 137.580841C157.246765 134.922913,158.740326 131.318207,158.740326 127.559052Z" style="fill: rgb(100.000000%,100.000000%,100.000000%);stroke: none;"></path>
  <path d="M158.740326 127.559052C158.740326 123.799896,157.246765 120.195190,154.588867 117.537262C151.930939 114.879364,148.326233 113.385803,144.567078 113.385803C140.807922 113.385803,137.203217 114.879364,134.545288 117.537262C131.887390 120.195190,130.393829 123.799896,130.393829 127.559052C130.393829 131.318207,131.887390 134.922913,134.545288 137.580841C137.203217 140.238739,140.807922 141.732300,144.567078 141.732300C148.326233 141.732300,151.930939 140.238739,154.588867 137.580841C157.246765 134.922913,158.740326 131.318207,158.740326 127.559052Z" style="fill: rgb(100.000000%,100.000000%,100.000000%);stroke: none;"></path>
  <path d="M215.433228 127.559052C215.433228 123.799896,213.939667 120.195190,211.281769 117.537262C208.623840 114.879364,205.019135 113.385803,201.259979 113.385803C197.500824 113.385803,193.896118 114.879364,191.238190 117.537262C188.580292 120.195190,187.086731 123.799896,187.086731 127.559052C187.086731 131.318207,188.580292 134.922913,191.238190 137.580841C193.896118 140.238739,197.500824 141.732300,201.259979 141.732300C205.019135 141.732300,208.623840 140.238739,211.281769 137.580841C213.939667 134.922913,215.433228 131.318207,215.433228 127.559052Z" style="fill: rgb(100.000000%,100.000000%,100.000000%);stroke: none;"></path>
  <path d="M215.433228 127.559052C215.433228 123.799896,213.939667 120.195190,211.281769 117.537262C208.623840 114.879364,205.019135 113.385803,201.259979 113.385803C197.500824 113.385803,193.896118 114.879364,191.238190 117.537262C188.580292 120.195190,187.086731 123.799896,187.086731 127.559052C187.086731 131.318207,188.580292 134.922913,191.238190 137.580841C193.896118 140.238739,197.500824 141.732300,201.259979 141.732300C205.019135 141.732300,208.623840 140.238739,211.281769 137.580841C213.939667 134.922913,215.433228 131.318207,215.433228 127.559052Z" style="fill: rgb(100.000000%,100.000000%,100.000000%);stroke: none;"></path>
  <path d="M249.449341 127.559052C249.449341 123.799896,247.955780 120.195190,245.297882 117.537262C242.639954 114.879364,239.035248 113.385803,235.276093 113.385803C231.516937 113.385803,227.912231 114.879364,225.254303 117.537262C222.596405 120.195190,221.102844 123.799896,221.102844 127.559052C221.102844 131.318207,222.596405 134.922913,225.254303 137.580841C227.912231 140.238739,231.516937 141.732300,235.276093 141.732300C239.035248 141.732300,242.639954 140.238739,245.297882 137.580841C247.955780 134.922913,249.449341 131.318207,249.449341 127.559052Z" style="fill: rgb(100.000000%,100.000000%,100.000000%);stroke: none;"></path>
  <path d="M249.449341 127.559052C249.449341 123.799896,247.955780 120.195190,245.297882 117.537262C242.639954 114.879364,239.035248 113.385803,235.276093 113.385803C231.516937 113.385803,227.912231 114.879364,225.254303 117.537262C222.596405 120.195190,221.102844 123.799896,221.102844 127.559052C221.102844 131.318207,222.596405 134.922913,225.254303 137.580841C227.912231 140.238739,231.516937 141.732300,235.276093 141.732300C239.035248 141.732300,242.639954 140.238739,245.297882 137.580841C247.955780 134.922913,249.449341 131.318207,249.449341 127.559052Z" style="fill: rgb(100.000000%,100.000000%,100.000000%);stroke: none;"></path>
  <path d="M306.142242 127.559052C306.142242 123.799896,304.648682 120.195190,301.990784 117.537262C299.332855 114.879364,295.728149 113.385803,291.968994 113.385803C288.209839 113.385803,284.605133 114.879364,281.947205 117.537262C279.289307 120.195190,277.795746 123.799896,277.795746 127.559052C277.795746 131.318207,279.289307 134.922913,281.947205 137.580841C284.605133 140.238739,288.209839 141.732300,291.968994 141.732300C295.728149 141.732300,299.332855 140.238739,301.990784 137.580841C304.648682 134.922913,306.142242 131.318207,306.142242 127.559052Z" style="fill: rgb(100.000000%,100.000000%,100.000000%);stroke: none;"></path>
  <path d="M306.142242 127.559052C306.142242 123.799896,304.648682 120.195190,301.990784 117.537262C299.332855 114.879364,295.728149 113.385803,291.968994 113.385803C288.209839 113.385803,284.605133 114.879364,281.947205 117.537262C279.289307 120.195190,277.795746 123.799896,277.795746 127.559052C277.795746 131.318207,279.289307 134.922913,281.947205 137.580841C284.605133 140.238739,288.209839 141.732300,291.968994 141.732300C295.728149 141.732300,299.332855 140.238739,301.990784 137.580841C304.648682 134.922913,306.142242 131.318207,306.142242 127.559052Z" style="fill: rgb(100.000000%,100.000000%,100.000000%);stroke: none;"></path>
  <path d="M362.835144 127.559052C362.835144 123.799896,361.341583 120.195190,358.683685 117.537262C356.025757 114.879364,352.421051 113.385803,348.661896 113.385803C344.902740 113.385803,341.298035 114.879364,338.640106 117.537262C335.982208 120.195190,334.488647 123.799896,334.488647 127.559052C334.488647 131.318207,335.982208 134.922913,338.640106 137.580841C341.298035 140.238739,344.902740 141.732300,348.661896 141.732300C352.421051 141.732300,356.025757 140.238739,358.683685 137.580841C361.341583 134.922913,362.835144 131.318207,362.835144 127.559052Z" style="fill: rgb(100.000000%,100.000000%,100.000000%);stroke: none;"></path>
  <path d="M362.835144 127.559052C362.835144 123.799896,361.341583 120.195190,358.683685 117.537262C356.025757 114.879364,352.421051 113.385803,348.661896 113.385803C344.902740 113.385803,341.298035 114.879364,338.640106 117.537262C335.982208 120.195190,334.488647 123.799896,334.488647 127.559052C334.488647 131.318207,335.982208 134.922913,338.640106 137.580841C341.298035 140.238739,344.902740 141.732300,348.661896 141.732300C352.421051 141.732300,356.025757 140.238739,358.683685 137.580841C361.341583 134.922913,362.835144 131.318207,362.835144 127.559052Z" style="fill: rgb(100.000000%,100.000000%,100.000000%);stroke: none;"></path>
  <path d="M419.528046 127.559052C419.528046 123.799896,418.034485 120.195190,415.376587 117.537262C412.718658 114.879364,409.113953 113.385803,405.354797 113.385803C401.595642 113.385803,397.990936 114.879364,395.333008 117.537262C392.675110 120.195190,391.181549 123.799896,391.181549 127.559052C391.181549 131.318207,392.675110 134.922913,395.333008 137.580841C397.990936 140.238739,401.595642 141.732300,405.354797 141.732300C409.113953 141.732300,412.718658 140.238739,415.376587 137.580841C418.034485 134.922913,419.528046 131.318207,419.528046 127.559052Z" style="fill: rgb(100.000000%,100.000000%,100.000000%);stroke: none;"></path>
  <path d="M419.528046 127.559052C419.528046 123.799896,418.034485 120.195190,415.376587 117.537262C412.718658 114.879364,409.113953 113.385803,405.354797 113.385803C401.595642 113.385803,397.990936 114.879364,395.333008 117.537262C392.675110 120.195190,391.181549 123.799896,391.181549 127.559052C391.181549 131.318207,392.675110 134.922913,395.333008 137.580841C397.990936 140.238739,401.595642 141.732300,405.354797 141.732300C409.113953 141.732300,412.718658 140.238739,415.376587 137.580841C418.034485 134.922913,419.528046 131.318207,419.528046 127.559052Z" style="fill: rgb(100.000000%,100.000000%,100.000000%);stroke: none;"></path>
  <path d="M102.047424 184.251953C102.047424 180.492798,100.553864 176.888092,97.895966 174.230164C95.238037 171.572266,91.633331 170.078705,87.874176 170.078705C84.115021 170.078705,80.510315 171.572266,77.852386 174.230164C75.194489 176.888092,73.700928 180.492798,73.700928 184.251953C73.700928 188.011108,75.194489 191.615814,77.852386 194.273743C80.510315 196.931641,84.115021 198.425201,87.874176 198.425201C91.633331 198.425201,95.238037 196.931641,97.895966 194.273743C100.553864 191.615814,102.047424 188.011108,102.047424 184.251953Z" style="fill: rgb(100.000000%,100.000000%,100.000000%);stroke: none;"></path>
  <path d="M102.047424 184.251953C102.047424 180.492798,100.553864 176.888092,97.895966 174.230164C95.238037 171.572266,91.633331 170.078705,87.874176 170.078705C84.115021 170.078705,80.510315 171.572266,77.852386 174.230164C75.194489 176.888092,73.700928 180.492798,73.700928 184.251953C73.700928 188.011108,75.194489 191.615814,77.852386 194.273743C80.510315 196.931641,84.115021 198.425201,87.874176 198.425201C91.633331 198.425201,95.238037 196.931641,97.895966 194.273743C100.553864 191.615814,102.047424 188.011108,102.047424 184.251953Z" style="fill: rgb(100.000000%,100.000000%,100.000000%);stroke: none;"></path>
  <path d="M215.433228 184.251953C215.433228 180.492798,213.939667 176.888092,211.281769 174.230164C208.623840 171.572266,205.019135 170.078705,201.259979 170.078705C197.500824 170.078705,193.896118 171.572266,191.238190 174.230164C188.580292 176.888092,187.086731 180.492798,187.086731 184.251953C187.086731 188.011108,188.580292 191.615814,191.238190 194.273743C193.896118 196.931641,197.500824 198.425201,201.259979 198.425201C205.019135 198.425201,208.623840 196.931641,211.281769 194.273743C213.939667 191.615814,215.433228 188.011108,215.433228 184.251953Z" style="fill: rgb(100.000000%,100.000000%,100.000000%);stroke: none;"></path>
  <path d="M215.433228 184.251953C215.433228 180.492798,213.939667 176.888092,211.281769 174.230164C208.623840 171.572266,205.019135 170.078705,201.259979 170.078705C197.500824 170.078705,193.896118 171.572266,191.238190 174.230164C188.580292 176.888092,187.086731 180.492798,187.086731 184.251953C187.086731 188.011108,188.580292 191.615814,191.238190 194.273743C193.896118 196.931641,197.500824 198.425201,201.259979 198.425201C205.019135 198.425201,208.623840 196.931641,211.281769 194.273743C213.939667 191.615814,215.433228 188.011108,215.433228 184.251953Z" style="fill: rgb(100.000000%,100.000000%,100.000000%);stroke: none;"></path>
  <path d="M306.142242 184.251953C306.142242 180.492798,304.648682 176.888092,301.990784 174.230164C299.332855 171.572266,295.728149 170.078705,291.968994 170.078705C288.209839 170.078705,284.605133 171.572266,281.947205 174.230164C279.289307 176.888092,277.795746 180.492798,277.795746 184.251953C277.795746 188.011108,279.289307 191.615814,281.947205 194.273743C284.605133 196.931641,288.209839 198.425201,291.968994 198.425201C295.728149 198.425201,299.332855 196.931641,301.990784 194.273743C304.648682 191.615814,306.142242 188.011108,306.142242 184.251953Z" style="fill: rgb(100.000000%,100.000000%,100.000000%);stroke: none;"></path>
  <path d="M306.142242 184.251953C306.142242 180.492798,304.648682 176.888092,301.990784 174.230164C299.332855 171.572266,295.728149 170.078705,291.968994 170.078705C288.209839 170.078705,284.605133 171.572266,281.947205 174.230164C279.289307 176.888092,277.795746 180.492798,277.795746 184.251953C277.795746 188.011108,279.289307 191.615814,281.947205 194.273743C284.605133 196.931641,288.209839 198.425201,291.968994 198.425201C295.728149 198.425201,299.332855 196.931641,301.990784 194.273743C304.648682 191.615814,306.142242 188.011108,306.142242 184.251953Z" style="fill: rgb(100.000000%,100.000000%,100.000000%);stroke: none;"></path>
  <path d="M419.528046 184.251953C419.528046 180.492798,418.034485 176.888092,415.376587 174.230164C412.718658 171.572266,409.113953 170.078705,405.354797 170.078705C401.595642 170.078705,397.990936 171.572266,395.333008 174.230164C392.675110 176.888092,391.181549 180.492798,391.181549 184.251953C391.181549 188.011108,392.675110 191.615814,395.333008 194.273743C397.990936 196.931641,401.595642 198.425201,405.354797 198.425201C409.113953 198.425201,412.718658 196.931641,415.376587 194.273743C418.034485 191.615814,419.528046 188.011108,419.528046 184.251953Z" style="fill: rgb(100.000000%,100.000000%,100.000000%);stroke: none;"></path>
  <path d="M419.528046 184.251953C419.528046 180.492798,418.034485 176.888092,415.376587 174.230164C412.718658 171.572266,409.113953 170.078705,405.354797 170.078705C401.595642 170.078705,397.990936 171.572266,395.333008 174.230164C392.675110 176.888092,391.181549 180.492798,391.181549 184.251953C391.181549 188.011108,392.675110 191.615814,395.333008 194.273743C397.990936 196.931641,401.595642 198.425201,405.354797 198.425201C409.113953 198.425201,412.718658 196.931641,415.376587 194.273743C418.034485 191.615814,419.528046 188.011108,419.528046 184.251953Z" style="fill: rgb(100.000000%,100.000000%,100.000000%);stroke: none;"></path>
  <g transform="matrix(2.000000,-0.000000,-0.000000,2.000000,160.561035 20.981049)" style="fill: rgb(0.000000%,0.000000%,0.000000%);">
    <use xlink:href="#GLYPHcmmi10_83"></use>
  </g>
  <g transform="matrix(2.000000,-0.000000,-0.000000,2.000000,8.907135 75.155670)" style="fill: rgb(0.000000%,0.000000%,0.000000%);">
    <use xlink:href="#GLYPHcmmi10_97"></use>
  </g>
  <g transform="matrix(2.000000,-0.000000,-0.000000,2.000000,109.537323 77.673950)" style="fill: rgb(0.000000%,0.000000%,0.000000%);">
    <use xlink:href="#GLYPHcmmi10_83"></use>
  </g>
  <g transform="matrix(2.000000,-0.000000,-0.000000,2.000000,213.992462 77.784668)" style="fill: rgb(0.000000%,0.000000%,0.000000%);">
    <use xlink:href="#GLYPHcmmi10_98"></use>
  </g>
  <g transform="matrix(2.000000,-0.000000,-0.000000,2.000000,313.632141 77.673950)" style="fill: rgb(0.000000%,0.000000%,0.000000%);">
    <use xlink:href="#GLYPHcmmi10_83"></use>
  </g>
  <g transform="matrix(2.000000,-0.000000,-0.000000,2.000000,25.915161 131.848572)" style="fill: rgb(0.000000%,0.000000%,0.000000%);">
    <use xlink:href="#GLYPHcmmi10_97"></use>
  </g>
  <g transform="matrix(2.000000,-0.000000,-0.000000,2.000000,81.190857 134.366852)" style="fill: rgb(0.000000%,0.000000%,0.000000%);">
    <use xlink:href="#GLYPHcmmi10_83"></use>
  </g>
  <g transform="matrix(2.000000,-0.000000,-0.000000,2.000000,140.291473 134.477570)" style="fill: rgb(0.000000%,0.000000%,0.000000%);">
    <use xlink:href="#GLYPHcmmi10_98"></use>
  </g>
  <g transform="matrix(2.000000,-0.000000,-0.000000,2.000000,194.576660 134.366852)" style="fill: rgb(0.000000%,0.000000%,0.000000%);">
    <use xlink:href="#GLYPHcmmi10_83"></use>
  </g>
  <g transform="matrix(2.000000,-0.000000,-0.000000,2.000000,230.009979 131.848572)" style="fill: rgb(0.000000%,0.000000%,0.000000%);">
    <use xlink:href="#GLYPHcmmi10_97"></use>
  </g>
  <g transform="matrix(2.000000,-0.000000,-0.000000,2.000000,285.285675 134.366852)" style="fill: rgb(0.000000%,0.000000%,0.000000%);">
    <use xlink:href="#GLYPHcmmi10_83"></use>
  </g>
  <g transform="matrix(2.000000,-0.000000,-0.000000,2.000000,344.386292 134.477570)" style="fill: rgb(0.000000%,0.000000%,0.000000%);">
    <use xlink:href="#GLYPHcmmi10_98"></use>
  </g>
  <g transform="matrix(2.000000,-0.000000,-0.000000,2.000000,398.671478 134.366852)" style="fill: rgb(0.000000%,0.000000%,0.000000%);">
    <use xlink:href="#GLYPHcmmi10_83"></use>
  </g>
  <g transform="matrix(2.000000,-0.000000,-0.000000,2.000000,83.228363 188.541473)" style="fill: rgb(0.000000%,0.000000%,0.000000%);">
    <use xlink:href="#GLYPHcmmi10_34"></use>
  </g>
  <g transform="matrix(2.000000,-0.000000,-0.000000,2.000000,196.614166 188.541473)" style="fill: rgb(0.000000%,0.000000%,0.000000%);">
    <use xlink:href="#GLYPHcmmi10_34"></use>
  </g>
  <g transform="matrix(2.000000,-0.000000,-0.000000,2.000000,287.323181 188.541473)" style="fill: rgb(0.000000%,0.000000%,0.000000%);">
    <use xlink:href="#GLYPHcmmi10_34"></use>
  </g>
  <g transform="matrix(2.000000,-0.000000,-0.000000,2.000000,400.708984 188.541473)" style="fill: rgb(0.000000%,0.000000%,0.000000%);">
    <use xlink:href="#GLYPHcmmi10_34"></use>
  </g>
</svg>
