<?xml version="1.0"?>
<!-- Created by MetaPost 2.02 on 2024.03.06:1709 -->
<svg version="1.1" xmlns="http://www.w3.org/2000/svg" xmlns:xlink="http://www.w3.org/1999/xlink" width="198.425201" height="255.118103" viewBox="0 0 198.425201 255.118103">
<!-- Original BoundingBox: -70.866150 -240.944855 127.559052 14.173248 -->
  <defs>
    <g transform="scale(0.009963,0.009963)" id="GLYPHcmmi10_67">
      <path style="fill-rule: evenodd;" d="M760.000000 -695.000000C760.000000 -698.000000,758.000000 -705.000000,749.000000 -705.000000C746.000000 -705.000000,745.000000 -704.000000,734.000000 -693.000000L664.000000 -616.000000C655.000000 -630.000000,609.000000 -705.000000,498.000000 -705.000000C275.000000 -705.000000,50.000000 -484.000000,50.000000 -252.000000C50.000000 -87.000000,168.000000 22.000000,321.000000 22.000000C408.000000 22.000000,484.000000 -18.000000,537.000000 -64.000000C630.000000 -146.000000,647.000000 -237.000000,647.000000 -240.000000C647.000000 -250.000000,637.000000 -250.000000,635.000000 -250.000000C629.000000 -250.000000,624.000000 -248.000000,622.000000 -240.000000C613.000000 -211.000000,590.000000 -140.000000,521.000000 -82.000000C452.000000 -26.000000,389.000000 -9.000000,337.000000 -9.000000C247.000000 -9.000000,141.000000 -61.000000,141.000000 -217.000000C141.000000 -274.000000,162.000000 -436.000000,262.000000 -553.000000C323.000000 -624.000000,417.000000 -674.000000,506.000000 -674.000000C608.000000 -674.000000,667.000000 -597.000000,667.000000 -481.000000C667.000000 -441.000000,664.000000 -440.000000,664.000000 -430.000000C664.000000 -420.000000,675.000000 -420.000000,679.000000 -420.000000C692.000000 -420.000000,692.000000 -422.000000,697.000000 -440.000000"></path>
    </g>
    <g transform="scale(0.009963,0.009963)" id="GLYPHcmmi10_83">
      <path style="fill-rule: evenodd;" d="M645.000000 -695.000000C645.000000 -698.000000,643.000000 -705.000000,634.000000 -705.000000C629.000000 -705.000000,628.000000 -704.000000,616.000000 -690.000000L568.000000 -633.000000C542.000000 -680.000000,490.000000 -705.000000,425.000000 -705.000000C298.000000 -705.000000,178.000000 -590.000000,178.000000 -469.000000C178.000000 -388.000000,231.000000 -342.000000,282.000000 -327.000000L389.000000 -299.000000C426.000000 -290.000000,481.000000 -275.000000,481.000000 -193.000000C481.000000 -103.000000,399.000000 -9.000000,301.000000 -9.000000C237.000000 -9.000000,126.000000 -31.000000,126.000000 -155.000000C126.000000 -179.000000,131.000000 -203.000000,132.000000 -209.000000C133.000000 -213.000000,134.000000 -214.000000,134.000000 -216.000000C134.000000 -226.000000,127.000000 -227.000000,122.000000 -227.000000C117.000000 -227.000000,115.000000 -226.000000,112.000000 -223.000000C108.000000 -219.000000,52.000000 9.000000,52.000000 12.000000C52.000000 18.000000,57.000000 22.000000,63.000000 22.000000C68.000000 22.000000,69.000000 21.000000,81.000000 7.000000L130.000000 -50.000000C173.000000 8.000000,241.000000 22.000000,299.000000 22.000000C435.000000 22.000000,553.000000 -111.000000,553.000000 -235.000000C553.000000 -304.000000,519.000000 -338.000000,504.000000 -352.000000C481.000000 -375.000000,466.000000 -379.000000,377.000000 -402.000000C355.000000 -408.000000,319.000000 -418.000000,310.000000 -420.000000C283.000000 -429.000000,249.000000 -458.000000,249.000000 -511.000000C249.000000 -592.000000,329.000000 -677.000000,424.000000 -677.000000C507.000000 -677.000000,568.000000 -634.000000,568.000000 -522.000000C568.000000 -490.000000,564.000000 -472.000000,564.000000 -466.000000C564.000000 -465.000000,564.000000 -456.000000,576.000000 -456.000000C586.000000 -456.000000,587.000000 -459.000000,591.000000 -476.000000"></path>
    </g>
    <g transform="scale(0.009963,0.009963)" id="GLYPHcmmi10_120">
      <path style="fill-rule: evenodd;" d="M334.000000 -302.000000C340.000000 -328.000000,363.000000 -420.000000,433.000000 -420.000000C438.000000 -420.000000,462.000000 -420.000000,483.000000 -407.000000C455.000000 -402.000000,435.000000 -377.000000,435.000000 -353.000000C435.000000 -337.000000,446.000000 -318.000000,473.000000 -318.000000C495.000000 -318.000000,527.000000 -336.000000,527.000000 -376.000000C527.000000 -428.000000,468.000000 -442.000000,434.000000 -442.000000C376.000000 -442.000000,341.000000 -389.000000,329.000000 -366.000000C304.000000 -432.000000,250.000000 -442.000000,221.000000 -442.000000C117.000000 -442.000000,60.000000 -313.000000,60.000000 -288.000000C60.000000 -278.000000,70.000000 -278.000000,72.000000 -278.000000C80.000000 -278.000000,83.000000 -280.000000,85.000000 -289.000000C119.000000 -395.000000,185.000000 -420.000000,219.000000 -420.000000C238.000000 -420.000000,273.000000 -411.000000,273.000000 -353.000000C273.000000 -322.000000,256.000000 -255.000000,219.000000 -115.000000C203.000000 -53.000000,168.000000 -11.000000,124.000000 -11.000000C118.000000 -11.000000,95.000000 -11.000000,74.000000 -24.000000C99.000000 -29.000000,121.000000 -50.000000,121.000000 -78.000000C121.000000 -105.000000,99.000000 -113.000000,84.000000 -113.000000C54.000000 -113.000000,29.000000 -87.000000,29.000000 -55.000000C29.000000 -9.000000,79.000000 11.000000,123.000000 11.000000C189.000000 11.000000,225.000000 -59.000000,228.000000 -65.000000C240.000000 -28.000000,276.000000 11.000000,336.000000 11.000000C439.000000 11.000000,496.000000 -118.000000,496.000000 -143.000000C496.000000 -153.000000,487.000000 -153.000000,484.000000 -153.000000C475.000000 -153.000000,473.000000 -149.000000,471.000000 -142.000000C438.000000 -35.000000,370.000000 -11.000000,338.000000 -11.000000C299.000000 -11.000000,283.000000 -43.000000,283.000000 -77.000000C283.000000 -99.000000,289.000000 -121.000000,300.000000 -165.000000"></path>
    </g>
    <g transform="scale(0.009963,0.009963)" id="GLYPHcmmi10_121">
      <path style="fill-rule: evenodd;" d="M486.000000 -381.000000C490.000000 -395.000000,490.000000 -397.000000,490.000000 -404.000000C490.000000 -422.000000,476.000000 -431.000000,461.000000 -431.000000C451.000000 -431.000000,435.000000 -425.000000,426.000000 -410.000000C424.000000 -405.000000,416.000000 -374.000000,412.000000 -356.000000C405.000000 -330.000000,398.000000 -303.000000,392.000000 -276.000000L347.000000 -96.000000C343.000000 -81.000000,300.000000 -11.000000,234.000000 -11.000000C183.000000 -11.000000,172.000000 -55.000000,172.000000 -92.000000C172.000000 -138.000000,189.000000 -200.000000,223.000000 -288.000000C239.000000 -329.000000,243.000000 -340.000000,243.000000 -360.000000C243.000000 -405.000000,211.000000 -442.000000,161.000000 -442.000000C66.000000 -442.000000,29.000000 -297.000000,29.000000 -288.000000C29.000000 -278.000000,39.000000 -278.000000,41.000000 -278.000000C51.000000 -278.000000,52.000000 -280.000000,57.000000 -296.000000C84.000000 -390.000000,124.000000 -420.000000,158.000000 -420.000000C166.000000 -420.000000,183.000000 -420.000000,183.000000 -388.000000C183.000000 -363.000000,173.000000 -337.000000,166.000000 -318.000000C126.000000 -212.000000,108.000000 -155.000000,108.000000 -108.000000C108.000000 -19.000000,171.000000 11.000000,230.000000 11.000000C269.000000 11.000000,303.000000 -6.000000,331.000000 -34.000000C318.000000 18.000000,306.000000 67.000000,266.000000 120.000000C240.000000 154.000000,202.000000 183.000000,156.000000 183.000000C142.000000 183.000000,97.000000 180.000000,80.000000 141.000000C96.000000 141.000000,109.000000 141.000000,123.000000 129.000000C133.000000 120.000000,143.000000 107.000000,143.000000 88.000000C143.000000 57.000000,116.000000 53.000000,106.000000 53.000000C83.000000 53.000000,50.000000 69.000000,50.000000 118.000000C50.000000 168.000000,94.000000 205.000000,156.000000 205.000000C259.000000 205.000000,362.000000 114.000000,390.000000 1.000000"></path>
    </g>
    <g transform="scale(0.009963,0.009963)" id="GLYPHcmmi10_122">
      <path style="fill-rule: evenodd;" d="M133.000000 -83.000000C187.000000 -141.000000,216.000000 -166.000000,252.000000 -197.000000C252.000000 -198.000000,314.000000 -251.000000,350.000000 -287.000000C445.000000 -380.000000,467.000000 -428.000000,467.000000 -432.000000C467.000000 -442.000000,458.000000 -442.000000,456.000000 -442.000000C449.000000 -442.000000,446.000000 -440.000000,441.000000 -431.000000C411.000000 -383.000000,390.000000 -367.000000,366.000000 -367.000000C342.000000 -367.000000,330.000000 -382.000000,315.000000 -399.000000C296.000000 -422.000000,279.000000 -442.000000,246.000000 -442.000000C171.000000 -442.000000,125.000000 -349.000000,125.000000 -328.000000C125.000000 -323.000000,128.000000 -317.000000,137.000000 -317.000000C146.000000 -317.000000,148.000000 -322.000000,150.000000 -328.000000C169.000000 -374.000000,227.000000 -375.000000,235.000000 -375.000000C256.000000 -375.000000,275.000000 -368.000000,298.000000 -360.000000C338.000000 -345.000000,349.000000 -345.000000,375.000000 -345.000000C339.000000 -302.000000,255.000000 -230.000000,236.000000 -214.000000L146.000000 -130.000000C78.000000 -63.000000,43.000000 -6.000000,43.000000 1.000000C43.000000 11.000000,53.000000 11.000000,55.000000 11.000000C63.000000 11.000000,65.000000 9.000000,71.000000 -2.000000C94.000000 -37.000000,124.000000 -64.000000,156.000000 -64.000000C179.000000 -64.000000,189.000000 -55.000000,214.000000 -26.000000C231.000000 -5.000000,249.000000 11.000000,278.000000 11.000000C377.000000 11.000000,435.000000 -116.000000,435.000000 -143.000000C435.000000 -148.000000,431.000000 -153.000000,423.000000 -153.000000C414.000000 -153.000000,412.000000 -147.000000,409.000000 -140.000000C386.000000 -75.000000,322.000000 -56.000000,289.000000 -56.000000C269.000000 -56.000000,251.000000 -62.000000,230.000000 -69.000000C196.000000 -82.000000,181.000000 -86.000000,160.000000 -86.000000C158.000000 -86.000000,142.000000 -86.000000,133.000000 -83.000000"></path>
    </g>
    <g transform="scale(0.009963,0.009963)" id="GLYPHcmsy10_94">
      <path style="fill-rule: evenodd;" d="M356.000000 -577.000000C348.000000 -594.000000,342.000000 -598.000000,333.000000 -598.000000C320.000000 -598.000000,317.000000 -591.000000,311.000000 -577.000000L62.000000 -18.000000C56.000000 -5.000000,55.000000 -3.000000,55.000000 2.000000C55.000000 13.000000,64.000000 22.000000,75.000000 22.000000C82.000000 22.000000,90.000000 20.000000,98.000000 1.000000L333.000000 -529.000000L568.000000 1.000000C577.000000 22.000000,587.000000 22.000000,591.000000 22.000000C602.000000 22.000000,611.000000 13.000000,611.000000 2.000000C611.000000 -0.000000,611.000000 -2.000000,605.000000 -14.000000"></path>
    </g>
    <g transform="scale(0.009963,0.009963)" id="GLYPHcmsy10_95">
      <path style="fill-rule: evenodd;" d="M604.000000 -558.000000C610.000000 -571.000000,611.000000 -573.000000,611.000000 -578.000000C611.000000 -589.000000,602.000000 -598.000000,591.000000 -598.000000C581.000000 -598.000000,575.000000 -591.000000,568.000000 -576.000000L333.000000 -47.000000L98.000000 -577.000000C90.000000 -596.000000,82.000000 -598.000000,75.000000 -598.000000C64.000000 -598.000000,55.000000 -589.000000,55.000000 -578.000000C55.000000 -576.000000,55.000000 -574.000000,61.000000 -562.000000L310.000000 1.000000C318.000000 18.000000,324.000000 22.000000,333.000000 22.000000C346.000000 22.000000,349.000000 15.000000,355.000000 1.000000"></path>
    </g>
  </defs>
  <path d="M70.866150 14.173248L14.173248 70.866150" style="stroke:rgb(0.000000%,0.000000%,0.000000%); stroke-width: 1.000000;stroke-linecap: round;stroke-linejoin: round;stroke-miterlimit: 10.000000;fill: none;"></path>
  <path d="M70.866150 14.173248L70.866150 70.866150" style="stroke:rgb(0.000000%,0.000000%,0.000000%); stroke-width: 1.000000;stroke-linecap: round;stroke-linejoin: round;stroke-miterlimit: 10.000000;fill: none;"></path>
  <path d="M70.866150 14.173248L127.559052 70.866150" style="stroke:rgb(0.000000%,0.000000%,0.000000%); stroke-width: 1.000000;stroke-linecap: round;stroke-linejoin: round;stroke-miterlimit: 10.000000;fill: none;"></path>
  <path d="M127.559052 70.866150L70.866150 127.559052" style="stroke:rgb(0.000000%,0.000000%,0.000000%); stroke-width: 1.000000;stroke-linecap: round;stroke-linejoin: round;stroke-miterlimit: 10.000000;fill: none;"></path>
  <path d="M127.559052 70.866150L127.559052 127.559052" style="stroke:rgb(0.000000%,0.000000%,0.000000%); stroke-width: 1.000000;stroke-linecap: round;stroke-linejoin: round;stroke-miterlimit: 10.000000;fill: none;"></path>
  <path d="M127.559052 70.866150L184.251953 127.559052" style="stroke:rgb(0.000000%,0.000000%,0.000000%); stroke-width: 1.000000;stroke-linecap: round;stroke-linejoin: round;stroke-miterlimit: 10.000000;fill: none;"></path>
  <path d="M14.173248 70.866150L14.173248 127.559052L14.173248 184.251953" style="stroke:rgb(0.000000%,0.000000%,0.000000%); stroke-width: 1.000000;stroke-linecap: round;stroke-linejoin: round;stroke-miterlimit: 10.000000;fill: none;"></path>
  <path d="M70.866150 127.559052L70.866150 184.251953L70.866150 240.944855" style="stroke:rgb(0.000000%,0.000000%,0.000000%); stroke-width: 1.000000;stroke-linecap: round;stroke-linejoin: round;stroke-miterlimit: 10.000000;fill: none;"></path>
  <path d="M184.251953 127.559052L184.251953 184.251953L184.251953 240.944855" style="stroke:rgb(0.000000%,0.000000%,0.000000%); stroke-width: 1.000000;stroke-linecap: round;stroke-linejoin: round;stroke-miterlimit: 10.000000;fill: none;"></path>
  <path d="M85.039398 14.173248C85.039398 10.414093,83.545837 6.809387,80.887939 4.151459C78.230011 1.493561,74.625305 -0.000000,70.866150 -0.000000C67.106995 -0.000000,63.502289 1.493561,60.844360 4.151459C58.186462 6.809387,56.692902 10.414093,56.692902 14.173248C56.692902 17.932404,58.186462 21.537109,60.844360 24.195038C63.502289 26.852936,67.106995 28.346497,70.866150 28.346497C74.625305 28.346497,78.230011 26.852936,80.887939 24.195038C83.545837 21.537109,85.039398 17.932404,85.039398 14.173248Z" style="fill: rgb(100.000000%,100.000000%,100.000000%);stroke: none;"></path>
  <path d="M85.039398 14.173248C85.039398 10.414093,83.545837 6.809387,80.887939 4.151459C78.230011 1.493561,74.625305 -0.000000,70.866150 -0.000000C67.106995 -0.000000,63.502289 1.493561,60.844360 4.151459C58.186462 6.809387,56.692902 10.414093,56.692902 14.173248C56.692902 17.932404,58.186462 21.537109,60.844360 24.195038C63.502289 26.852936,67.106995 28.346497,70.866150 28.346497C74.625305 28.346497,78.230011 26.852936,80.887939 24.195038C83.545837 21.537109,85.039398 17.932404,85.039398 14.173248Z" style="fill: rgb(100.000000%,100.000000%,100.000000%);stroke: none;"></path>
  <path d="M28.346497 70.866150C28.346497 67.106995,26.852936 63.502289,24.195038 60.844360C21.537109 58.186462,17.932404 56.692902,14.173248 56.692902C10.414093 56.692902,6.809387 58.186462,4.151459 60.844360C1.493561 63.502289,0.000000 67.106995,0.000000 70.866150C0.000000 74.625305,1.493561 78.230011,4.151459 80.887939C6.809387 83.545837,10.414093 85.039398,14.173248 85.039398C17.932404 85.039398,21.537109 83.545837,24.195038 80.887939C26.852936 78.230011,28.346497 74.625305,28.346497 70.866150Z" style="fill: rgb(100.000000%,100.000000%,100.000000%);stroke: none;"></path>
  <path d="M28.346497 70.866150C28.346497 67.106995,26.852936 63.502289,24.195038 60.844360C21.537109 58.186462,17.932404 56.692902,14.173248 56.692902C10.414093 56.692902,6.809387 58.186462,4.151459 60.844360C1.493561 63.502289,0.000000 67.106995,0.000000 70.866150C0.000000 74.625305,1.493561 78.230011,4.151459 80.887939C6.809387 83.545837,10.414093 85.039398,14.173248 85.039398C17.932404 85.039398,21.537109 83.545837,24.195038 80.887939C26.852936 78.230011,28.346497 74.625305,28.346497 70.866150Z" style="fill: rgb(100.000000%,100.000000%,100.000000%);stroke: none;"></path>
  <path d="M85.039398 70.866150C85.039398 67.106995,83.545837 63.502289,80.887939 60.844360C78.230011 58.186462,74.625305 56.692902,70.866150 56.692902C67.106995 56.692902,63.502289 58.186462,60.844360 60.844360C58.186462 63.502289,56.692902 67.106995,56.692902 70.866150C56.692902 74.625305,58.186462 78.230011,60.844360 80.887939C63.502289 83.545837,67.106995 85.039398,70.866150 85.039398C74.625305 85.039398,78.230011 83.545837,80.887939 80.887939C83.545837 78.230011,85.039398 74.625305,85.039398 70.866150Z" style="fill: rgb(100.000000%,100.000000%,100.000000%);stroke: none;"></path>
  <path d="M85.039398 70.866150C85.039398 67.106995,83.545837 63.502289,80.887939 60.844360C78.230011 58.186462,74.625305 56.692902,70.866150 56.692902C67.106995 56.692902,63.502289 58.186462,60.844360 60.844360C58.186462 63.502289,56.692902 67.106995,56.692902 70.866150C56.692902 74.625305,58.186462 78.230011,60.844360 80.887939C63.502289 83.545837,67.106995 85.039398,70.866150 85.039398C74.625305 85.039398,78.230011 83.545837,80.887939 80.887939C83.545837 78.230011,85.039398 74.625305,85.039398 70.866150Z" style="fill: rgb(100.000000%,100.000000%,100.000000%);stroke: none;"></path>
  <path d="M141.732300 70.866150C141.732300 67.106995,140.238739 63.502289,137.580841 60.844360C134.922913 58.186462,131.318207 56.692902,127.559052 56.692902C123.799896 56.692902,120.195190 58.186462,117.537262 60.844360C114.879364 63.502289,113.385803 67.106995,113.385803 70.866150C113.385803 74.625305,114.879364 78.230011,117.537262 80.887939C120.195190 83.545837,123.799896 85.039398,127.559052 85.039398C131.318207 85.039398,134.922913 83.545837,137.580841 80.887939C140.238739 78.230011,141.732300 74.625305,141.732300 70.866150Z" style="fill: rgb(100.000000%,100.000000%,100.000000%);stroke: none;"></path>
  <path d="M141.732300 70.866150C141.732300 67.106995,140.238739 63.502289,137.580841 60.844360C134.922913 58.186462,131.318207 56.692902,127.559052 56.692902C123.799896 56.692902,120.195190 58.186462,117.537262 60.844360C114.879364 63.502289,113.385803 67.106995,113.385803 70.866150C113.385803 74.625305,114.879364 78.230011,117.537262 80.887939C120.195190 83.545837,123.799896 85.039398,127.559052 85.039398C131.318207 85.039398,134.922913 83.545837,137.580841 80.887939C140.238739 78.230011,141.732300 74.625305,141.732300 70.866150Z" style="fill: rgb(100.000000%,100.000000%,100.000000%);stroke: none;"></path>
  <path d="M85.039398 127.559052C85.039398 123.799896,83.545837 120.195190,80.887939 117.537262C78.230011 114.879364,74.625305 113.385803,70.866150 113.385803C67.106995 113.385803,63.502289 114.879364,60.844360 117.537262C58.186462 120.195190,56.692902 123.799896,56.692902 127.559052C56.692902 131.318207,58.186462 134.922913,60.844360 137.580841C63.502289 140.238739,67.106995 141.732300,70.866150 141.732300C74.625305 141.732300,78.230011 140.238739,80.887939 137.580841C83.545837 134.922913,85.039398 131.318207,85.039398 127.559052Z" style="fill: rgb(100.000000%,100.000000%,100.000000%);stroke: none;"></path>
  <path d="M85.039398 127.559052C85.039398 123.799896,83.545837 120.195190,80.887939 117.537262C78.230011 114.879364,74.625305 113.385803,70.866150 113.385803C67.106995 113.385803,63.502289 114.879364,60.844360 117.537262C58.186462 120.195190,56.692902 123.799896,56.692902 127.559052C56.692902 131.318207,58.186462 134.922913,60.844360 137.580841C63.502289 140.238739,67.106995 141.732300,70.866150 141.732300C74.625305 141.732300,78.230011 140.238739,80.887939 137.580841C83.545837 134.922913,85.039398 131.318207,85.039398 127.559052Z" style="fill: rgb(100.000000%,100.000000%,100.000000%);stroke: none;"></path>
  <path d="M141.732300 127.559052C141.732300 123.799896,140.238739 120.195190,137.580841 117.537262C134.922913 114.879364,131.318207 113.385803,127.559052 113.385803C123.799896 113.385803,120.195190 114.879364,117.537262 117.537262C114.879364 120.195190,113.385803 123.799896,113.385803 127.559052C113.385803 131.318207,114.879364 134.922913,117.537262 137.580841C120.195190 140.238739,123.799896 141.732300,127.559052 141.732300C131.318207 141.732300,134.922913 140.238739,137.580841 137.580841C140.238739 134.922913,141.732300 131.318207,141.732300 127.559052Z" style="fill: rgb(100.000000%,100.000000%,100.000000%);stroke: none;"></path>
  <path d="M141.732300 127.559052C141.732300 123.799896,140.238739 120.195190,137.580841 117.537262C134.922913 114.879364,131.318207 113.385803,127.559052 113.385803C123.799896 113.385803,120.195190 114.879364,117.537262 117.537262C114.879364 120.195190,113.385803 123.799896,113.385803 127.559052C113.385803 131.318207,114.879364 134.922913,117.537262 137.580841C120.195190 140.238739,123.799896 141.732300,127.559052 141.732300C131.318207 141.732300,134.922913 140.238739,137.580841 137.580841C140.238739 134.922913,141.732300 131.318207,141.732300 127.559052Z" style="fill: rgb(100.000000%,100.000000%,100.000000%);stroke: none;"></path>
  <path d="M198.425201 127.559052C198.425201 123.799896,196.931641 120.195190,194.273743 117.537262C191.615814 114.879364,188.011108 113.385803,184.251953 113.385803C180.492798 113.385803,176.888092 114.879364,174.230164 117.537262C171.572266 120.195190,170.078705 123.799896,170.078705 127.559052C170.078705 131.318207,171.572266 134.922913,174.230164 137.580841C176.888092 140.238739,180.492798 141.732300,184.251953 141.732300C188.011108 141.732300,191.615814 140.238739,194.273743 137.580841C196.931641 134.922913,198.425201 131.318207,198.425201 127.559052Z" style="fill: rgb(100.000000%,100.000000%,100.000000%);stroke: none;"></path>
  <path d="M198.425201 127.559052C198.425201 123.799896,196.931641 120.195190,194.273743 117.537262C191.615814 114.879364,188.011108 113.385803,184.251953 113.385803C180.492798 113.385803,176.888092 114.879364,174.230164 117.537262C171.572266 120.195190,170.078705 123.799896,170.078705 127.559052C170.078705 131.318207,171.572266 134.922913,174.230164 137.580841C176.888092 140.238739,180.492798 141.732300,184.251953 141.732300C188.011108 141.732300,191.615814 140.238739,194.273743 137.580841C196.931641 134.922913,198.425201 131.318207,198.425201 127.559052Z" style="fill: rgb(100.000000%,100.000000%,100.000000%);stroke: none;"></path>
  <path d="M28.346497 127.559052C28.346497 123.799896,26.852936 120.195190,24.195038 117.537262C21.537109 114.879364,17.932404 113.385803,14.173248 113.385803C10.414093 113.385803,6.809387 114.879364,4.151459 117.537262C1.493561 120.195190,0.000000 123.799896,0.000000 127.559052C0.000000 131.318207,1.493561 134.922913,4.151459 137.580841C6.809387 140.238739,10.414093 141.732300,14.173248 141.732300C17.932404 141.732300,21.537109 140.238739,24.195038 137.580841C26.852936 134.922913,28.346497 131.318207,28.346497 127.559052Z" style="fill: rgb(100.000000%,100.000000%,100.000000%);stroke: none;"></path>
  <path d="M28.346497 127.559052C28.346497 123.799896,26.852936 120.195190,24.195038 117.537262C21.537109 114.879364,17.932404 113.385803,14.173248 113.385803C10.414093 113.385803,6.809387 114.879364,4.151459 117.537262C1.493561 120.195190,0.000000 123.799896,0.000000 127.559052C0.000000 131.318207,1.493561 134.922913,4.151459 137.580841C6.809387 140.238739,10.414093 141.732300,14.173248 141.732300C17.932404 141.732300,21.537109 140.238739,24.195038 137.580841C26.852936 134.922913,28.346497 131.318207,28.346497 127.559052Z" style="fill: rgb(100.000000%,100.000000%,100.000000%);stroke: none;"></path>
  <path d="M85.039398 184.251953C85.039398 180.492798,83.545837 176.888092,80.887939 174.230164C78.230011 171.572266,74.625305 170.078705,70.866150 170.078705C67.106995 170.078705,63.502289 171.572266,60.844360 174.230164C58.186462 176.888092,56.692902 180.492798,56.692902 184.251953C56.692902 188.011108,58.186462 191.615814,60.844360 194.273743C63.502289 196.931641,67.106995 198.425201,70.866150 198.425201C74.625305 198.425201,78.230011 196.931641,80.887939 194.273743C83.545837 191.615814,85.039398 188.011108,85.039398 184.251953Z" style="fill: rgb(100.000000%,100.000000%,100.000000%);stroke: none;"></path>
  <path d="M85.039398 184.251953C85.039398 180.492798,83.545837 176.888092,80.887939 174.230164C78.230011 171.572266,74.625305 170.078705,70.866150 170.078705C67.106995 170.078705,63.502289 171.572266,60.844360 174.230164C58.186462 176.888092,56.692902 180.492798,56.692902 184.251953C56.692902 188.011108,58.186462 191.615814,60.844360 194.273743C63.502289 196.931641,67.106995 198.425201,70.866150 198.425201C74.625305 198.425201,78.230011 196.931641,80.887939 194.273743C83.545837 191.615814,85.039398 188.011108,85.039398 184.251953Z" style="fill: rgb(100.000000%,100.000000%,100.000000%);stroke: none;"></path>
  <path d="M198.425201 184.251953C198.425201 180.492798,196.931641 176.888092,194.273743 174.230164C191.615814 171.572266,188.011108 170.078705,184.251953 170.078705C180.492798 170.078705,176.888092 171.572266,174.230164 174.230164C171.572266 176.888092,170.078705 180.492798,170.078705 184.251953C170.078705 188.011108,171.572266 191.615814,174.230164 194.273743C176.888092 196.931641,180.492798 198.425201,184.251953 198.425201C188.011108 198.425201,191.615814 196.931641,194.273743 194.273743C196.931641 191.615814,198.425201 188.011108,198.425201 184.251953Z" style="fill: rgb(100.000000%,100.000000%,100.000000%);stroke: none;"></path>
  <path d="M198.425201 184.251953C198.425201 180.492798,196.931641 176.888092,194.273743 174.230164C191.615814 171.572266,188.011108 170.078705,184.251953 170.078705C180.492798 170.078705,176.888092 171.572266,174.230164 174.230164C171.572266 176.888092,170.078705 180.492798,170.078705 184.251953C170.078705 188.011108,171.572266 191.615814,174.230164 194.273743C176.888092 196.931641,180.492798 198.425201,184.251953 198.425201C188.011108 198.425201,191.615814 196.931641,194.273743 194.273743C196.931641 191.615814,198.425201 188.011108,198.425201 184.251953Z" style="fill: rgb(100.000000%,100.000000%,100.000000%);stroke: none;"></path>
  <path d="M28.346497 184.251953C28.346497 180.492798,26.852936 176.888092,24.195038 174.230164C21.537109 171.572266,17.932404 170.078705,14.173248 170.078705C10.414093 170.078705,6.809387 171.572266,4.151459 174.230164C1.493561 176.888092,0.000000 180.492798,0.000000 184.251953C0.000000 188.011108,1.493561 191.615814,4.151459 194.273743C6.809387 196.931641,10.414093 198.425201,14.173248 198.425201C17.932404 198.425201,21.537109 196.931641,24.195038 194.273743C26.852936 191.615814,28.346497 188.011108,28.346497 184.251953Z" style="fill: rgb(100.000000%,100.000000%,100.000000%);stroke: none;"></path>
  <path d="M28.346497 184.251953C28.346497 180.492798,26.852936 176.888092,24.195038 174.230164C21.537109 171.572266,17.932404 170.078705,14.173248 170.078705C10.414093 170.078705,6.809387 171.572266,4.151459 174.230164C1.493561 176.888092,0.000000 180.492798,0.000000 184.251953C0.000000 188.011108,1.493561 191.615814,4.151459 194.273743C6.809387 196.931641,10.414093 198.425201,14.173248 198.425201C17.932404 198.425201,21.537109 196.931641,24.195038 194.273743C26.852936 191.615814,28.346497 188.011108,28.346497 184.251953Z" style="fill: rgb(100.000000%,100.000000%,100.000000%);stroke: none;"></path>
  <path d="M85.039398 240.944855C85.039398 237.185699,83.545837 233.580994,80.887939 230.923065C78.230011 228.265167,74.625305 226.771606,70.866150 226.771606C67.106995 226.771606,63.502289 228.265167,60.844360 230.923065C58.186462 233.580994,56.692902 237.185699,56.692902 240.944855C56.692902 244.704010,58.186462 248.308716,60.844360 250.966644C63.502289 253.624542,67.106995 255.118103,70.866150 255.118103C74.625305 255.118103,78.230011 253.624542,80.887939 250.966644C83.545837 248.308716,85.039398 244.704010,85.039398 240.944855Z" style="fill: rgb(100.000000%,100.000000%,100.000000%);stroke: none;"></path>
  <path d="M85.039398 240.944855C85.039398 237.185699,83.545837 233.580994,80.887939 230.923065C78.230011 228.265167,74.625305 226.771606,70.866150 226.771606C67.106995 226.771606,63.502289 228.265167,60.844360 230.923065C58.186462 233.580994,56.692902 237.185699,56.692902 240.944855C56.692902 244.704010,58.186462 248.308716,60.844360 250.966644C63.502289 253.624542,67.106995 255.118103,70.866150 255.118103C74.625305 255.118103,78.230011 253.624542,80.887939 250.966644C83.545837 248.308716,85.039398 244.704010,85.039398 240.944855Z" style="fill: rgb(100.000000%,100.000000%,100.000000%);stroke: none;"></path>
  <path d="M198.425201 240.944855C198.425201 237.185699,196.931641 233.580994,194.273743 230.923065C191.615814 228.265167,188.011108 226.771606,184.251953 226.771606C180.492798 226.771606,176.888092 228.265167,174.230164 230.923065C171.572266 233.580994,170.078705 237.185699,170.078705 240.944855C170.078705 244.704010,171.572266 248.308716,174.230164 250.966644C176.888092 253.624542,180.492798 255.118103,184.251953 255.118103C188.011108 255.118103,191.615814 253.624542,194.273743 250.966644C196.931641 248.308716,198.425201 244.704010,198.425201 240.944855Z" style="fill: rgb(100.000000%,100.000000%,100.000000%);stroke: none;"></path>
  <path d="M198.425201 240.944855C198.425201 237.185699,196.931641 233.580994,194.273743 230.923065C191.615814 228.265167,188.011108 226.771606,184.251953 226.771606C180.492798 226.771606,176.888092 228.265167,174.230164 230.923065C171.572266 233.580994,170.078705 237.185699,170.078705 240.944855C170.078705 244.704010,171.572266 248.308716,174.230164 250.966644C176.888092 253.624542,180.492798 255.118103,184.251953 255.118103C188.011108 255.118103,191.615814 253.624542,194.273743 250.966644C196.931641 248.308716,198.425201 244.704010,198.425201 240.944855Z" style="fill: rgb(100.000000%,100.000000%,100.000000%);stroke: none;"></path>
  <g transform="matrix(2.000000,-0.000000,-0.000000,2.000000,64.182831 20.981049)" style="fill: rgb(0.000000%,0.000000%,0.000000%);">
    <use xlink:href="#GLYPHcmmi10_83"></use>
  </g>
  <g transform="matrix(2.000000,-0.000000,-0.000000,2.000000,7.489929 77.673950)" style="fill: rgb(0.000000%,0.000000%,0.000000%);">
    <use xlink:href="#GLYPHcmmi10_83"></use>
  </g>
  <g transform="matrix(2.000000,-0.000000,-0.000000,2.000000,64.224335 76.400970)" style="fill: rgb(0.000000%,0.000000%,0.000000%);">
    <use xlink:href="#GLYPHcmsy10_95"></use>
  </g>
  <g transform="matrix(2.000000,-0.000000,-0.000000,2.000000,120.875732 77.673950)" style="fill: rgb(0.000000%,0.000000%,0.000000%);">
    <use xlink:href="#GLYPHcmmi10_83"></use>
  </g>
  <g transform="matrix(2.000000,-0.000000,-0.000000,2.000000,64.182831 134.366852)" style="fill: rgb(0.000000%,0.000000%,0.000000%);">
    <use xlink:href="#GLYPHcmmi10_83"></use>
  </g>
  <g transform="matrix(2.000000,-0.000000,-0.000000,2.000000,120.917236 133.093872)" style="fill: rgb(0.000000%,0.000000%,0.000000%);">
    <use xlink:href="#GLYPHcmsy10_94"></use>
  </g>
  <g transform="matrix(2.000000,-0.000000,-0.000000,2.000000,177.568634 134.366852)" style="fill: rgb(0.000000%,0.000000%,0.000000%);">
    <use xlink:href="#GLYPHcmmi10_83"></use>
  </g>
  <g transform="matrix(2.000000,-0.000000,-0.000000,2.000000,6.340149 134.366852)" style="fill: rgb(0.000000%,0.000000%,0.000000%);">
    <use xlink:href="#GLYPHcmmi10_67"></use>
  </g>
  <g transform="matrix(2.000000,-0.000000,-0.000000,2.000000,63.033051 191.059753)" style="fill: rgb(0.000000%,0.000000%,0.000000%);">
    <use xlink:href="#GLYPHcmmi10_67"></use>
  </g>
  <g transform="matrix(2.000000,-0.000000,-0.000000,2.000000,176.418854 191.059753)" style="fill: rgb(0.000000%,0.000000%,0.000000%);">
    <use xlink:href="#GLYPHcmmi10_67"></use>
  </g>
  <g transform="matrix(2.000000,-0.000000,-0.000000,2.000000,8.479340 188.541473)" style="fill: rgb(0.000000%,0.000000%,0.000000%);">
    <use xlink:href="#GLYPHcmmi10_120"></use>
  </g>
  <g transform="matrix(2.000000,-0.000000,-0.000000,2.000000,65.624237 243.297180)" style="fill: rgb(0.000000%,0.000000%,0.000000%);">
    <use xlink:href="#GLYPHcmmi10_121"></use>
  </g>
  <g transform="matrix(2.000000,-0.000000,-0.000000,2.000000,179.180634 245.234375)" style="fill: rgb(0.000000%,0.000000%,0.000000%);">
    <use xlink:href="#GLYPHcmmi10_122"></use>
  </g>
</svg>
