<?xml version="1.0"?>
<!-- Created by MetaPost 2.10 on 2025.03.13:1242 -->
<svg version="1.1" xmlns="http://www.w3.org/2000/svg" xmlns:xlink="http://www.w3.org/1999/xlink" width="965.771881" height="147.801819" viewBox="0 0 965.771881 147.801819">
<!-- Original BoundingBox: -86.035629 -76.529907 879.736252 71.271912 -->
  <defs>
    <g transform="scale(0.009963,0.009963)" id="GLYPHcmmi10_97">
      <path style="fill-rule: evenodd;" d="M373.000000 -378.000000C355.000000 -415.000000,326.000000 -442.000000,281.000000 -442.000000C164.000000 -442.000000,40.000000 -295.000000,40.000000 -149.000000C40.000000 -55.000000,95.000000 11.000000,173.000000 11.000000C193.000000 11.000000,243.000000 7.000000,303.000000 -64.000000C311.000000 -22.000000,346.000000 11.000000,394.000000 11.000000C429.000000 11.000000,452.000000 -12.000000,468.000000 -44.000000C485.000000 -80.000000,498.000000 -141.000000,498.000000 -143.000000C498.000000 -153.000000,489.000000 -153.000000,486.000000 -153.000000C476.000000 -153.000000,475.000000 -149.000000,472.000000 -135.000000C455.000000 -70.000000,437.000000 -11.000000,396.000000 -11.000000C369.000000 -11.000000,366.000000 -37.000000,366.000000 -57.000000C366.000000 -79.000000,368.000000 -87.000000,379.000000 -131.000000C390.000000 -173.000000,392.000000 -183.000000,401.000000 -221.000000L437.000000 -361.000000C444.000000 -389.000000,444.000000 -391.000000,444.000000 -395.000000C444.000000 -412.000000,432.000000 -422.000000,415.000000 -422.000000C391.000000 -422.000000,376.000000 -400.000000,373.000000 -378.000000M308.000000 -119.000000C303.000000 -101.000000,303.000000 -99.000000,288.000000 -82.000000C244.000000 -27.000000,203.000000 -11.000000,175.000000 -11.000000C125.000000 -11.000000,111.000000 -66.000000,111.000000 -105.000000C111.000000 -155.000000,143.000000 -278.000000,166.000000 -324.000000C197.000000 -383.000000,242.000000 -420.000000,282.000000 -420.000000C347.000000 -420.000000,361.000000 -338.000000,361.000000 -332.000000C361.000000 -326.000000,359.000000 -320.000000,358.000000 -315.000000"></path>
    </g>
    <g transform="scale(0.009963,0.009963)" id="GLYPHcmmi10_98">
      <path style="fill-rule: evenodd;" d="M239.000000 -683.000000C239.000000 -684.000000,239.000000 -694.000000,226.000000 -694.000000C203.000000 -694.000000,130.000000 -686.000000,104.000000 -684.000000C96.000000 -683.000000,85.000000 -682.000000,85.000000 -664.000000C85.000000 -652.000000,94.000000 -652.000000,109.000000 -652.000000C157.000000 -652.000000,159.000000 -645.000000,159.000000 -635.000000C159.000000 -628.000000,150.000000 -594.000000,145.000000 -573.000000L63.000000 -247.000000C51.000000 -197.000000,47.000000 -181.000000,47.000000 -146.000000C47.000000 -51.000000,100.000000 11.000000,174.000000 11.000000C292.000000 11.000000,415.000000 -138.000000,415.000000 -282.000000C415.000000 -373.000000,362.000000 -442.000000,282.000000 -442.000000C236.000000 -442.000000,195.000000 -413.000000,165.000000 -382.000000M145.000000 -305.000000C151.000000 -327.000000,151.000000 -329.000000,160.000000 -340.000000C209.000000 -405.000000,254.000000 -420.000000,280.000000 -420.000000C316.000000 -420.000000,343.000000 -390.000000,343.000000 -326.000000C343.000000 -267.000000,310.000000 -152.000000,292.000000 -114.000000C259.000000 -47.000000,213.000000 -11.000000,174.000000 -11.000000C140.000000 -11.000000,107.000000 -38.000000,107.000000 -112.000000C107.000000 -131.000000,107.000000 -150.000000,123.000000 -213.000000"></path>
    </g>
    <g transform="scale(0.009963,0.009963)" id="GLYPHcmmi10_113">
      <path style="fill-rule: evenodd;" d="M452.000000 -431.000000C452.000000 -435.000000,449.000000 -441.000000,442.000000 -441.000000C431.000000 -441.000000,391.000000 -401.000000,374.000000 -372.000000C352.000000 -426.000000,313.000000 -442.000000,281.000000 -442.000000C163.000000 -442.000000,40.000000 -294.000000,40.000000 -149.000000C40.000000 -51.000000,99.000000 11.000000,172.000000 11.000000C215.000000 11.000000,254.000000 -13.000000,290.000000 -49.000000C281.000000 -14.000000,248.000000 121.000000,245.000000 130.000000C237.000000 158.000000,229.000000 162.000000,173.000000 163.000000C160.000000 163.000000,150.000000 163.000000,150.000000 183.000000C150.000000 184.000000,150.000000 194.000000,163.000000 194.000000C195.000000 194.000000,230.000000 191.000000,263.000000 191.000000C297.000000 191.000000,333.000000 194.000000,366.000000 194.000000C371.000000 194.000000,384.000000 194.000000,384.000000 174.000000C384.000000 163.000000,374.000000 163.000000,358.000000 163.000000C310.000000 163.000000,310.000000 156.000000,310.000000 147.000000C310.000000 140.000000,312.000000 134.000000,314.000000 125.000000M175.000000 -11.000000C115.000000 -11.000000,111.000000 -88.000000,111.000000 -105.000000C111.000000 -153.000000,140.000000 -262.000000,157.000000 -304.000000C188.000000 -378.000000,240.000000 -420.000000,281.000000 -420.000000C346.000000 -420.000000,360.000000 -339.000000,360.000000 -332.000000C360.000000 -326.000000,305.000000 -107.000000,302.000000 -103.000000C287.000000 -75.000000,231.000000 -11.000000,175.000000 -11.000000"></path>
    </g>
    <g transform="scale(0.006974,0.006974)" id="GLYPHcmr7_48">
      <path style="fill-rule: evenodd;" d="M516.000000 -319.000000C516.000000 -429.000000,503.000000 -508.000000,457.000000 -578.000000C426.000000 -624.000000,364.000000 -664.000000,284.000000 -664.000000C52.000000 -664.000000,52.000000 -391.000000,52.000000 -319.000000C52.000000 -247.000000,52.000000 20.000000,284.000000 20.000000C516.000000 20.000000,516.000000 -247.000000,516.000000 -319.000000M284.000000 -8.000000C238.000000 -8.000000,177.000000 -35.000000,157.000000 -117.000000C143.000000 -176.000000,143.000000 -258.000000,143.000000 -332.000000C143.000000 -405.000000,143.000000 -481.000000,158.000000 -536.000000C179.000000 -615.000000,243.000000 -636.000000,284.000000 -636.000000C338.000000 -636.000000,390.000000 -603.000000,408.000000 -545.000000C424.000000 -491.000000,425.000000 -419.000000,425.000000 -332.000000C425.000000 -258.000000,425.000000 -184.000000,412.000000 -121.000000C392.000000 -30.000000,324.000000 -8.000000,284.000000 -8.000000"></path>
    </g>
    <g transform="scale(0.006974,0.006974)" id="GLYPHcmr7_49">
      <path style="fill-rule: evenodd;" d="M335.000000 -636.000000C335.000000 -663.000000,333.000000 -664.000000,305.000000 -664.000000C241.000000 -601.000000,150.000000 -600.000000,109.000000 -600.000000L109.000000 -564.000000C133.000000 -564.000000,199.000000 -564.000000,254.000000 -592.000000L254.000000 -82.000000C254.000000 -49.000000,254.000000 -36.000000,154.000000 -36.000000L116.000000 -36.000000L116.000000 -0.000000C134.000000 -1.000000,257.000000 -4.000000,294.000000 -4.000000C325.000000 -4.000000,451.000000 -1.000000,473.000000 -0.000000L473.000000 -36.000000L435.000000 -36.000000C335.000000 -36.000000,335.000000 -49.000000,335.000000 -82.000000"></path>
    </g>
    <g transform="scale(0.006974,0.006974)" id="GLYPHcmr7_50">
      <path style="fill-rule: evenodd;" d="M505.000000 -182.000000L471.000000 -182.000000C468.000000 -160.000000,458.000000 -101.000000,445.000000 -91.000000C437.000000 -85.000000,360.000000 -85.000000,346.000000 -85.000000L162.000000 -85.000000C267.000000 -178.000000,302.000000 -206.000000,362.000000 -253.000000C436.000000 -312.000000,505.000000 -374.000000,505.000000 -469.000000C505.000000 -590.000000,399.000000 -664.000000,271.000000 -664.000000C147.000000 -664.000000,63.000000 -577.000000,63.000000 -485.000000C63.000000 -434.000000,106.000000 -429.000000,116.000000 -429.000000C140.000000 -429.000000,169.000000 -446.000000,169.000000 -482.000000C169.000000 -500.000000,162.000000 -535.000000,110.000000 -535.000000C141.000000 -606.000000,209.000000 -628.000000,256.000000 -628.000000C356.000000 -628.000000,408.000000 -550.000000,408.000000 -469.000000C408.000000 -382.000000,346.000000 -313.000000,314.000000 -277.000000L73.000000 -39.000000C63.000000 -30.000000,63.000000 -28.000000,63.000000 -0.000000L475.000000 -0.000000"></path>
    </g>
    <g transform="scale(0.006974,0.006974)" id="GLYPHcmr7_51">
      <path style="fill-rule: evenodd;" d="M273.000000 -334.000000C351.000000 -334.000000,407.000000 -280.000000,407.000000 -173.000000C407.000000 -49.000000,335.000000 -12.000000,277.000000 -12.000000C237.000000 -12.000000,149.000000 -23.000000,107.000000 -82.000000C154.000000 -84.000000,165.000000 -117.000000,165.000000 -138.000000C165.000000 -170.000000,141.000000 -193.000000,110.000000 -193.000000C82.000000 -193.000000,54.000000 -176.000000,54.000000 -135.000000C54.000000 -41.000000,158.000000 20.000000,279.000000 20.000000C418.000000 20.000000,514.000000 -73.000000,514.000000 -173.000000C514.000000 -251.000000,450.000000 -329.000000,340.000000 -352.000000C445.000000 -390.000000,483.000000 -465.000000,483.000000 -526.000000C483.000000 -605.000000,392.000000 -664.000000,281.000000 -664.000000C170.000000 -664.000000,85.000000 -610.000000,85.000000 -530.000000C85.000000 -496.000000,107.000000 -477.000000,137.000000 -477.000000C168.000000 -477.000000,188.000000 -500.000000,188.000000 -528.000000C188.000000 -557.000000,168.000000 -578.000000,137.000000 -580.000000C172.000000 -624.000000,241.000000 -635.000000,278.000000 -635.000000C323.000000 -635.000000,386.000000 -613.000000,386.000000 -526.000000C386.000000 -484.000000,372.000000 -438.000000,346.000000 -407.000000C313.000000 -369.000000,285.000000 -367.000000,235.000000 -364.000000C210.000000 -362.000000,208.000000 -362.000000,203.000000 -361.000000C201.000000 -361.000000,193.000000 -359.000000,193.000000 -348.000000C193.000000 -334.000000,202.000000 -334.000000,219.000000 -334.000000"></path>
    </g>
    <g transform="scale(0.006974,0.006974)" id="GLYPHcmr7_52">
      <path style="fill-rule: evenodd;" d="M529.000000 -164.000000L529.000000 -200.000000L418.000000 -200.000000L418.000000 -646.000000C418.000000 -667.000000,418.000000 -674.000000,396.000000 -674.000000C384.000000 -674.000000,380.000000 -674.000000,370.000000 -660.000000L39.000000 -200.000000L39.000000 -164.000000L333.000000 -164.000000L333.000000 -82.000000C333.000000 -48.000000,333.000000 -36.000000,252.000000 -36.000000L225.000000 -36.000000L225.000000 -0.000000C275.000000 -2.000000,339.000000 -4.000000,375.000000 -4.000000C412.000000 -4.000000,476.000000 -2.000000,526.000000 -0.000000L526.000000 -36.000000L499.000000 -36.000000C418.000000 -36.000000,418.000000 -48.000000,418.000000 -82.000000L418.000000 -164.000000M340.000000 -566.000000L340.000000 -200.000000L76.000000 -200.000000"></path>
    </g>
    <g transform="scale(0.006974,0.006974)" id="GLYPHcmr7_53">
      <path style="fill-rule: evenodd;" d="M155.000000 -558.000000C206.000000 -545.000000,236.000000 -545.000000,252.000000 -545.000000C384.000000 -545.000000,462.000000 -635.000000,462.000000 -650.000000C462.000000 -661.000000,455.000000 -664.000000,450.000000 -664.000000C448.000000 -664.000000,446.000000 -664.000000,442.000000 -661.000000C418.000000 -652.000000,365.000000 -632.000000,291.000000 -632.000000C263.000000 -632.000000,210.000000 -634.000000,145.000000 -659.000000C135.000000 -664.000000,133.000000 -664.000000,132.000000 -664.000000C119.000000 -664.000000,119.000000 -653.000000,119.000000 -637.000000L119.000000 -342.000000C119.000000 -325.000000,119.000000 -313.000000,135.000000 -313.000000C144.000000 -313.000000,145.000000 -315.000000,155.000000 -327.000000C198.000000 -382.000000,259.000000 -390.000000,294.000000 -390.000000C354.000000 -390.000000,381.000000 -342.000000,386.000000 -334.000000C404.000000 -301.000000,410.000000 -263.000000,410.000000 -205.000000C410.000000 -175.000000,410.000000 -116.000000,380.000000 -72.000000C355.000000 -36.000000,312.000000 -12.000000,263.000000 -12.000000C198.000000 -12.000000,131.000000 -48.000000,106.000000 -114.000000C144.000000 -111.000000,163.000000 -136.000000,163.000000 -163.000000C163.000000 -206.000000,126.000000 -214.000000,113.000000 -214.000000C111.000000 -214.000000,63.000000 -214.000000,63.000000 -160.000000C63.000000 -70.000000,145.000000 20.000000,265.000000 20.000000C393.000000 20.000000,505.000000 -75.000000,505.000000 -201.000000C505.000000 -314.000000,419.000000 -418.000000,295.000000 -418.000000C251.000000 -418.000000,199.000000 -407.000000,155.000000 -369.000000"></path>
    </g>
  </defs>
  <path d="M114.382095 71.271912C114.382095 63.753632,111.395004 56.544189,106.079178 51.228363C100.763351 45.912537,93.553909 42.925446,86.035629 42.925446C78.517349 42.925446,71.307907 45.912537,65.992081 51.228363C60.676254 56.544189,57.689163 63.753632,57.689163 71.271912C57.689163 78.790192,60.676254 85.999634,65.992081 91.315460C71.307907 96.631287,78.517349 99.618378,86.035629 99.618378C93.553909 99.618378,100.763351 96.631287,106.079178 91.315460C111.395004 85.999634,114.382095 78.790192,114.382095 71.271912Z" style="stroke:rgb(0.000000%,0.000000%,0.000000%); stroke-width: 1.992523;stroke-linecap: round;stroke-linejoin: round;stroke-miterlimit: 10.000000;fill: none;"></path>
  <path d="M284.460800 71.271912C284.460800 63.753632,281.473709 56.544189,276.157883 51.228363C270.842056 45.912537,263.632614 42.925446,256.114334 42.925446C248.596054 42.925446,241.386612 45.912537,236.070786 51.228363C230.754959 56.544189,227.767868 63.753632,227.767868 71.271912C227.767868 78.790192,230.754959 85.999634,236.070786 91.315460C241.386612 96.631287,248.596054 99.618378,256.114334 99.618378C263.632614 99.618378,270.842056 96.631287,276.157883 91.315460C281.473709 85.999634,284.460800 78.790192,284.460800 71.271912Z" style="stroke:rgb(0.000000%,0.000000%,0.000000%); stroke-width: 1.992523;stroke-linecap: round;stroke-linejoin: round;stroke-miterlimit: 10.000000;fill: none;"></path>
  <path d="M454.539505 71.271912C454.539505 63.753632,451.552414 56.544189,446.236588 51.228363C440.920761 45.912537,433.711319 42.925446,426.193039 42.925446C418.674759 42.925446,411.465317 45.912537,406.149490 51.228363C400.833664 56.544189,397.846573 63.753632,397.846573 71.271912C397.846573 78.790192,400.833664 85.999634,406.149490 91.315460C411.465317 96.631287,418.674759 99.618378,426.193039 99.618378C433.711319 99.618378,440.920761 96.631287,446.236588 91.315460C451.552414 85.999634,454.539505 78.790192,454.539505 71.271912Z" style="stroke:rgb(0.000000%,0.000000%,0.000000%); stroke-width: 1.992523;stroke-linecap: round;stroke-linejoin: round;stroke-miterlimit: 10.000000;fill: none;"></path>
  <path d="M624.618210 71.271912C624.618210 63.753632,621.631119 56.544189,616.315292 51.228363C610.999466 45.912537,603.790024 42.925446,596.271744 42.925446C588.753464 42.925446,581.544022 45.912537,576.228195 51.228363C570.912369 56.544189,567.925278 63.753632,567.925278 71.271912C567.925278 78.790192,570.912369 85.999634,576.228195 91.315460C581.544022 96.631287,588.753464 99.618378,596.271744 99.618378C603.790024 99.618378,610.999466 96.631287,616.315292 91.315460C621.631119 85.999634,624.618210 78.790192,624.618210 71.271912Z" style="stroke:rgb(0.000000%,0.000000%,0.000000%); stroke-width: 1.992523;stroke-linecap: round;stroke-linejoin: round;stroke-miterlimit: 10.000000;fill: none;"></path>
  <path d="M794.696915 71.271912C794.696915 63.753632,791.709824 56.544189,786.393997 51.228363C781.078171 45.912537,773.868729 42.925446,766.350449 42.925446C758.832169 42.925446,751.622726 45.912537,746.306900 51.228363C740.991074 56.544189,738.003983 63.753632,738.003983 71.271912C738.003983 78.790192,740.991074 85.999634,746.306900 91.315460C751.622726 96.631287,758.832169 99.618378,766.350449 99.618378C773.868729 99.618378,781.078171 96.631287,786.393997 91.315460C791.709824 85.999634,794.696915 78.790192,794.696915 71.271912Z" style="stroke:rgb(0.000000%,0.000000%,0.000000%); stroke-width: 1.992523;stroke-linecap: round;stroke-linejoin: round;stroke-miterlimit: 10.000000;fill: none;"></path>
  <path d="M964.775620 71.271912C964.775620 63.753632,961.788528 56.544189,956.472702 51.228363C951.156876 45.912537,943.947433 42.925446,936.429153 42.925446C928.910873 42.925446,921.701431 45.912537,916.385605 51.228363C911.069778 56.544189,908.082687 63.753632,908.082687 71.271912C908.082687 78.790192,911.069778 85.999634,916.385605 91.315460C921.701431 96.631287,928.910873 99.618378,936.429153 99.618378C943.947433 99.618378,951.156876 96.631287,956.472702 91.315460C961.788528 85.999634,964.775620 78.790192,964.775620 71.271912Z" style="stroke:rgb(0.000000%,0.000000%,0.000000%); stroke-width: 1.992523;stroke-linecap: round;stroke-linejoin: round;stroke-miterlimit: 10.000000;fill: none;"></path>
  <g transform="matrix(2.000000,-0.000000,-0.000000,2.000000,77.118820 73.624237)" style="fill: rgb(0.000000%,0.000000%,0.000000%);">
    <use xlink:href="#GLYPHcmmi10_113"></use>
  </g>
  <g transform="matrix(2.000000,-0.000000,-0.000000,2.000000,86.013626 76.613037)" style="fill: rgb(0.000000%,0.000000%,0.000000%);">
    <use xlink:href="#GLYPHcmr7_48"></use>
  </g>
  <g transform="matrix(2.000000,-0.000000,-0.000000,2.000000,247.197525 73.624237)" style="fill: rgb(0.000000%,0.000000%,0.000000%);">
    <use xlink:href="#GLYPHcmmi10_113"></use>
  </g>
  <g transform="matrix(2.000000,-0.000000,-0.000000,2.000000,256.092331 76.613037)" style="fill: rgb(0.000000%,0.000000%,0.000000%);">
    <use xlink:href="#GLYPHcmr7_49"></use>
  </g>
  <g transform="matrix(2.000000,-0.000000,-0.000000,2.000000,417.276230 73.624237)" style="fill: rgb(0.000000%,0.000000%,0.000000%);">
    <use xlink:href="#GLYPHcmmi10_113"></use>
  </g>
  <g transform="matrix(2.000000,-0.000000,-0.000000,2.000000,426.171036 76.613037)" style="fill: rgb(0.000000%,0.000000%,0.000000%);">
    <use xlink:href="#GLYPHcmr7_50"></use>
  </g>
  <g transform="matrix(2.000000,-0.000000,-0.000000,2.000000,587.354935 73.624237)" style="fill: rgb(0.000000%,0.000000%,0.000000%);">
    <use xlink:href="#GLYPHcmmi10_113"></use>
  </g>
  <g transform="matrix(2.000000,-0.000000,-0.000000,2.000000,596.249741 76.613037)" style="fill: rgb(0.000000%,0.000000%,0.000000%);">
    <use xlink:href="#GLYPHcmr7_51"></use>
  </g>
  <g transform="matrix(2.000000,-0.000000,-0.000000,2.000000,757.433640 73.624237)" style="fill: rgb(0.000000%,0.000000%,0.000000%);">
    <use xlink:href="#GLYPHcmmi10_113"></use>
  </g>
  <g transform="matrix(2.000000,-0.000000,-0.000000,2.000000,766.328445 76.613037)" style="fill: rgb(0.000000%,0.000000%,0.000000%);">
    <use xlink:href="#GLYPHcmr7_52"></use>
  </g>
  <g transform="matrix(2.000000,-0.000000,-0.000000,2.000000,927.512344 73.624237)" style="fill: rgb(0.000000%,0.000000%,0.000000%);">
    <use xlink:href="#GLYPHcmmi10_113"></use>
  </g>
  <g transform="matrix(2.000000,-0.000000,-0.000000,2.000000,936.407150 76.613037)" style="fill: rgb(0.000000%,0.000000%,0.000000%);">
    <use xlink:href="#GLYPHcmr7_53"></use>
  </g>
  <path d="M284.461624 71.271912L397.847214 71.271912" style="stroke:rgb(0.000000%,0.000000%,0.000000%); stroke-width: 1.992523;stroke-linecap: round;stroke-linejoin: round;stroke-miterlimit: 10.000000;fill: none;"></path>
  <path d="M390.456161 74.333466L397.847214 71.271912L390.456161 68.210358Z" style="stroke:rgb(0.000000%,0.000000%,0.000000%); stroke-width: 1.992523;fill: rgb(0.000000%,0.000000%,0.000000%);"></path>
  <g transform="matrix(2.000000,-0.000000,-0.000000,2.000000,336.878860 65.271912)" style="fill: rgb(0.000000%,0.000000%,0.000000%);">
    <use xlink:href="#GLYPHcmmi10_98"></use>
  </g>
  <path d="M454.540329 71.271912L567.925919 71.271912" style="stroke:rgb(0.000000%,0.000000%,0.000000%); stroke-width: 1.992523;stroke-linecap: round;stroke-linejoin: round;stroke-miterlimit: 10.000000;fill: none;"></path>
  <path d="M560.534866 74.333466L567.925919 71.271912L560.534866 68.210358Z" style="stroke:rgb(0.000000%,0.000000%,0.000000%); stroke-width: 1.992523;fill: rgb(0.000000%,0.000000%,0.000000%);"></path>
  <g transform="matrix(2.000000,-0.000000,-0.000000,2.000000,505.967056 65.271912)" style="fill: rgb(0.000000%,0.000000%,0.000000%);">
    <use xlink:href="#GLYPHcmmi10_97"></use>
  </g>
  <path d="M624.619034 71.271912L738.004623 71.271912" style="stroke:rgb(0.000000%,0.000000%,0.000000%); stroke-width: 1.992523;stroke-linecap: round;stroke-linejoin: round;stroke-miterlimit: 10.000000;fill: none;"></path>
  <path d="M730.613571 74.333466L738.004623 71.271912L730.613571 68.210358Z" style="stroke:rgb(0.000000%,0.000000%,0.000000%); stroke-width: 1.992523;fill: rgb(0.000000%,0.000000%,0.000000%);"></path>
  <g transform="matrix(2.000000,-0.000000,-0.000000,2.000000,677.036270 65.271912)" style="fill: rgb(0.000000%,0.000000%,0.000000%);">
    <use xlink:href="#GLYPHcmmi10_98"></use>
  </g>
  <path d="M794.697739 71.271912L908.083328 71.271912" style="stroke:rgb(0.000000%,0.000000%,0.000000%); stroke-width: 1.992523;stroke-linecap: round;stroke-linejoin: round;stroke-miterlimit: 10.000000;fill: none;"></path>
  <path d="M900.692276 74.333466L908.083328 71.271912L900.692276 68.210358Z" style="stroke:rgb(0.000000%,0.000000%,0.000000%); stroke-width: 1.992523;fill: rgb(0.000000%,0.000000%,0.000000%);"></path>
  <g transform="matrix(2.000000,-0.000000,-0.000000,2.000000,846.124466 65.271912)" style="fill: rgb(0.000000%,0.000000%,0.000000%);">
    <use xlink:href="#GLYPHcmmi10_97"></use>
  </g>
  <path d="M0.996262 71.271912L57.689621 71.271912" style="stroke:rgb(0.000000%,0.000000%,0.000000%); stroke-width: 1.992523;stroke-linecap: round;stroke-linejoin: round;stroke-miterlimit: 10.000000;fill: none;"></path>
  <path d="M50.298477 74.333496L57.689621 71.271912L50.298477 68.210327Z" style="stroke:rgb(0.000000%,0.000000%,0.000000%); stroke-width: 1.992523;fill: rgb(0.000000%,0.000000%,0.000000%);"></path>
  <path d="M959.106400 71.271912C959.106400 65.257263,956.716721 59.489685,952.464066 55.237000C948.211380 50.984344,942.443802 48.594666,936.429153 48.594666C930.414505 48.594666,924.646927 50.984344,920.394241 55.237000C916.141586 59.489685,913.751907 65.257263,913.751907 71.271912C913.751907 77.286560,916.141586 83.054138,920.394241 87.306824C924.646927 91.559479,930.414505 93.949158,936.429153 93.949158C942.443802 93.949158,948.211380 91.559479,952.464066 87.306824C956.716721 83.054138,959.106400 77.286560,959.106400 71.271912Z" style="stroke:rgb(0.000000%,0.000000%,0.000000%); stroke-width: 1.992523;stroke-linecap: round;stroke-linejoin: round;stroke-miterlimit: 10.000000;fill: none;"></path>
  <path d="M67.044998 92.315643C58.491653 105.639465,64.821854 127.964813,86.035629 127.964813C107.249405 127.964813,113.579605 105.639465,105.026260 92.315643" style="stroke:rgb(0.000000%,0.000000%,0.000000%); stroke-width: 1.992523;stroke-linecap: round;stroke-linejoin: round;stroke-miterlimit: 10.000000;fill: none;"></path>
  <path d="M110.685471 97.970032C109.133286 95.777222,107.227524 93.845612,105.026260 92.315643C105.500900 94.954010,105.482590 97.667480,105.029526 100.315552Z" style="stroke:rgb(0.000000%,0.000000%,0.000000%); stroke-width: 1.992523;fill: rgb(0.000000%,0.000000%,0.000000%);"></path>
  <g transform="matrix(2.000000,-0.000000,-0.000000,2.000000,81.760025 147.801819)" style="fill: rgb(0.000000%,0.000000%,0.000000%);">
    <use xlink:href="#GLYPHcmmi10_98"></use>
  </g>
  <path d="M105.026260 50.228180C113.579605 36.904358,107.249405 14.579010,86.035629 14.579010C64.821854 14.579010,58.491653 36.904358,67.044998 50.228180" style="stroke:rgb(0.000000%,0.000000%,100.000000%); stroke-width: 1.992523;stroke-linecap: round;stroke-linejoin: round;stroke-miterlimit: 10.000000;fill: none;"></path>
  <path d="M61.385788 44.573792C62.937973 46.766602,64.843735 48.698212,67.044998 50.228180C66.570358 47.589813,66.588669 44.876343,67.041733 42.228271Z" style="stroke:rgb(0.000000%,0.000000%,100.000000%); stroke-width: 1.992523;fill: rgb(0.000000%,0.000000%,100.000000%);"></path>
  <g transform="matrix(2.000000,-0.000000,-0.000000,2.000000,80.769516 8.579010)" style="fill: rgb(0.000000%,0.000000%,100.000000%);">
    <use xlink:href="#GLYPHcmmi10_97"></use>
  </g>
  <path d="M114.382919 71.271912L227.768509 71.271912" style="stroke:rgb(0.000000%,0.000000%,100.000000%); stroke-width: 1.992523;stroke-linecap: round;stroke-linejoin: round;stroke-miterlimit: 10.000000;fill: none;"></path>
  <path d="M220.377457 74.333466L227.768509 71.271912L220.377457 68.210358Z" style="stroke:rgb(0.000000%,0.000000%,100.000000%); stroke-width: 1.992523;fill: rgb(0.000000%,0.000000%,100.000000%);"></path>
  <g transform="matrix(2.000000,-0.000000,-0.000000,2.000000,165.809647 65.271912)" style="fill: rgb(0.000000%,0.000000%,100.000000%);">
    <use xlink:href="#GLYPHcmmi10_97"></use>
  </g>
</svg>
