<?xml version="1.0"?>
<!-- Created by MetaPost 2.10 on 2025.03.13:1242 -->
<svg version="1.1" xmlns="http://www.w3.org/2000/svg" xmlns:xlink="http://www.w3.org/1999/xlink" width="686.903854" height="58.685455" viewBox="0 0 686.903854 58.685455">
<!-- Original BoundingBox: -86.035629 -29.342728 600.868225 29.342728 -->
  <defs>
    <g transform="scale(0.009963,0.009963)" id="GLYPHcmmi10_59">
      <path style="fill-rule: evenodd;" d="M203.000000 -1.000000C203.000000 -67.000000,178.000000 -106.000000,139.000000 -106.000000C106.000000 -106.000000,86.000000 -81.000000,86.000000 -53.000000C86.000000 -26.000000,106.000000 -0.000000,139.000000 -0.000000C151.000000 -0.000000,164.000000 -4.000000,174.000000 -13.000000C177.000000 -15.000000,178.000000 -16.000000,179.000000 -16.000000C180.000000 -16.000000,181.000000 -15.000000,181.000000 -1.000000C181.000000 73.000000,146.000000 133.000000,113.000000 166.000000C102.000000 177.000000,102.000000 179.000000,102.000000 182.000000C102.000000 189.000000,107.000000 193.000000,112.000000 193.000000C123.000000 193.000000,203.000000 116.000000,203.000000 -1.000000"></path>
    </g>
    <g transform="scale(0.009963,0.009963)" id="GLYPHcmmi10_97">
      <path style="fill-rule: evenodd;" d="M373.000000 -378.000000C355.000000 -415.000000,326.000000 -442.000000,281.000000 -442.000000C164.000000 -442.000000,40.000000 -295.000000,40.000000 -149.000000C40.000000 -55.000000,95.000000 11.000000,173.000000 11.000000C193.000000 11.000000,243.000000 7.000000,303.000000 -64.000000C311.000000 -22.000000,346.000000 11.000000,394.000000 11.000000C429.000000 11.000000,452.000000 -12.000000,468.000000 -44.000000C485.000000 -80.000000,498.000000 -141.000000,498.000000 -143.000000C498.000000 -153.000000,489.000000 -153.000000,486.000000 -153.000000C476.000000 -153.000000,475.000000 -149.000000,472.000000 -135.000000C455.000000 -70.000000,437.000000 -11.000000,396.000000 -11.000000C369.000000 -11.000000,366.000000 -37.000000,366.000000 -57.000000C366.000000 -79.000000,368.000000 -87.000000,379.000000 -131.000000C390.000000 -173.000000,392.000000 -183.000000,401.000000 -221.000000L437.000000 -361.000000C444.000000 -389.000000,444.000000 -391.000000,444.000000 -395.000000C444.000000 -412.000000,432.000000 -422.000000,415.000000 -422.000000C391.000000 -422.000000,376.000000 -400.000000,373.000000 -378.000000M308.000000 -119.000000C303.000000 -101.000000,303.000000 -99.000000,288.000000 -82.000000C244.000000 -27.000000,203.000000 -11.000000,175.000000 -11.000000C125.000000 -11.000000,111.000000 -66.000000,111.000000 -105.000000C111.000000 -155.000000,143.000000 -278.000000,166.000000 -324.000000C197.000000 -383.000000,242.000000 -420.000000,282.000000 -420.000000C347.000000 -420.000000,361.000000 -338.000000,361.000000 -332.000000C361.000000 -326.000000,359.000000 -320.000000,358.000000 -315.000000"></path>
    </g>
    <g transform="scale(0.009963,0.009963)" id="GLYPHcmmi10_98">
      <path style="fill-rule: evenodd;" d="M239.000000 -683.000000C239.000000 -684.000000,239.000000 -694.000000,226.000000 -694.000000C203.000000 -694.000000,130.000000 -686.000000,104.000000 -684.000000C96.000000 -683.000000,85.000000 -682.000000,85.000000 -664.000000C85.000000 -652.000000,94.000000 -652.000000,109.000000 -652.000000C157.000000 -652.000000,159.000000 -645.000000,159.000000 -635.000000C159.000000 -628.000000,150.000000 -594.000000,145.000000 -573.000000L63.000000 -247.000000C51.000000 -197.000000,47.000000 -181.000000,47.000000 -146.000000C47.000000 -51.000000,100.000000 11.000000,174.000000 11.000000C292.000000 11.000000,415.000000 -138.000000,415.000000 -282.000000C415.000000 -373.000000,362.000000 -442.000000,282.000000 -442.000000C236.000000 -442.000000,195.000000 -413.000000,165.000000 -382.000000M145.000000 -305.000000C151.000000 -327.000000,151.000000 -329.000000,160.000000 -340.000000C209.000000 -405.000000,254.000000 -420.000000,280.000000 -420.000000C316.000000 -420.000000,343.000000 -390.000000,343.000000 -326.000000C343.000000 -267.000000,310.000000 -152.000000,292.000000 -114.000000C259.000000 -47.000000,213.000000 -11.000000,174.000000 -11.000000C140.000000 -11.000000,107.000000 -38.000000,107.000000 -112.000000C107.000000 -131.000000,107.000000 -150.000000,123.000000 -213.000000"></path>
    </g>
    <g transform="scale(0.009963,0.009963)" id="GLYPHcmmi10_113">
      <path style="fill-rule: evenodd;" d="M452.000000 -431.000000C452.000000 -435.000000,449.000000 -441.000000,442.000000 -441.000000C431.000000 -441.000000,391.000000 -401.000000,374.000000 -372.000000C352.000000 -426.000000,313.000000 -442.000000,281.000000 -442.000000C163.000000 -442.000000,40.000000 -294.000000,40.000000 -149.000000C40.000000 -51.000000,99.000000 11.000000,172.000000 11.000000C215.000000 11.000000,254.000000 -13.000000,290.000000 -49.000000C281.000000 -14.000000,248.000000 121.000000,245.000000 130.000000C237.000000 158.000000,229.000000 162.000000,173.000000 163.000000C160.000000 163.000000,150.000000 163.000000,150.000000 183.000000C150.000000 184.000000,150.000000 194.000000,163.000000 194.000000C195.000000 194.000000,230.000000 191.000000,263.000000 191.000000C297.000000 191.000000,333.000000 194.000000,366.000000 194.000000C371.000000 194.000000,384.000000 194.000000,384.000000 174.000000C384.000000 163.000000,374.000000 163.000000,358.000000 163.000000C310.000000 163.000000,310.000000 156.000000,310.000000 147.000000C310.000000 140.000000,312.000000 134.000000,314.000000 125.000000M175.000000 -11.000000C115.000000 -11.000000,111.000000 -88.000000,111.000000 -105.000000C111.000000 -153.000000,140.000000 -262.000000,157.000000 -304.000000C188.000000 -378.000000,240.000000 -420.000000,281.000000 -420.000000C346.000000 -420.000000,360.000000 -339.000000,360.000000 -332.000000C360.000000 -326.000000,305.000000 -107.000000,302.000000 -103.000000C287.000000 -75.000000,231.000000 -11.000000,175.000000 -11.000000"></path>
    </g>
    <g transform="scale(0.006974,0.006974)" id="GLYPHcmr7_48">
      <path style="fill-rule: evenodd;" d="M516.000000 -319.000000C516.000000 -429.000000,503.000000 -508.000000,457.000000 -578.000000C426.000000 -624.000000,364.000000 -664.000000,284.000000 -664.000000C52.000000 -664.000000,52.000000 -391.000000,52.000000 -319.000000C52.000000 -247.000000,52.000000 20.000000,284.000000 20.000000C516.000000 20.000000,516.000000 -247.000000,516.000000 -319.000000M284.000000 -8.000000C238.000000 -8.000000,177.000000 -35.000000,157.000000 -117.000000C143.000000 -176.000000,143.000000 -258.000000,143.000000 -332.000000C143.000000 -405.000000,143.000000 -481.000000,158.000000 -536.000000C179.000000 -615.000000,243.000000 -636.000000,284.000000 -636.000000C338.000000 -636.000000,390.000000 -603.000000,408.000000 -545.000000C424.000000 -491.000000,425.000000 -419.000000,425.000000 -332.000000C425.000000 -258.000000,425.000000 -184.000000,412.000000 -121.000000C392.000000 -30.000000,324.000000 -8.000000,284.000000 -8.000000"></path>
    </g>
    <g transform="scale(0.006974,0.006974)" id="GLYPHcmr7_49">
      <path style="fill-rule: evenodd;" d="M335.000000 -636.000000C335.000000 -663.000000,333.000000 -664.000000,305.000000 -664.000000C241.000000 -601.000000,150.000000 -600.000000,109.000000 -600.000000L109.000000 -564.000000C133.000000 -564.000000,199.000000 -564.000000,254.000000 -592.000000L254.000000 -82.000000C254.000000 -49.000000,254.000000 -36.000000,154.000000 -36.000000L116.000000 -36.000000L116.000000 -0.000000C134.000000 -1.000000,257.000000 -4.000000,294.000000 -4.000000C325.000000 -4.000000,451.000000 -1.000000,473.000000 -0.000000L473.000000 -36.000000L435.000000 -36.000000C335.000000 -36.000000,335.000000 -49.000000,335.000000 -82.000000"></path>
    </g>
    <g transform="scale(0.006974,0.006974)" id="GLYPHcmr7_50">
      <path style="fill-rule: evenodd;" d="M505.000000 -182.000000L471.000000 -182.000000C468.000000 -160.000000,458.000000 -101.000000,445.000000 -91.000000C437.000000 -85.000000,360.000000 -85.000000,346.000000 -85.000000L162.000000 -85.000000C267.000000 -178.000000,302.000000 -206.000000,362.000000 -253.000000C436.000000 -312.000000,505.000000 -374.000000,505.000000 -469.000000C505.000000 -590.000000,399.000000 -664.000000,271.000000 -664.000000C147.000000 -664.000000,63.000000 -577.000000,63.000000 -485.000000C63.000000 -434.000000,106.000000 -429.000000,116.000000 -429.000000C140.000000 -429.000000,169.000000 -446.000000,169.000000 -482.000000C169.000000 -500.000000,162.000000 -535.000000,110.000000 -535.000000C141.000000 -606.000000,209.000000 -628.000000,256.000000 -628.000000C356.000000 -628.000000,408.000000 -550.000000,408.000000 -469.000000C408.000000 -382.000000,346.000000 -313.000000,314.000000 -277.000000L73.000000 -39.000000C63.000000 -30.000000,63.000000 -28.000000,63.000000 -0.000000L475.000000 -0.000000"></path>
    </g>
    <g transform="scale(0.006974,0.006974)" id="GLYPHcmr7_51">
      <path style="fill-rule: evenodd;" d="M273.000000 -334.000000C351.000000 -334.000000,407.000000 -280.000000,407.000000 -173.000000C407.000000 -49.000000,335.000000 -12.000000,277.000000 -12.000000C237.000000 -12.000000,149.000000 -23.000000,107.000000 -82.000000C154.000000 -84.000000,165.000000 -117.000000,165.000000 -138.000000C165.000000 -170.000000,141.000000 -193.000000,110.000000 -193.000000C82.000000 -193.000000,54.000000 -176.000000,54.000000 -135.000000C54.000000 -41.000000,158.000000 20.000000,279.000000 20.000000C418.000000 20.000000,514.000000 -73.000000,514.000000 -173.000000C514.000000 -251.000000,450.000000 -329.000000,340.000000 -352.000000C445.000000 -390.000000,483.000000 -465.000000,483.000000 -526.000000C483.000000 -605.000000,392.000000 -664.000000,281.000000 -664.000000C170.000000 -664.000000,85.000000 -610.000000,85.000000 -530.000000C85.000000 -496.000000,107.000000 -477.000000,137.000000 -477.000000C168.000000 -477.000000,188.000000 -500.000000,188.000000 -528.000000C188.000000 -557.000000,168.000000 -578.000000,137.000000 -580.000000C172.000000 -624.000000,241.000000 -635.000000,278.000000 -635.000000C323.000000 -635.000000,386.000000 -613.000000,386.000000 -526.000000C386.000000 -484.000000,372.000000 -438.000000,346.000000 -407.000000C313.000000 -369.000000,285.000000 -367.000000,235.000000 -364.000000C210.000000 -362.000000,208.000000 -362.000000,203.000000 -361.000000C201.000000 -361.000000,193.000000 -359.000000,193.000000 -348.000000C193.000000 -334.000000,202.000000 -334.000000,219.000000 -334.000000"></path>
    </g>
  </defs>
  <path d="M114.382095 29.342728C114.382095 21.824448,111.395004 14.615005,106.079178 9.299179C100.763351 3.983353,93.553909 0.996262,86.035629 0.996262C78.517349 0.996262,71.307907 3.983353,65.992081 9.299179C60.676254 14.615005,57.689163 21.824448,57.689163 29.342728C57.689163 36.861008,60.676254 44.070450,65.992081 49.386276C71.307907 54.702103,78.517349 57.689194,86.035629 57.689194C93.553909 57.689194,100.763351 54.702103,106.079178 49.386276C111.395004 44.070450,114.382095 36.861008,114.382095 29.342728Z" style="stroke:rgb(0.000000%,0.000000%,0.000000%); stroke-width: 1.992523;stroke-linecap: round;stroke-linejoin: round;stroke-miterlimit: 10.000000;fill: none;"></path>
  <path d="M284.460800 29.342728C284.460800 21.824448,281.473709 14.615005,276.157883 9.299179C270.842056 3.983353,263.632614 0.996262,256.114334 0.996262C248.596054 0.996262,241.386612 3.983353,236.070786 9.299179C230.754959 14.615005,227.767868 21.824448,227.767868 29.342728C227.767868 36.861008,230.754959 44.070450,236.070786 49.386276C241.386612 54.702103,248.596054 57.689194,256.114334 57.689194C263.632614 57.689194,270.842056 54.702103,276.157883 49.386276C281.473709 44.070450,284.460800 36.861008,284.460800 29.342728Z" style="stroke:rgb(0.000000%,0.000000%,0.000000%); stroke-width: 1.992523;stroke-linecap: round;stroke-linejoin: round;stroke-miterlimit: 10.000000;fill: none;"></path>
  <path d="M454.539505 29.342728C454.539505 21.824448,451.552414 14.615005,446.236588 9.299179C440.920761 3.983353,433.711319 0.996262,426.193039 0.996262C418.674759 0.996262,411.465317 3.983353,406.149490 9.299179C400.833664 14.615005,397.846573 21.824448,397.846573 29.342728C397.846573 36.861008,400.833664 44.070450,406.149490 49.386276C411.465317 54.702103,418.674759 57.689194,426.193039 57.689194C433.711319 57.689194,440.920761 54.702103,446.236588 49.386276C451.552414 44.070450,454.539505 36.861008,454.539505 29.342728Z" style="stroke:rgb(0.000000%,0.000000%,0.000000%); stroke-width: 1.992523;stroke-linecap: round;stroke-linejoin: round;stroke-miterlimit: 10.000000;fill: none;"></path>
  <path d="M624.618210 29.342728C624.618210 21.824448,621.631119 14.615005,616.315292 9.299179C610.999466 3.983353,603.790024 0.996262,596.271744 0.996262C588.753464 0.996262,581.544022 3.983353,576.228195 9.299179C570.912369 14.615005,567.925278 21.824448,567.925278 29.342728C567.925278 36.861008,570.912369 44.070450,576.228195 49.386276C581.544022 54.702103,588.753464 57.689194,596.271744 57.689194C603.790024 57.689194,610.999466 54.702103,616.315292 49.386276C621.631119 44.070450,624.618210 36.861008,624.618210 29.342728Z" style="stroke:rgb(0.000000%,0.000000%,0.000000%); stroke-width: 1.992523;stroke-linecap: round;stroke-linejoin: round;stroke-miterlimit: 10.000000;fill: none;"></path>
  <g transform="matrix(2.000000,-0.000000,-0.000000,2.000000,77.118820 31.695053)" style="fill: rgb(0.000000%,0.000000%,0.000000%);">
    <use xlink:href="#GLYPHcmmi10_113"></use>
  </g>
  <g transform="matrix(2.000000,-0.000000,-0.000000,2.000000,86.013626 34.683853)" style="fill: rgb(0.000000%,0.000000%,0.000000%);">
    <use xlink:href="#GLYPHcmr7_48"></use>
  </g>
  <g transform="matrix(2.000000,-0.000000,-0.000000,2.000000,247.197525 31.695053)" style="fill: rgb(0.000000%,0.000000%,0.000000%);">
    <use xlink:href="#GLYPHcmmi10_113"></use>
  </g>
  <g transform="matrix(2.000000,-0.000000,-0.000000,2.000000,256.092331 34.683853)" style="fill: rgb(0.000000%,0.000000%,0.000000%);">
    <use xlink:href="#GLYPHcmr7_49"></use>
  </g>
  <g transform="matrix(2.000000,-0.000000,-0.000000,2.000000,417.276230 31.695053)" style="fill: rgb(0.000000%,0.000000%,0.000000%);">
    <use xlink:href="#GLYPHcmmi10_113"></use>
  </g>
  <g transform="matrix(2.000000,-0.000000,-0.000000,2.000000,426.171036 34.683853)" style="fill: rgb(0.000000%,0.000000%,0.000000%);">
    <use xlink:href="#GLYPHcmr7_50"></use>
  </g>
  <g transform="matrix(2.000000,-0.000000,-0.000000,2.000000,587.354935 31.695053)" style="fill: rgb(0.000000%,0.000000%,0.000000%);">
    <use xlink:href="#GLYPHcmmi10_113"></use>
  </g>
  <g transform="matrix(2.000000,-0.000000,-0.000000,2.000000,596.249741 34.683853)" style="fill: rgb(0.000000%,0.000000%,0.000000%);">
    <use xlink:href="#GLYPHcmr7_51"></use>
  </g>
  <path d="M114.382919 29.342728L227.768509 29.342728" style="stroke:rgb(0.000000%,0.000000%,0.000000%); stroke-width: 1.992523;stroke-linecap: round;stroke-linejoin: round;stroke-miterlimit: 10.000000;fill: none;"></path>
  <path d="M220.377457 32.404282L227.768509 29.342728L220.377457 26.281174Z" style="stroke:rgb(0.000000%,0.000000%,0.000000%); stroke-width: 1.992523;fill: rgb(0.000000%,0.000000%,0.000000%);"></path>
  <g transform="matrix(2.000000,-0.000000,-0.000000,2.000000,165.809647 23.342728)" style="fill: rgb(0.000000%,0.000000%,0.000000%);">
    <use xlink:href="#GLYPHcmmi10_97"></use>
  </g>
  <path d="M284.461624 29.342728L397.847214 29.342728" style="stroke:rgb(0.000000%,0.000000%,0.000000%); stroke-width: 1.992523;stroke-linecap: round;stroke-linejoin: round;stroke-miterlimit: 10.000000;fill: none;"></path>
  <path d="M390.456161 32.404282L397.847214 29.342728L390.456161 26.281174Z" style="stroke:rgb(0.000000%,0.000000%,0.000000%); stroke-width: 1.992523;fill: rgb(0.000000%,0.000000%,0.000000%);"></path>
  <g transform="matrix(2.000000,-0.000000,-0.000000,2.000000,336.878860 23.342728)" style="fill: rgb(0.000000%,0.000000%,0.000000%);">
    <use xlink:href="#GLYPHcmmi10_98"></use>
  </g>
  <path d="M454.540329 29.342728L567.925919 29.342728" style="stroke:rgb(0.000000%,0.000000%,0.000000%); stroke-width: 1.992523;stroke-linecap: round;stroke-linejoin: round;stroke-miterlimit: 10.000000;fill: none;"></path>
  <path d="M560.534866 32.404282L567.925919 29.342728L560.534866 26.281174Z" style="stroke:rgb(0.000000%,0.000000%,0.000000%); stroke-width: 1.992523;fill: rgb(0.000000%,0.000000%,0.000000%);"></path>
  <g transform="matrix(2.000000,-0.000000,-0.000000,2.000000,505.967056 23.342728)" style="fill: rgb(0.000000%,0.000000%,0.000000%);">
    <use xlink:href="#GLYPHcmmi10_97"></use>
  </g>
  <path d="M617.315475 48.333359C630.639297 56.886703,652.964645 50.556503,652.964645 29.342728C652.964645 8.128952,630.639297 1.798752,617.315475 10.352097" style="stroke:rgb(0.000000%,0.000000%,0.000000%); stroke-width: 1.992523;stroke-linecap: round;stroke-linejoin: round;stroke-miterlimit: 10.000000;fill: none;"></path>
  <path d="M622.969864 4.692886C620.777054 6.245071,618.845444 8.150833,617.315475 10.352097C619.953842 9.877457,622.667313 9.895767,625.315384 10.348831Z" style="stroke:rgb(0.000000%,0.000000%,0.000000%); stroke-width: 1.992523;fill: rgb(0.000000%,0.000000%,0.000000%);"></path>
  <g transform="matrix(2.000000,-0.000000,-0.000000,2.000000,658.964645 34.324051)" style="fill: rgb(0.000000%,0.000000%,0.000000%);">
    <use xlink:href="#GLYPHcmmi10_97"></use>
    <use xlink:href="#GLYPHcmmi10_59" x="5.285988"></use>
  </g>
  <g transform="matrix(2.000000,-0.000000,-0.000000,2.000000,678.352432 34.324051)" style="fill: rgb(0.000000%,0.000000%,0.000000%);">
    <use xlink:href="#GLYPHcmmi10_98"></use>
  </g>
  <path d="M0.996262 29.342728L57.689621 29.342728" style="stroke:rgb(0.000000%,0.000000%,0.000000%); stroke-width: 1.992523;stroke-linecap: round;stroke-linejoin: round;stroke-miterlimit: 10.000000;fill: none;"></path>
  <path d="M50.298477 32.404312L57.689621 29.342728L50.298477 26.281143Z" style="stroke:rgb(0.000000%,0.000000%,0.000000%); stroke-width: 1.992523;fill: rgb(0.000000%,0.000000%,0.000000%);"></path>
  <path d="M618.948990 29.342728C618.948990 23.328079,616.559311 17.560501,612.306656 13.307816C608.053970 9.055161,602.286392 6.665482,596.271744 6.665482C590.257095 6.665482,584.489517 9.055161,580.236832 13.307816C575.984177 17.560501,573.594498 23.328079,573.594498 29.342728C573.594498 35.357376,575.984177 41.124954,580.236832 45.377640C584.489517 49.630295,590.257095 52.019974,596.271744 52.019974C602.286392 52.019974,608.053970 49.630295,612.306656 45.377640C616.559311 41.124954,618.948990 35.357376,618.948990 29.342728Z" style="stroke:rgb(0.000000%,0.000000%,0.000000%); stroke-width: 1.992523;stroke-linecap: round;stroke-linejoin: round;stroke-miterlimit: 10.000000;fill: none;"></path>
</svg>
