<?xml version="1.0"?>
<!-- Created by MetaPost 2.10 on 2025.03.13:1242 -->
<svg version="1.1" xmlns="http://www.w3.org/2000/svg" xmlns:xlink="http://www.w3.org/1999/xlink" width="994.118317" height="295.562744" viewBox="0 0 994.118317 295.562744">
<!-- Original BoundingBox: -86.035629 -150.410370 908.082687 145.152374 -->
  <defs>
    <g transform="scale(0.009963,0.009963)" id="GLYPHcmmi10_59">
      <path style="fill-rule: evenodd;" d="M203.000000 -1.000000C203.000000 -67.000000,178.000000 -106.000000,139.000000 -106.000000C106.000000 -106.000000,86.000000 -81.000000,86.000000 -53.000000C86.000000 -26.000000,106.000000 -0.000000,139.000000 -0.000000C151.000000 -0.000000,164.000000 -4.000000,174.000000 -13.000000C177.000000 -15.000000,178.000000 -16.000000,179.000000 -16.000000C180.000000 -16.000000,181.000000 -15.000000,181.000000 -1.000000C181.000000 73.000000,146.000000 133.000000,113.000000 166.000000C102.000000 177.000000,102.000000 179.000000,102.000000 182.000000C102.000000 189.000000,107.000000 193.000000,112.000000 193.000000C123.000000 193.000000,203.000000 116.000000,203.000000 -1.000000"></path>
    </g>
    <g transform="scale(0.009963,0.009963)" id="GLYPHcmmi10_97">
      <path style="fill-rule: evenodd;" d="M373.000000 -378.000000C355.000000 -415.000000,326.000000 -442.000000,281.000000 -442.000000C164.000000 -442.000000,40.000000 -295.000000,40.000000 -149.000000C40.000000 -55.000000,95.000000 11.000000,173.000000 11.000000C193.000000 11.000000,243.000000 7.000000,303.000000 -64.000000C311.000000 -22.000000,346.000000 11.000000,394.000000 11.000000C429.000000 11.000000,452.000000 -12.000000,468.000000 -44.000000C485.000000 -80.000000,498.000000 -141.000000,498.000000 -143.000000C498.000000 -153.000000,489.000000 -153.000000,486.000000 -153.000000C476.000000 -153.000000,475.000000 -149.000000,472.000000 -135.000000C455.000000 -70.000000,437.000000 -11.000000,396.000000 -11.000000C369.000000 -11.000000,366.000000 -37.000000,366.000000 -57.000000C366.000000 -79.000000,368.000000 -87.000000,379.000000 -131.000000C390.000000 -173.000000,392.000000 -183.000000,401.000000 -221.000000L437.000000 -361.000000C444.000000 -389.000000,444.000000 -391.000000,444.000000 -395.000000C444.000000 -412.000000,432.000000 -422.000000,415.000000 -422.000000C391.000000 -422.000000,376.000000 -400.000000,373.000000 -378.000000M308.000000 -119.000000C303.000000 -101.000000,303.000000 -99.000000,288.000000 -82.000000C244.000000 -27.000000,203.000000 -11.000000,175.000000 -11.000000C125.000000 -11.000000,111.000000 -66.000000,111.000000 -105.000000C111.000000 -155.000000,143.000000 -278.000000,166.000000 -324.000000C197.000000 -383.000000,242.000000 -420.000000,282.000000 -420.000000C347.000000 -420.000000,361.000000 -338.000000,361.000000 -332.000000C361.000000 -326.000000,359.000000 -320.000000,358.000000 -315.000000"></path>
    </g>
    <g transform="scale(0.009963,0.009963)" id="GLYPHcmmi10_98">
      <path style="fill-rule: evenodd;" d="M239.000000 -683.000000C239.000000 -684.000000,239.000000 -694.000000,226.000000 -694.000000C203.000000 -694.000000,130.000000 -686.000000,104.000000 -684.000000C96.000000 -683.000000,85.000000 -682.000000,85.000000 -664.000000C85.000000 -652.000000,94.000000 -652.000000,109.000000 -652.000000C157.000000 -652.000000,159.000000 -645.000000,159.000000 -635.000000C159.000000 -628.000000,150.000000 -594.000000,145.000000 -573.000000L63.000000 -247.000000C51.000000 -197.000000,47.000000 -181.000000,47.000000 -146.000000C47.000000 -51.000000,100.000000 11.000000,174.000000 11.000000C292.000000 11.000000,415.000000 -138.000000,415.000000 -282.000000C415.000000 -373.000000,362.000000 -442.000000,282.000000 -442.000000C236.000000 -442.000000,195.000000 -413.000000,165.000000 -382.000000M145.000000 -305.000000C151.000000 -327.000000,151.000000 -329.000000,160.000000 -340.000000C209.000000 -405.000000,254.000000 -420.000000,280.000000 -420.000000C316.000000 -420.000000,343.000000 -390.000000,343.000000 -326.000000C343.000000 -267.000000,310.000000 -152.000000,292.000000 -114.000000C259.000000 -47.000000,213.000000 -11.000000,174.000000 -11.000000C140.000000 -11.000000,107.000000 -38.000000,107.000000 -112.000000C107.000000 -131.000000,107.000000 -150.000000,123.000000 -213.000000"></path>
    </g>
    <g transform="scale(0.009963,0.009963)" id="GLYPHcmr10_48">
      <path style="fill-rule: evenodd;" d="M460.000000 -320.000000C460.000000 -400.000000,455.000000 -480.000000,420.000000 -554.000000C374.000000 -650.000000,292.000000 -666.000000,250.000000 -666.000000C190.000000 -666.000000,117.000000 -640.000000,76.000000 -547.000000C44.000000 -478.000000,39.000000 -400.000000,39.000000 -320.000000C39.000000 -245.000000,43.000000 -155.000000,84.000000 -79.000000C127.000000 2.000000,200.000000 22.000000,249.000000 22.000000C303.000000 22.000000,379.000000 1.000000,423.000000 -94.000000C455.000000 -163.000000,460.000000 -241.000000,460.000000 -320.000000M249.000000 -0.000000C210.000000 -0.000000,151.000000 -25.000000,133.000000 -121.000000C122.000000 -181.000000,122.000000 -273.000000,122.000000 -332.000000C122.000000 -396.000000,122.000000 -462.000000,130.000000 -516.000000C149.000000 -635.000000,224.000000 -644.000000,249.000000 -644.000000C282.000000 -644.000000,348.000000 -626.000000,367.000000 -527.000000C377.000000 -471.000000,377.000000 -395.000000,377.000000 -332.000000C377.000000 -257.000000,377.000000 -189.000000,366.000000 -125.000000C351.000000 -30.000000,294.000000 -0.000000,249.000000 -0.000000"></path>
    </g>
    <g transform="scale(0.009963,0.009963)" id="GLYPHcmr10_49">
      <path style="fill-rule: evenodd;" d="M294.000000 -640.000000C294.000000 -664.000000,294.000000 -666.000000,271.000000 -666.000000C209.000000 -602.000000,121.000000 -602.000000,89.000000 -602.000000L89.000000 -571.000000C109.000000 -571.000000,168.000000 -571.000000,220.000000 -597.000000L220.000000 -79.000000C220.000000 -43.000000,217.000000 -31.000000,127.000000 -31.000000L95.000000 -31.000000L95.000000 -0.000000C130.000000 -3.000000,217.000000 -3.000000,257.000000 -3.000000C297.000000 -3.000000,384.000000 -3.000000,419.000000 -0.000000L419.000000 -31.000000L387.000000 -31.000000C297.000000 -31.000000,294.000000 -42.000000,294.000000 -79.000000"></path>
    </g>
    <g transform="scale(0.009963,0.009963)" id="GLYPHcmr10_50">
      <path style="fill-rule: evenodd;" d="M127.000000 -77.000000L233.000000 -180.000000C389.000000 -318.000000,449.000000 -372.000000,449.000000 -472.000000C449.000000 -586.000000,359.000000 -666.000000,237.000000 -666.000000C124.000000 -666.000000,50.000000 -574.000000,50.000000 -485.000000C50.000000 -429.000000,100.000000 -429.000000,103.000000 -429.000000C120.000000 -429.000000,155.000000 -441.000000,155.000000 -482.000000C155.000000 -508.000000,137.000000 -534.000000,102.000000 -534.000000C94.000000 -534.000000,92.000000 -534.000000,89.000000 -533.000000C112.000000 -598.000000,166.000000 -635.000000,224.000000 -635.000000C315.000000 -635.000000,358.000000 -554.000000,358.000000 -472.000000C358.000000 -392.000000,308.000000 -313.000000,253.000000 -251.000000L61.000000 -37.000000C50.000000 -26.000000,50.000000 -24.000000,50.000000 -0.000000L421.000000 -0.000000L449.000000 -174.000000L424.000000 -174.000000C419.000000 -144.000000,412.000000 -100.000000,402.000000 -85.000000C395.000000 -77.000000,329.000000 -77.000000,307.000000 -77.000000"></path>
    </g>
    <g transform="scale(0.009963,0.009963)" id="GLYPHcmr10_51">
      <path style="fill-rule: evenodd;" d="M290.000000 -352.000000C372.000000 -379.000000,430.000000 -449.000000,430.000000 -528.000000C430.000000 -610.000000,342.000000 -666.000000,246.000000 -666.000000C145.000000 -666.000000,69.000000 -606.000000,69.000000 -530.000000C69.000000 -497.000000,91.000000 -478.000000,120.000000 -478.000000C151.000000 -478.000000,171.000000 -500.000000,171.000000 -529.000000C171.000000 -579.000000,124.000000 -579.000000,109.000000 -579.000000C140.000000 -628.000000,206.000000 -641.000000,242.000000 -641.000000C283.000000 -641.000000,338.000000 -619.000000,338.000000 -529.000000C338.000000 -517.000000,336.000000 -459.000000,310.000000 -415.000000C280.000000 -367.000000,246.000000 -364.000000,221.000000 -363.000000C213.000000 -362.000000,189.000000 -360.000000,182.000000 -360.000000C174.000000 -359.000000,167.000000 -358.000000,167.000000 -348.000000C167.000000 -337.000000,174.000000 -337.000000,191.000000 -337.000000L235.000000 -337.000000C317.000000 -337.000000,354.000000 -269.000000,354.000000 -171.000000C354.000000 -35.000000,285.000000 -6.000000,241.000000 -6.000000C198.000000 -6.000000,123.000000 -23.000000,88.000000 -82.000000C123.000000 -77.000000,154.000000 -99.000000,154.000000 -137.000000C154.000000 -173.000000,127.000000 -193.000000,98.000000 -193.000000C74.000000 -193.000000,42.000000 -179.000000,42.000000 -135.000000C42.000000 -44.000000,135.000000 22.000000,244.000000 22.000000C366.000000 22.000000,457.000000 -69.000000,457.000000 -171.000000C457.000000 -253.000000,394.000000 -331.000000,290.000000 -352.000000"></path>
    </g>
    <g transform="scale(0.009963,0.009963)" id="GLYPHcmr10_52">
      <path style="fill-rule: evenodd;" d="M294.000000 -165.000000L294.000000 -78.000000C294.000000 -42.000000,292.000000 -31.000000,218.000000 -31.000000L197.000000 -31.000000L197.000000 -0.000000C238.000000 -3.000000,290.000000 -3.000000,332.000000 -3.000000C374.000000 -3.000000,427.000000 -3.000000,468.000000 -0.000000L468.000000 -31.000000L447.000000 -31.000000C373.000000 -31.000000,371.000000 -42.000000,371.000000 -78.000000L371.000000 -165.000000L471.000000 -165.000000L471.000000 -196.000000L371.000000 -196.000000L371.000000 -651.000000C371.000000 -671.000000,371.000000 -677.000000,355.000000 -677.000000C346.000000 -677.000000,343.000000 -677.000000,335.000000 -665.000000L28.000000 -196.000000L28.000000 -165.000000M300.000000 -196.000000L56.000000 -196.000000L300.000000 -569.000000"></path>
    </g>
    <g transform="scale(0.009963,0.009963)" id="GLYPHcmr10_53">
      <path style="fill-rule: evenodd;" d="M449.000000 -201.000000C449.000000 -320.000000,367.000000 -420.000000,259.000000 -420.000000C211.000000 -420.000000,168.000000 -404.000000,132.000000 -369.000000L132.000000 -564.000000C152.000000 -558.000000,185.000000 -551.000000,217.000000 -551.000000C340.000000 -551.000000,410.000000 -642.000000,410.000000 -655.000000C410.000000 -661.000000,407.000000 -666.000000,400.000000 -666.000000C399.000000 -666.000000,397.000000 -666.000000,392.000000 -663.000000C372.000000 -654.000000,323.000000 -634.000000,256.000000 -634.000000C216.000000 -634.000000,170.000000 -641.000000,123.000000 -662.000000C115.000000 -665.000000,113.000000 -665.000000,111.000000 -665.000000C101.000000 -665.000000,101.000000 -657.000000,101.000000 -641.000000L101.000000 -345.000000C101.000000 -327.000000,101.000000 -319.000000,115.000000 -319.000000C122.000000 -319.000000,124.000000 -322.000000,128.000000 -328.000000C139.000000 -344.000000,176.000000 -398.000000,257.000000 -398.000000C309.000000 -398.000000,334.000000 -352.000000,342.000000 -334.000000C358.000000 -297.000000,360.000000 -258.000000,360.000000 -208.000000C360.000000 -173.000000,360.000000 -113.000000,336.000000 -71.000000C312.000000 -32.000000,275.000000 -6.000000,229.000000 -6.000000C156.000000 -6.000000,99.000000 -59.000000,82.000000 -118.000000C85.000000 -117.000000,88.000000 -116.000000,99.000000 -116.000000C132.000000 -116.000000,149.000000 -141.000000,149.000000 -165.000000C149.000000 -189.000000,132.000000 -214.000000,99.000000 -214.000000C85.000000 -214.000000,50.000000 -207.000000,50.000000 -161.000000C50.000000 -75.000000,119.000000 22.000000,231.000000 22.000000C347.000000 22.000000,449.000000 -74.000000,449.000000 -201.000000"></path>
    </g>
    <g transform="scale(0.009963,0.009963)" id="GLYPHcmsy10_102">
      <path style="fill-rule: evenodd;" d="M283.000000 -617.000000C283.000000 -657.000000,309.000000 -721.000000,418.000000 -728.000000C423.000000 -729.000000,427.000000 -733.000000,427.000000 -739.000000C427.000000 -750.000000,419.000000 -750.000000,408.000000 -750.000000C308.000000 -750.000000,217.000000 -699.000000,216.000000 -625.000000L216.000000 -397.000000C216.000000 -358.000000,216.000000 -326.000000,176.000000 -293.000000C141.000000 -264.000000,103.000000 -262.000000,81.000000 -261.000000C76.000000 -260.000000,72.000000 -256.000000,72.000000 -250.000000C72.000000 -240.000000,78.000000 -240.000000,88.000000 -239.000000C154.000000 -235.000000,202.000000 -199.000000,213.000000 -150.000000C216.000000 -139.000000,216.000000 -137.000000,216.000000 -101.000000L216.000000 97.000000C216.000000 139.000000,216.000000 171.000000,264.000000 209.000000C303.000000 239.000000,369.000000 250.000000,408.000000 250.000000C419.000000 250.000000,427.000000 250.000000,427.000000 239.000000C427.000000 229.000000,421.000000 229.000000,411.000000 228.000000C348.000000 224.000000,299.000000 192.000000,286.000000 141.000000C283.000000 132.000000,283.000000 130.000000,283.000000 94.000000L283.000000 -116.000000C283.000000 -162.000000,275.000000 -179.000000,243.000000 -211.000000C222.000000 -232.000000,193.000000 -242.000000,165.000000 -250.000000C247.000000 -273.000000,283.000000 -319.000000,283.000000 -377.000000"></path>
    </g>
    <g transform="scale(0.009963,0.009963)" id="GLYPHcmsy10_103">
      <path style="fill-rule: evenodd;" d="M216.000000 117.000000C216.000000 157.000000,190.000000 221.000000,81.000000 228.000000C76.000000 229.000000,72.000000 233.000000,72.000000 239.000000C72.000000 250.000000,83.000000 250.000000,92.000000 250.000000C189.000000 250.000000,282.000000 201.000000,283.000000 125.000000L283.000000 -103.000000C283.000000 -142.000000,283.000000 -174.000000,323.000000 -207.000000C358.000000 -236.000000,396.000000 -238.000000,418.000000 -239.000000C423.000000 -240.000000,427.000000 -244.000000,427.000000 -250.000000C427.000000 -260.000000,421.000000 -260.000000,411.000000 -261.000000C345.000000 -265.000000,297.000000 -301.000000,286.000000 -350.000000C283.000000 -361.000000,283.000000 -363.000000,283.000000 -399.000000L283.000000 -597.000000C283.000000 -639.000000,283.000000 -671.000000,235.000000 -709.000000C195.000000 -740.000000,126.000000 -750.000000,92.000000 -750.000000C83.000000 -750.000000,72.000000 -750.000000,72.000000 -739.000000C72.000000 -729.000000,78.000000 -729.000000,88.000000 -728.000000C151.000000 -724.000000,200.000000 -692.000000,213.000000 -641.000000C216.000000 -632.000000,216.000000 -630.000000,216.000000 -594.000000L216.000000 -384.000000C216.000000 -338.000000,224.000000 -321.000000,256.000000 -289.000000C277.000000 -268.000000,306.000000 -258.000000,334.000000 -250.000000C252.000000 -227.000000,216.000000 -181.000000,216.000000 -123.000000"></path>
    </g>
  </defs>
  <path d="M142.728531 145.152374C142.728531 130.115814,136.754379 115.696899,126.122757 105.065247C115.491104 94.433624,101.072189 88.459473,86.035629 88.459473C70.999069 88.459473,56.580154 94.433624,45.948502 105.065247C35.316879 115.696899,29.342728 130.115814,29.342728 145.152374C29.342728 160.188934,35.316879 174.607849,45.948502 185.239502C56.580154 195.871124,70.999069 201.845276,86.035629 201.845276C101.072189 201.845276,115.491104 195.871124,126.122757 185.239502C136.754379 174.607849,142.728531 160.188934,142.728531 145.152374Z" style="stroke:rgb(0.000000%,0.000000%,0.000000%); stroke-width: 1.992523;stroke-linecap: round;stroke-linejoin: round;stroke-miterlimit: 10.000000;fill: none;"></path>
  <path d="M312.807236 145.152374C312.807236 130.115814,306.833084 115.696899,296.201462 105.065247C285.569809 94.433624,271.150894 88.459473,256.114334 88.459473C241.077774 88.459473,226.658859 94.433624,216.027206 105.065247C205.395584 115.696899,199.421432 130.115814,199.421432 145.152374C199.421432 160.188934,205.395584 174.607849,216.027206 185.239502C226.658859 195.871124,241.077774 201.845276,256.114334 201.845276C271.150894 201.845276,285.569809 195.871124,296.201462 185.239502C306.833084 174.607849,312.807236 160.188934,312.807236 145.152374Z" style="stroke:rgb(0.000000%,0.000000%,0.000000%); stroke-width: 1.992523;stroke-linecap: round;stroke-linejoin: round;stroke-miterlimit: 10.000000;fill: none;"></path>
  <path d="M482.885941 145.152374C482.885941 130.115814,476.911789 115.696899,466.280167 105.065247C455.648514 94.433624,441.229599 88.459473,426.193039 88.459473C411.156479 88.459473,396.737564 94.433624,386.105911 105.065247C375.474289 115.696899,369.500137 130.115814,369.500137 145.152374C369.500137 160.188934,375.474289 174.607849,386.105911 185.239502C396.737564 195.871124,411.156479 201.845276,426.193039 201.845276C441.229599 201.845276,455.648514 195.871124,466.280167 185.239502C476.911789 174.607849,482.885941 160.188934,482.885941 145.152374Z" style="stroke:rgb(0.000000%,0.000000%,0.000000%); stroke-width: 1.992523;stroke-linecap: round;stroke-linejoin: round;stroke-miterlimit: 10.000000;fill: none;"></path>
  <path d="M652.964645 145.152374C652.964645 130.115814,646.990494 115.696899,636.358871 105.065247C625.727219 94.433624,611.308304 88.459473,596.271744 88.459473C581.235184 88.459473,566.816269 94.433624,556.184616 105.065247C545.552994 115.696899,539.578842 130.115814,539.578842 145.152374C539.578842 160.188934,545.552994 174.607849,556.184616 185.239502C566.816269 195.871124,581.235184 201.845276,596.271744 201.845276C611.308304 201.845276,625.727219 195.871124,636.358871 185.239502C646.990494 174.607849,652.964645 160.188934,652.964645 145.152374Z" style="stroke:rgb(0.000000%,0.000000%,0.000000%); stroke-width: 1.992523;stroke-linecap: round;stroke-linejoin: round;stroke-miterlimit: 10.000000;fill: none;"></path>
  <path d="M823.043350 145.152374C823.043350 130.115814,817.069199 115.696899,806.437576 105.065247C795.805923 94.433624,781.387009 88.459473,766.350449 88.459473C751.313889 88.459473,736.894974 94.433624,726.263321 105.065247C715.631699 115.696899,709.657547 130.115814,709.657547 145.152374C709.657547 160.188934,715.631699 174.607849,726.263321 185.239502C736.894974 195.871124,751.313889 201.845276,766.350449 201.845276C781.387009 201.845276,795.805923 195.871124,806.437576 185.239502C817.069199 174.607849,823.043350 160.188934,823.043350 145.152374Z" style="stroke:rgb(0.000000%,0.000000%,0.000000%); stroke-width: 1.992523;stroke-linecap: round;stroke-linejoin: round;stroke-miterlimit: 10.000000;fill: none;"></path>
  <path d="M993.122055 145.152374C993.122055 130.115814,987.147903 115.696899,976.516281 105.065247C965.884628 94.433624,951.465714 88.459473,936.429153 88.459473C921.392593 88.459473,906.973679 94.433624,896.342026 105.065247C885.710403 115.696899,879.736252 130.115814,879.736252 145.152374C879.736252 160.188934,885.710403 174.607849,896.342026 185.239502C906.973679 195.871124,921.392593 201.845276,936.429153 201.845276C951.465714 201.845276,965.884628 195.871124,976.516281 185.239502C987.147903 174.607849,993.122055 160.188934,993.122055 145.152374Z" style="stroke:rgb(0.000000%,0.000000%,0.000000%); stroke-width: 1.992523;stroke-linecap: round;stroke-linejoin: round;stroke-miterlimit: 10.000000;fill: none;"></path>
  <g transform="matrix(2.000000,-0.000000,-0.000000,2.000000,71.091629 150.133667)" style="fill: rgb(0.000000%,0.000000%,0.000000%);">
    <use xlink:href="#GLYPHcmsy10_102"></use>
  </g>
  <g transform="matrix(2.000000,-0.000000,-0.000000,2.000000,81.054214 150.133667)" style="fill: rgb(0.000000%,0.000000%,0.000000%);">
    <use xlink:href="#GLYPHcmr10_48"></use>
  </g>
  <g transform="matrix(2.000000,-0.000000,-0.000000,2.000000,91.017044 150.133667)" style="fill: rgb(0.000000%,0.000000%,0.000000%);">
    <use xlink:href="#GLYPHcmsy10_103"></use>
  </g>
  <g transform="matrix(2.000000,-0.000000,-0.000000,2.000000,231.761215 150.133667)" style="fill: rgb(0.000000%,0.000000%,0.000000%);">
    <use xlink:href="#GLYPHcmsy10_102"></use>
  </g>
  <g transform="matrix(2.000000,-0.000000,-0.000000,2.000000,241.723801 150.133667)" style="fill: rgb(0.000000%,0.000000%,0.000000%);">
    <use xlink:href="#GLYPHcmr10_48"></use>
  </g>
  <g transform="matrix(2.000000,-0.000000,-0.000000,2.000000,251.686630 150.133667)" style="fill: rgb(0.000000%,0.000000%,0.000000%);">
    <use xlink:href="#GLYPHcmmi10_59"></use>
  </g>
  <g transform="matrix(2.000000,-0.000000,-0.000000,2.000000,260.542221 150.133667)" style="fill: rgb(0.000000%,0.000000%,0.000000%);">
    <use xlink:href="#GLYPHcmr10_49"></use>
  </g>
  <g transform="matrix(2.000000,-0.000000,-0.000000,2.000000,270.504807 150.133667)" style="fill: rgb(0.000000%,0.000000%,0.000000%);">
    <use xlink:href="#GLYPHcmsy10_103"></use>
  </g>
  <g transform="matrix(2.000000,-0.000000,-0.000000,2.000000,401.839920 150.133667)" style="fill: rgb(0.000000%,0.000000%,0.000000%);">
    <use xlink:href="#GLYPHcmsy10_102"></use>
  </g>
  <g transform="matrix(2.000000,-0.000000,-0.000000,2.000000,411.802505 150.133667)" style="fill: rgb(0.000000%,0.000000%,0.000000%);">
    <use xlink:href="#GLYPHcmr10_48"></use>
  </g>
  <g transform="matrix(2.000000,-0.000000,-0.000000,2.000000,421.765335 150.133667)" style="fill: rgb(0.000000%,0.000000%,0.000000%);">
    <use xlink:href="#GLYPHcmmi10_59"></use>
  </g>
  <g transform="matrix(2.000000,-0.000000,-0.000000,2.000000,430.620926 150.133667)" style="fill: rgb(0.000000%,0.000000%,0.000000%);">
    <use xlink:href="#GLYPHcmr10_50"></use>
  </g>
  <g transform="matrix(2.000000,-0.000000,-0.000000,2.000000,440.583511 150.133667)" style="fill: rgb(0.000000%,0.000000%,0.000000%);">
    <use xlink:href="#GLYPHcmsy10_103"></use>
  </g>
  <g transform="matrix(2.000000,-0.000000,-0.000000,2.000000,562.509445 150.133667)" style="fill: rgb(0.000000%,0.000000%,0.000000%);">
    <use xlink:href="#GLYPHcmsy10_102"></use>
  </g>
  <g transform="matrix(2.000000,-0.000000,-0.000000,2.000000,572.472031 150.133667)" style="fill: rgb(0.000000%,0.000000%,0.000000%);">
    <use xlink:href="#GLYPHcmr10_48"></use>
  </g>
  <g transform="matrix(2.000000,-0.000000,-0.000000,2.000000,582.434860 150.133667)" style="fill: rgb(0.000000%,0.000000%,0.000000%);">
    <use xlink:href="#GLYPHcmmi10_59"></use>
  </g>
  <g transform="matrix(2.000000,-0.000000,-0.000000,2.000000,591.290451 150.133667)" style="fill: rgb(0.000000%,0.000000%,0.000000%);">
    <use xlink:href="#GLYPHcmr10_49"></use>
  </g>
  <g transform="matrix(2.000000,-0.000000,-0.000000,2.000000,601.253036 150.133667)" style="fill: rgb(0.000000%,0.000000%,0.000000%);">
    <use xlink:href="#GLYPHcmmi10_59"></use>
  </g>
  <g transform="matrix(2.000000,-0.000000,-0.000000,2.000000,610.108658 150.133667)" style="fill: rgb(0.000000%,0.000000%,0.000000%);">
    <use xlink:href="#GLYPHcmr10_51"></use>
  </g>
  <g transform="matrix(2.000000,-0.000000,-0.000000,2.000000,620.071457 150.133667)" style="fill: rgb(0.000000%,0.000000%,0.000000%);">
    <use xlink:href="#GLYPHcmsy10_103"></use>
  </g>
  <g transform="matrix(2.000000,-0.000000,-0.000000,2.000000,732.588150 150.133667)" style="fill: rgb(0.000000%,0.000000%,0.000000%);">
    <use xlink:href="#GLYPHcmsy10_102"></use>
  </g>
  <g transform="matrix(2.000000,-0.000000,-0.000000,2.000000,742.550735 150.133667)" style="fill: rgb(0.000000%,0.000000%,0.000000%);">
    <use xlink:href="#GLYPHcmr10_48"></use>
  </g>
  <g transform="matrix(2.000000,-0.000000,-0.000000,2.000000,752.513565 150.133667)" style="fill: rgb(0.000000%,0.000000%,0.000000%);">
    <use xlink:href="#GLYPHcmmi10_59"></use>
  </g>
  <g transform="matrix(2.000000,-0.000000,-0.000000,2.000000,761.369156 150.133667)" style="fill: rgb(0.000000%,0.000000%,0.000000%);">
    <use xlink:href="#GLYPHcmr10_50"></use>
  </g>
  <g transform="matrix(2.000000,-0.000000,-0.000000,2.000000,771.331741 150.133667)" style="fill: rgb(0.000000%,0.000000%,0.000000%);">
    <use xlink:href="#GLYPHcmmi10_59"></use>
  </g>
  <g transform="matrix(2.000000,-0.000000,-0.000000,2.000000,780.187363 150.133667)" style="fill: rgb(0.000000%,0.000000%,0.000000%);">
    <use xlink:href="#GLYPHcmr10_52"></use>
  </g>
  <g transform="matrix(2.000000,-0.000000,-0.000000,2.000000,790.150162 150.133667)" style="fill: rgb(0.000000%,0.000000%,0.000000%);">
    <use xlink:href="#GLYPHcmsy10_103"></use>
  </g>
  <g transform="matrix(2.000000,-0.000000,-0.000000,2.000000,893.257736 150.133667)" style="fill: rgb(0.000000%,0.000000%,0.000000%);">
    <use xlink:href="#GLYPHcmsy10_102"></use>
  </g>
  <g transform="matrix(2.000000,-0.000000,-0.000000,2.000000,903.220322 150.133667)" style="fill: rgb(0.000000%,0.000000%,0.000000%);">
    <use xlink:href="#GLYPHcmr10_48"></use>
  </g>
  <g transform="matrix(2.000000,-0.000000,-0.000000,2.000000,913.183151 150.133667)" style="fill: rgb(0.000000%,0.000000%,0.000000%);">
    <use xlink:href="#GLYPHcmmi10_59"></use>
  </g>
  <g transform="matrix(2.000000,-0.000000,-0.000000,2.000000,922.038742 150.133667)" style="fill: rgb(0.000000%,0.000000%,0.000000%);">
    <use xlink:href="#GLYPHcmr10_49"></use>
  </g>
  <g transform="matrix(2.000000,-0.000000,-0.000000,2.000000,932.001328 150.133667)" style="fill: rgb(0.000000%,0.000000%,0.000000%);">
    <use xlink:href="#GLYPHcmmi10_59"></use>
  </g>
  <g transform="matrix(2.000000,-0.000000,-0.000000,2.000000,940.856949 150.133667)" style="fill: rgb(0.000000%,0.000000%,0.000000%);">
    <use xlink:href="#GLYPHcmr10_51"></use>
  </g>
  <g transform="matrix(2.000000,-0.000000,-0.000000,2.000000,950.819748 150.133667)" style="fill: rgb(0.000000%,0.000000%,0.000000%);">
    <use xlink:href="#GLYPHcmmi10_59"></use>
  </g>
  <g transform="matrix(2.000000,-0.000000,-0.000000,2.000000,959.675339 150.133667)" style="fill: rgb(0.000000%,0.000000%,0.000000%);">
    <use xlink:href="#GLYPHcmr10_53"></use>
  </g>
  <g transform="matrix(2.000000,-0.000000,-0.000000,2.000000,969.637924 150.133667)" style="fill: rgb(0.000000%,0.000000%,0.000000%);">
    <use xlink:href="#GLYPHcmsy10_103"></use>
  </g>
  <path d="M142.727646 145.152374L199.420944 145.152374" style="stroke:rgb(0.000000%,0.000000%,0.000000%); stroke-width: 1.992523;stroke-linecap: round;stroke-linejoin: round;stroke-miterlimit: 10.000000;fill: none;"></path>
  <path d="M192.029800 148.213959L199.420944 145.152374L192.029800 142.090790Z" style="stroke:rgb(0.000000%,0.000000%,0.000000%); stroke-width: 1.992523;fill: rgb(0.000000%,0.000000%,0.000000%);"></path>
  <g transform="matrix(2.000000,-0.000000,-0.000000,2.000000,165.808182 139.152374)" style="fill: rgb(0.000000%,0.000000%,0.000000%);">
    <use xlink:href="#GLYPHcmmi10_97"></use>
  </g>
  <path d="M312.806351 145.152374L369.499649 145.152374" style="stroke:rgb(0.000000%,0.000000%,0.000000%); stroke-width: 1.992523;stroke-linecap: round;stroke-linejoin: round;stroke-miterlimit: 10.000000;fill: none;"></path>
  <path d="M362.108505 148.213959L369.499649 145.152374L362.108505 142.090790Z" style="stroke:rgb(0.000000%,0.000000%,0.000000%); stroke-width: 1.992523;fill: rgb(0.000000%,0.000000%,0.000000%);"></path>
  <g transform="matrix(2.000000,-0.000000,-0.000000,2.000000,336.877396 139.152374)" style="fill: rgb(0.000000%,0.000000%,0.000000%);">
    <use xlink:href="#GLYPHcmmi10_98"></use>
  </g>
  <path d="M482.885056 145.152374L539.578354 145.152374" style="stroke:rgb(0.000000%,0.000000%,0.000000%); stroke-width: 1.992523;stroke-linecap: round;stroke-linejoin: round;stroke-miterlimit: 10.000000;fill: none;"></path>
  <path d="M532.187210 148.213959L539.578354 145.152374L532.187210 142.090790Z" style="stroke:rgb(0.000000%,0.000000%,0.000000%); stroke-width: 1.992523;fill: rgb(0.000000%,0.000000%,0.000000%);"></path>
  <g transform="matrix(2.000000,-0.000000,-0.000000,2.000000,505.965591 139.152374)" style="fill: rgb(0.000000%,0.000000%,0.000000%);">
    <use xlink:href="#GLYPHcmmi10_97"></use>
  </g>
  <path d="M652.963760 145.152374L709.657059 145.152374" style="stroke:rgb(0.000000%,0.000000%,0.000000%); stroke-width: 1.992523;stroke-linecap: round;stroke-linejoin: round;stroke-miterlimit: 10.000000;fill: none;"></path>
  <path d="M702.265915 148.213959L709.657059 145.152374L702.265915 142.090790Z" style="stroke:rgb(0.000000%,0.000000%,0.000000%); stroke-width: 1.992523;fill: rgb(0.000000%,0.000000%,0.000000%);"></path>
  <g transform="matrix(2.000000,-0.000000,-0.000000,2.000000,677.034805 139.152374)" style="fill: rgb(0.000000%,0.000000%,0.000000%);">
    <use xlink:href="#GLYPHcmmi10_98"></use>
  </g>
  <path d="M823.042465 145.152374L879.735764 145.152374" style="stroke:rgb(0.000000%,0.000000%,0.000000%); stroke-width: 1.992523;stroke-linecap: round;stroke-linejoin: round;stroke-miterlimit: 10.000000;fill: none;"></path>
  <path d="M872.344620 148.213959L879.735764 145.152374L872.344620 142.090790Z" style="stroke:rgb(0.000000%,0.000000%,0.000000%); stroke-width: 1.992523;fill: rgb(0.000000%,0.000000%,0.000000%);"></path>
  <g transform="matrix(2.000000,-0.000000,-0.000000,2.000000,846.123001 139.152374)" style="fill: rgb(0.000000%,0.000000%,0.000000%);">
    <use xlink:href="#GLYPHcmmi10_97"></use>
  </g>
  <path d="M0.996262 145.152374L29.342270 145.152374" style="stroke:rgb(0.000000%,0.000000%,0.000000%); stroke-width: 1.992523;stroke-linecap: round;stroke-linejoin: round;stroke-miterlimit: 10.000000;fill: none;"></path>
  <path d="M21.951309 148.213898L29.342270 145.152374L21.951309 142.090851Z" style="stroke:rgb(0.000000%,0.000000%,0.000000%); stroke-width: 1.992523;fill: rgb(0.000000%,0.000000%,0.000000%);"></path>
  <path d="M981.783646 145.152374C981.783646 133.123077,977.004318 121.587891,968.498978 113.082550C959.993637 104.577209,948.458450 99.797882,936.429153 99.797882C924.399857 99.797882,912.864670 104.577209,904.359329 113.082550C895.853989 121.587891,891.074661 133.123077,891.074661 145.152374C891.074661 157.181671,895.853989 168.716858,904.359329 177.222198C912.864670 185.727539,924.399857 190.506866,936.429153 190.506866C948.458450 190.506866,959.993637 185.727539,968.498978 177.222198C977.004318 168.716858,981.783646 157.181671,981.783646 145.152374Z" style="stroke:rgb(0.000000%,0.000000%,0.000000%); stroke-width: 1.992523;stroke-linecap: round;stroke-linejoin: round;stroke-miterlimit: 10.000000;fill: none;"></path>
  <path d="M124.016922 103.064911C141.123611 76.417297,128.463181 31.766571,86.035629 31.766571C43.608078 31.766571,30.947647 76.417297,48.054337 103.064911" style="stroke:rgb(0.000000%,0.000000%,0.000000%); stroke-width: 1.992523;stroke-linecap: round;stroke-linejoin: round;stroke-miterlimit: 10.000000;fill: none;"></path>
  <path d="M41.924698 97.924103C43.811417 99.814178,45.859451 101.539398,48.054337 103.064911C47.581070 100.434174,47.352859 97.766083,47.355240 95.095490Z" style="stroke:rgb(0.000000%,0.000000%,0.000000%); stroke-width: 1.992523;fill: rgb(0.000000%,0.000000%,0.000000%);"></path>
  <g transform="matrix(2.000000,-0.000000,-0.000000,2.000000,81.760025 25.766571)" style="fill: rgb(0.000000%,0.000000%,0.000000%);">
    <use xlink:href="#GLYPHcmmi10_98"></use>
  </g>
  <path d="M294.095627 103.064911C311.202316 76.417297,298.541885 31.766571,256.114334 31.766571C213.686783 31.766571,201.026352 76.417297,218.133041 103.064911" style="stroke:rgb(0.000000%,0.000000%,0.000000%); stroke-width: 1.992523;stroke-linecap: round;stroke-linejoin: round;stroke-miterlimit: 10.000000;fill: none;"></path>
  <path d="M212.003403 97.924103C213.890121 99.814178,215.938156 101.539398,218.133041 103.064911C217.659775 100.434174,217.431564 97.766083,217.433945 95.095490Z" style="stroke:rgb(0.000000%,0.000000%,0.000000%); stroke-width: 1.992523;fill: rgb(0.000000%,0.000000%,0.000000%);"></path>
  <g transform="matrix(2.000000,-0.000000,-0.000000,2.000000,250.848221 25.766571)" style="fill: rgb(0.000000%,0.000000%,0.000000%);">
    <use xlink:href="#GLYPHcmmi10_97"></use>
  </g>
  <path d="M379.127975 176.756897C302.263168 217.156403,209.967331 217.156708,133.102310 176.757782" style="stroke:rgb(0.000000%,0.000000%,0.000000%); stroke-width: 1.992523;stroke-linecap: round;stroke-linejoin: round;stroke-miterlimit: 10.000000;fill: none;"></path>
  <path d="M141.078293 177.365204C138.421310 177.203369,135.762405 177.001038,133.102310 176.757782C134.811234 178.810791,136.548264 180.834045,138.312546 182.827240Z" style="stroke:rgb(0.000000%,0.000000%,0.000000%); stroke-width: 1.992523;fill: rgb(0.000000%,0.000000%,0.000000%);"></path>
  <g transform="matrix(2.000000,-0.000000,-0.000000,2.000000,251.839615 226.893768)" style="fill: rgb(0.000000%,0.000000%,0.000000%);">
    <use xlink:href="#GLYPHcmmi10_98"></use>
  </g>
  <path d="M549.206680 113.547852C472.341873 73.148346,380.046036 73.148041,303.181015 113.546967" style="stroke:rgb(0.000000%,0.000000%,0.000000%); stroke-width: 1.992523;stroke-linecap: round;stroke-linejoin: round;stroke-miterlimit: 10.000000;fill: none;"></path>
  <path d="M308.391251 107.477509C306.626968 109.470703,304.889938 111.493958,303.181015 113.546967C305.841110 113.303711,308.500015 113.101379,311.156998 112.939545Z" style="stroke:rgb(0.000000%,0.000000%,0.000000%); stroke-width: 1.992523;fill: rgb(0.000000%,0.000000%,0.000000%);"></path>
  <g transform="matrix(2.000000,-0.000000,-0.000000,2.000000,420.927811 77.247986)" style="fill: rgb(0.000000%,0.000000%,0.000000%);">
    <use xlink:href="#GLYPHcmmi10_97"></use>
  </g>
  <path d="M722.188187 180.706482C545.598801 307.400513,306.778427 307.398834,130.190720 180.701385" style="stroke:rgb(0.000000%,0.000000%,0.000000%); stroke-width: 1.992523;stroke-linecap: round;stroke-linejoin: round;stroke-miterlimit: 10.000000;fill: none;"></path>
  <path d="M137.993179 182.460846C135.391129 181.895538,132.790268 181.309113,130.190720 180.701385C131.599106 182.969269,133.023514 185.223053,134.463638 187.462738Z" style="stroke:rgb(0.000000%,0.000000%,0.000000%); stroke-width: 1.992523;fill: rgb(0.000000%,0.000000%,0.000000%);"></path>
  <g transform="matrix(2.000000,-0.000000,-0.000000,2.000000,421.913193 295.562744)" style="fill: rgb(0.000000%,0.000000%,0.000000%);">
    <use xlink:href="#GLYPHcmmi10_98"></use>
  </g>
  <path d="M886.906174 172.749939C863.735855 179.477753,839.042465 179.477631,815.872177 172.749573" style="stroke:rgb(0.000000%,0.000000%,0.000000%); stroke-width: 1.992523;stroke-linecap: round;stroke-linejoin: round;stroke-miterlimit: 10.000000;fill: none;"></path>
  <path d="M823.791916 171.620331C821.168839 172.079071,818.527695 172.456024,815.872177 172.749573C817.957443 174.419769,820.091568 176.020844,822.270676 177.551300Z" style="stroke:rgb(0.000000%,0.000000%,0.000000%); stroke-width: 1.992523;fill: rgb(0.000000%,0.000000%,0.000000%);"></path>
  <g transform="matrix(2.000000,-0.000000,-0.000000,2.000000,847.113541 197.632690)" style="fill: rgb(0.000000%,0.000000%,0.000000%);">
    <use xlink:href="#GLYPHcmmi10_98"></use>
  </g>
  <path d="M892.266891 109.598267C715.677505 -17.095764,476.857132 -17.094086,300.269424 109.603363" style="stroke:rgb(0.000000%,0.000000%,0.000000%); stroke-width: 1.992523;stroke-linecap: round;stroke-linejoin: round;stroke-miterlimit: 10.000000;fill: none;"></path>
  <path d="M304.542343 102.842010C303.102219 105.081696,301.677811 107.335480,300.269424 109.603363C302.868973 108.995636,305.469833 108.409210,308.071884 107.843903Z" style="stroke:rgb(0.000000%,0.000000%,0.000000%); stroke-width: 1.992523;fill: rgb(0.000000%,0.000000%,0.000000%);"></path>
  <g transform="matrix(2.000000,-0.000000,-0.000000,2.000000,591.001389 8.579010)" style="fill: rgb(0.000000%,0.000000%,0.000000%);">
    <use xlink:href="#GLYPHcmmi10_97"></use>
  </g>
</svg>
