<?xml version="1.0"?>
<!-- Created by MetaPost 2.10 on 2024.04.29:2248 -->
<svg version="1.1" xmlns="http://www.w3.org/2000/svg" xmlns:xlink="http://www.w3.org/1999/xlink" width="256.118073" height="432.504578" viewBox="0 0 256.118073 432.504578">
<!-- Original BoundingBox: -43.019684 -318.618774 213.098389 113.885803 -->
  <defs>
    <g transform="scale(0.009963,0.009963)" id="GLYPHcmmi10_85">
      <path style="fill-rule: evenodd;" d="M635.000000 -578.000000C645.000000 -619.000000,663.000000 -649.000000,743.000000 -652.000000C748.000000 -652.000000,760.000000 -653.000000,760.000000 -672.000000C760.000000 -673.000000,760.000000 -683.000000,747.000000 -683.000000C714.000000 -683.000000,679.000000 -680.000000,645.000000 -680.000000C611.000000 -680.000000,574.000000 -683.000000,541.000000 -683.000000C535.000000 -683.000000,523.000000 -683.000000,523.000000 -663.000000C523.000000 -652.000000,533.000000 -652.000000,541.000000 -652.000000C598.000000 -651.000000,609.000000 -630.000000,609.000000 -608.000000C609.000000 -605.000000,607.000000 -590.000000,606.000000 -587.000000L516.000000 -230.000000C482.000000 -96.000000,367.000000 -9.000000,267.000000 -9.000000C199.000000 -9.000000,145.000000 -53.000000,145.000000 -139.000000C145.000000 -141.000000,145.000000 -173.000000,156.000000 -217.000000L253.000000 -606.000000C262.000000 -642.000000,264.000000 -652.000000,337.000000 -652.000000C363.000000 -652.000000,371.000000 -652.000000,371.000000 -672.000000C371.000000 -683.000000,360.000000 -683.000000,357.000000 -683.000000C329.000000 -683.000000,257.000000 -680.000000,229.000000 -680.000000C200.000000 -680.000000,129.000000 -683.000000,100.000000 -683.000000C92.000000 -683.000000,81.000000 -683.000000,81.000000 -663.000000C81.000000 -652.000000,90.000000 -652.000000,109.000000 -652.000000C111.000000 -652.000000,130.000000 -652.000000,147.000000 -650.000000C165.000000 -648.000000,174.000000 -647.000000,174.000000 -634.000000C174.000000 -628.000000,163.000000 -586.000000,157.000000 -563.000000L135.000000 -475.000000C126.000000 -436.000000,78.000000 -247.000000,74.000000 -228.000000C67.000000 -200.000000,67.000000 -185.000000,67.000000 -170.000000C67.000000 -48.000000,158.000000 22.000000,263.000000 22.000000C389.000000 22.000000,513.000000 -91.000000,546.000000 -223.000000"></path>
    </g>
    <g transform="scale(0.009963,0.009963)" id="GLYPHcmmi10_86">
      <path style="fill-rule: evenodd;" d="M628.000000 -569.000000C677.000000 -647.000000,719.000000 -650.000000,756.000000 -652.000000C768.000000 -653.000000,769.000000 -670.000000,769.000000 -671.000000C769.000000 -679.000000,764.000000 -683.000000,756.000000 -683.000000C730.000000 -683.000000,701.000000 -680.000000,674.000000 -680.000000C641.000000 -680.000000,607.000000 -683.000000,575.000000 -683.000000C569.000000 -683.000000,556.000000 -683.000000,556.000000 -664.000000C556.000000 -653.000000,565.000000 -652.000000,572.000000 -652.000000C599.000000 -650.000000,618.000000 -640.000000,618.000000 -619.000000C618.000000 -604.000000,603.000000 -582.000000,603.000000 -581.000000L296.000000 -93.000000L228.000000 -622.000000C228.000000 -639.000000,251.000000 -652.000000,297.000000 -652.000000C311.000000 -652.000000,322.000000 -652.000000,322.000000 -672.000000C322.000000 -681.000000,314.000000 -683.000000,308.000000 -683.000000C268.000000 -683.000000,225.000000 -680.000000,184.000000 -680.000000C166.000000 -680.000000,147.000000 -681.000000,129.000000 -681.000000C111.000000 -681.000000,92.000000 -683.000000,75.000000 -683.000000C68.000000 -683.000000,56.000000 -683.000000,56.000000 -664.000000C56.000000 -652.000000,65.000000 -652.000000,81.000000 -652.000000C137.000000 -652.000000,138.000000 -643.000000,141.000000 -618.000000L220.000000 -1.000000C223.000000 19.000000,227.000000 22.000000,240.000000 22.000000C256.000000 22.000000,260.000000 17.000000,268.000000 4.000000"></path>
    </g>
  </defs>
  <path d="M43.019684 113.885803l0 0" style="stroke:rgb(0.000000%,0.000000%,0.000000%); stroke-width: 8.503937;stroke-linecap: round;stroke-linejoin: round;stroke-miterlimit: 10.000000;fill: none;"></path>
  <path d="M43.019684 170.578705l0 0" style="stroke:rgb(0.000000%,0.000000%,0.000000%); stroke-width: 8.503937;stroke-linecap: round;stroke-linejoin: round;stroke-miterlimit: 10.000000;fill: none;"></path>
  <path d="M43.019684 227.271606l0 0" style="stroke:rgb(0.000000%,0.000000%,0.000000%); stroke-width: 8.503937;stroke-linecap: round;stroke-linejoin: round;stroke-miterlimit: 10.000000;fill: none;"></path>
  <path d="M43.019684 283.964508l0 0" style="stroke:rgb(0.000000%,0.000000%,0.000000%); stroke-width: 8.503937;stroke-linecap: round;stroke-linejoin: round;stroke-miterlimit: 10.000000;fill: none;"></path>
  <path d="M213.098389 57.192902l0 0" style="stroke:rgb(0.000000%,0.000000%,0.000000%); stroke-width: 8.503937;stroke-linecap: round;stroke-linejoin: round;stroke-miterlimit: 10.000000;fill: none;"></path>
  <path d="M213.098389 113.885803l0 0" style="stroke:rgb(0.000000%,0.000000%,0.000000%); stroke-width: 8.503937;stroke-linecap: round;stroke-linejoin: round;stroke-miterlimit: 10.000000;fill: none;"></path>
  <path d="M213.098389 170.578705l0 0" style="stroke:rgb(0.000000%,0.000000%,0.000000%); stroke-width: 8.503937;stroke-linecap: round;stroke-linejoin: round;stroke-miterlimit: 10.000000;fill: none;"></path>
  <path d="M213.098389 227.271606l0 0" style="stroke:rgb(0.000000%,0.000000%,0.000000%); stroke-width: 8.503937;stroke-linecap: round;stroke-linejoin: round;stroke-miterlimit: 10.000000;fill: none;"></path>
  <path d="M213.098389 283.964508l0 0" style="stroke:rgb(0.000000%,0.000000%,0.000000%); stroke-width: 8.503937;stroke-linecap: round;stroke-linejoin: round;stroke-miterlimit: 10.000000;fill: none;"></path>
  <path d="M213.098389 340.657410l0 0" style="stroke:rgb(0.000000%,0.000000%,0.000000%); stroke-width: 8.503937;stroke-linecap: round;stroke-linejoin: round;stroke-miterlimit: 10.000000;fill: none;"></path>
  <path d="M43.019684 113.885803L213.098389 57.192902" style="stroke:rgb(0.000000%,0.000000%,0.000000%); stroke-width: 1.000000;stroke-linecap: round;stroke-linejoin: round;stroke-miterlimit: 10.000000;fill: none;"></path>
  <path d="M43.019684 113.885803L213.098389 170.578705" style="stroke:rgb(0.000000%,0.000000%,0.000000%); stroke-width: 1.000000;stroke-linecap: round;stroke-linejoin: round;stroke-miterlimit: 10.000000;fill: none;"></path>
  <path d="M43.019684 113.885803L213.098389 283.964508" style="stroke:rgb(0.000000%,0.000000%,0.000000%); stroke-width: 1.000000;stroke-linecap: round;stroke-linejoin: round;stroke-miterlimit: 10.000000;fill: none;"></path>
  <path d="M43.019684 227.271606L213.098389 57.192902" style="stroke:rgb(0.000000%,0.000000%,0.000000%); stroke-width: 1.000000;stroke-linecap: round;stroke-linejoin: round;stroke-miterlimit: 10.000000;fill: none;"></path>
  <path d="M43.019684 227.271606L213.098389 113.885803" style="stroke:rgb(0.000000%,0.000000%,0.000000%); stroke-width: 1.000000;stroke-linecap: round;stroke-linejoin: round;stroke-miterlimit: 10.000000;fill: none;"></path>
  <path d="M43.019684 227.271606L213.098389 170.578705" style="stroke:rgb(0.000000%,0.000000%,0.000000%); stroke-width: 1.000000;stroke-linecap: round;stroke-linejoin: round;stroke-miterlimit: 10.000000;fill: none;"></path>
  <path d="M43.019684 227.271606L213.098389 340.657410" style="stroke:rgb(0.000000%,0.000000%,0.000000%); stroke-width: 1.000000;stroke-linecap: round;stroke-linejoin: round;stroke-miterlimit: 10.000000;fill: none;"></path>
  <path d="M43.019684 283.964508L213.098389 283.964508" style="stroke:rgb(0.000000%,0.000000%,0.000000%); stroke-width: 1.000000;stroke-linecap: round;stroke-linejoin: round;stroke-miterlimit: 10.000000;fill: none;"></path>
  <path d="M85.539368 198.925171C85.539368 161.333771,81.058777 125.286499,73.085022 98.707397C65.111298 72.128265,54.297119 57.192902,43.019684 57.192902C31.742249 57.192902,20.928070 72.128265,12.954346 98.707397C4.980591 125.286499,0.500000 161.333771,0.500000 198.925171C0.500000 236.516571,4.980591 272.563843,12.954346 299.142944C20.928070 325.722076,31.742249 340.657440,43.019684 340.657440C54.297119 340.657440,65.111298 325.722076,73.085022 299.142944C81.058777 272.563843,85.539368 236.516571,85.539368 198.925171Z" style="stroke:rgb(0.000000%,0.000000%,0.000000%); stroke-width: 1.000000;stroke-linecap: round;stroke-dasharray: 6.000000 6.000000 ;stroke-linejoin: round;stroke-miterlimit: 10.000000;fill: none;"></path>
  <path d="M255.618073 198.925171C255.618073 146.297211,251.137482 95.831055,243.163727 58.620270C235.190002 21.409515,224.375824 0.500000,213.098389 0.500000C201.820953 0.500000,191.006775 21.409515,183.033051 58.620270C175.059296 95.831055,170.578705 146.297211,170.578705 198.925171C170.578705 251.553131,175.059296 302.019287,183.033051 339.230072C191.006775 376.440826,201.820953 397.350342,213.098389 397.350342C224.375824 397.350342,235.190002 376.440826,243.163727 339.230072C251.137482 302.019287,255.618073 251.553131,255.618073 198.925171Z" style="stroke:rgb(0.000000%,0.000000%,0.000000%); stroke-width: 1.000000;stroke-linecap: round;stroke-dasharray: 6.000000 6.000000 ;stroke-linejoin: round;stroke-miterlimit: 10.000000;fill: none;"></path>
  <g transform="matrix(2.000000,-0.000000,-0.000000,2.000000,35.131287 375.811676)" style="fill: rgb(0.000000%,0.000000%,0.000000%);">
    <use xlink:href="#GLYPHcmmi10_85"></use>
  </g>
  <g transform="matrix(2.000000,-0.000000,-0.000000,2.000000,205.072876 432.504578)" style="fill: rgb(0.000000%,0.000000%,0.000000%);">
    <use xlink:href="#GLYPHcmmi10_86"></use>
  </g>
</svg>
