<?xml version="1.0" encoding="UTF-8" standalone="no"?>
<!-- Created with Inkscape (http://www.inkscape.org/) -->

<svg
   version="1.1"
   id="svg1"
   width="170.74338"
   height="196.52505"
   viewBox="0 0 170.74338 196.52505"
   xmlns="http://www.w3.org/2000/svg"
   xmlns:svg="http://www.w3.org/2000/svg">
  <defs
     id="defs1" />
  <g
     id="g1">
    <path
       id="path1"
       d="M -35.433062,35.433062 H 35.433063 V -35.433063 H -35.433062 Z"
       style="fill:#d9d9ff;fill-opacity:1;fill-rule:nonzero;stroke:#000000;stroke-width:0.5;stroke-linecap:round;stroke-linejoin:round;stroke-miterlimit:10;stroke-dasharray:none;stroke-opacity:1"
       transform="matrix(1.3333333,0,0,-1.3333333,85.371689,100.26986)" />
    <path
       id="path2"
       d="M -17.716531,63.779512 V 39.12862"
       style="fill:none;stroke:#000000;stroke-width:0.5;stroke-linecap:round;stroke-linejoin:round;stroke-miterlimit:10;stroke-dasharray:none;stroke-opacity:1"
       transform="matrix(1.3333333,0,0,-1.3333333,85.371689,100.26986)" />
    <path
       id="path3"
       d="m -19.247288,39.128637 1.530757,-3.695575 1.530757,3.695575 z"
       style="fill:#000000;fill-opacity:1;fill-rule:nonzero;stroke:#000000;stroke-width:0.5;stroke-linecap:round;stroke-linejoin:round;stroke-miterlimit:10;stroke-dasharray:none;stroke-opacity:1"
       transform="matrix(1.3333333,0,0,-1.3333333,85.371689,100.26986)" />
    <path
       id="path4"
       d="M 17.716531,63.779512 V 39.12862"
       style="fill:none;stroke:#000000;stroke-width:0.5;stroke-linecap:round;stroke-linejoin:round;stroke-miterlimit:10;stroke-dasharray:none;stroke-opacity:1"
       transform="matrix(1.3333333,0,0,-1.3333333,85.371689,100.26986)" />
    <path
       id="path5"
       d="m 16.185774,39.128637 1.530757,-3.695575 1.530757,3.695575 z"
       style="fill:#000000;fill-opacity:1;fill-rule:nonzero;stroke:#000000;stroke-width:0.5;stroke-linecap:round;stroke-linejoin:round;stroke-miterlimit:10;stroke-dasharray:none;stroke-opacity:1"
       transform="matrix(1.3333333,0,0,-1.3333333,85.371689,100.26986)" />
    <path
       id="path6"
       d="M 0,-35.433062 V -60.083955"
       style="fill:none;stroke:#000000;stroke-width:0.5;stroke-linecap:round;stroke-linejoin:round;stroke-miterlimit:10;stroke-dasharray:none;stroke-opacity:1"
       transform="matrix(1.3333333,0,0,-1.3333333,85.371689,100.26986)" />
    <path
       id="path7"
       d="M -1.530757,-60.083938 0,-63.779512 l 1.530757,3.695574 z"
       style="fill:#000000;fill-opacity:1;fill-rule:nonzero;stroke:#000000;stroke-width:0.5;stroke-linecap:round;stroke-linejoin:round;stroke-miterlimit:10;stroke-dasharray:none;stroke-opacity:1"
       transform="matrix(1.3333333,0,0,-1.3333333,85.371689,100.26986)" />
    <path
       id="path8"
       d="M 35.433062,0 V 0"
       style="fill:none;stroke:#000000;stroke-width:3.98504;stroke-linecap:round;stroke-linejoin:round;stroke-miterlimit:10;stroke-dasharray:none;stroke-opacity:1"
       transform="matrix(1.3333333,0,0,-1.3333333,85.371689,100.26986)" />
    <path
       id="path9"
       d="M -35.433062,0 V 0"
       style="fill:none;stroke:#000000;stroke-width:3.98504;stroke-linecap:round;stroke-linejoin:round;stroke-miterlimit:10;stroke-dasharray:none;stroke-opacity:1"
       transform="matrix(1.3333333,0,0,-1.3333333,85.371689,100.26986)" />
    <path
       id="path10"
       d="M -7.086613,-7.086613 H 7.086612 V 7.086612 H -7.086613 Z"
       style="fill:#9999ff;fill-opacity:1;fill-rule:nonzero;stroke:#000000;stroke-width:0.5;stroke-linecap:round;stroke-linejoin:round;stroke-miterlimit:10;stroke-dasharray:none;stroke-opacity:1"
       transform="matrix(1.3333333,0,0,-1.3333333,85.371689,100.26986)" />
    <path
       id="path11"
       d="m 5.9523931,-1.7121614 c 0,-0.1171876 -0.1054685,-0.1171876 -0.1406247,-0.1171876 -0.1171871,0 -0.1289059,0.046875 -0.1757807,0.2109376 -0.1992182,0.78515685 -0.4101552,1.48828236 -0.9023413,1.48828236 -0.3281241,0 -0.3632803,-0.31640648 -0.3632803,-0.55078165 0,-0.26953144 0.023437,-0.36328151 0.1640621,-0.89062561 L 4.79224,-2.6379433 5.2258325,-4.3137258 c 0.082031,-0.339844 0.082031,-0.3632815 0.082031,-0.4101565 0,-0.1992189 -0.1406247,-0.3164065 -0.3515616,-0.3164065 -0.2812492,0 -0.45703,0.2578127 -0.5039049,0.5156254 -0.2109369,-0.4335941 -0.5507797,-0.7617193 -1.0898408,-0.7617193 -1.4062462,0 -2.88280466,1.7578137 -2.88280466,3.5039087 0,1.12500083 0.65624826,1.91015765 1.58202696,1.91015765 0.2460931,0 0.8437477,-0.04687504 1.5585895,-0.89062565 0.09375,0.50390662 0.5156236,0.89062565 1.0898408,0.89062565 0.4218739,0 0.6914044,-0.26953145 0.8789039,-0.65625048 0.210937,-0.43359406 0.3632804,-1.18359457 0.3632804,-1.18359457 z M 4.3117725,-3.9738818 c 0,0.070312 -0.023437,0.1523439 -0.035156,0.2109376 l -0.5976547,2.3437517 c -0.058594,0.2109377 -0.058594,0.2343752 -0.2343743,0.43359409 -0.5273424,0.65625048 -1.0195285,0.85546937 -1.3476526,0.85546937 -0.5976547,0 -0.7734354,-0.65625047 -0.7734354,-1.12500076 0,-0.5976567 0.3867177,-2.0742203 0.6562482,-2.6132832 0.374999,-0.7148442 0.91406,-1.1484383 1.3945274,-1.1484383 0.7734355,0 0.9374975,0.9726569 0.9374974,1.0429695 z m 0,0"
       style="fill:#000000;fill-opacity:1;fill-rule:nonzero;stroke:none"
       aria-label="ð‘Ž"
       transform="matrix(1.3333369,0,0,1.3333324,57.536111,11.056318)" />
    <path
       id="path12"
       d="m 4.9571456,-3.376216 c 0,-1.078123 -0.632811,-1.9101527 -1.5820276,-1.9101527 -0.5507799,0 -1.0429663,0.3515618 -1.4062467,0.7148424 l 0.8906229,-3.5976495 c 0,0 0,-0.128906 -0.1523434,-0.128906 -0.2812493,0 -1.1484348,0.09375 -1.4648404,0.1171873 -0.09375,0.011719 -0.2226557,0.023437 -0.2226557,0.2460932 0,0.1406248 0.1054685,0.1406248 0.2812494,0.1406248 0.5742174,0 0.5976548,0.082031 0.5976548,0.1992184 0,0.082031 -0.1054685,0.4921865 -0.1640621,0.7499986 l -0.98437272,3.8906177 c -0.14062467,0.5976551 -0.18749956,0.7851548 -0.18749956,1.207029 0,1.13671659 0.63281108,1.87499646 1.51171528,1.87499646 1.4179655,0 2.8828058,-1.78124666 2.8828058,-3.50389966 z M 4.1016789,-3.9035588 c 0,0.7148424 -0.3984366,2.0859336 -0.6093736,2.542964 -0.3984366,0.7968735 -0.9492166,1.23046644 -1.4179655,1.23046644 -0.3984366,0 -0.7968732,-0.32812439 -0.7968732,-1.20702904 0,-0.2343745 0,-0.4570303 0.1874996,-1.2070289 l 0.2695306,-1.1015605 c 0.070312,-0.2695307 0.070312,-0.2929682 0.1757809,-0.4218742 0.5859361,-0.773436 1.1249974,-0.949217 1.4414029,-0.949217 0.421874,0 0.7499983,0.3515619 0.7499983,1.1132792 z m 0,0"
       style="fill:#000000;fill-opacity:1;fill-rule:nonzero;stroke:none"
       aria-label="ð‘"
       transform="matrix(1.3333364,0,0,1.3333358,105.46468,11.056317)" />
    <path
       id="path13"
       d="m 5.0163077,-4.2525938 c 0,-0.5390628 -0.5039072,-1.0312507 -1.4179715,-1.0312507 -1.5820343,0 -2.0156288,1.2187509 -2.0156288,1.746095 0,0.9375007 0.8789079,1.1132821 1.2304711,1.1835946 0.6210949,0.1171876 1.2421899,0.2460939 1.2421899,0.9140632 0,0.3046877 -0.2812506,1.31250091 -1.7109408,1.31250091 -0.1640628,0 -1.0898459,0 -1.35937764,-0.63281295 0.44531334,0.0585938 0.75000144,-0.30468776 0.75000144,-0.63281296 0,-0.2812502 -0.1875004,-0.4218753 -0.4453134,-0.4218753 -0.30468804,0 -0.66796999,0.2460939 -0.66796999,0.7851568 0,0.679688 0.67968879,1.1601571 1.71094079,1.1601571 1.9335975,0 2.4023484,-1.4414073 2.4023484,-1.9804702 0,-0.433594 -0.2226567,-0.726563 -0.3750007,-0.8789069 C 4.0436496,-3.0572804 3.6920864,-3.1158742 3.1647417,-3.221343 2.7428658,-3.3268118 2.2623962,-3.4088431 2.2623962,-3.947906 c 0,-0.339844 0.2812505,-1.0664071 1.33594,-1.0664071 0.3046881,0 0.9023455,0.082031 1.0781271,0.5507817 -0.3398444,0.011719 -0.5742198,0.2695314 -0.5742198,0.5273441 0,0.1757814 0.1054689,0.3515628 0.3632819,0.3515628 0.2695318,0 0.5507823,-0.1992189 0.5507823,-0.6679693 z m 0,0"
       style="fill:#000000;fill-opacity:1;fill-rule:nonzero;stroke:none"
       aria-label="ð‘ "
       transform="matrix(1.3333308,0,0,1.3333324,81.635821,196.34981)" />
    <path
       id="path14"
       d="m 5.145846,-1.2763416 c 0,-0.070312 -0.082031,-0.1523433 -0.1523439,-0.1523433 -0.058594,0 -0.082031,0.023437 -0.152344,0.1171872 -0.9375011,1.18359096 -2.2500027,1.18359096 -2.3906278,1.18359096 -0.7500009,0 -1.0781263,-0.58593613 -1.0781263,-1.30077816 0,-0.4921864 0.246094,-1.6523399 0.644532,-2.3906194 0.3750004,-0.6914047 1.0312512,-1.1953097 1.687502,-1.1953097 0.4101568,0 0.8671885,0.1523433 1.0312512,0.4687489 -0.1875002,0 -0.3632816,0 -0.5273443,0.1757808 -0.1875003,0.1757808 -0.2109378,0.3749991 -0.2109378,0.4570302 0,0.292968 0.2109378,0.421874 0.4335943,0.421874 0.3515629,0 0.6796883,-0.2812494 0.6796883,-0.761717 0,-0.5859361 -0.5625007,-1.0312476 -1.4179705,-1.0312476 -1.6171894,0 -3.19922255,1.7109335 -3.19922255,3.3984296 0,1.07812245 0.69140705,2.01562025 1.93359605,2.01562025 1.7109396,0 2.7187533,-1.26562205 2.7187533,-1.40624675 z m 0,0"
       style="fill:#000000;fill-opacity:1;fill-rule:nonzero;stroke:none"
       aria-label="ð‘"
       transform="matrix(1.3333317,0,0,1.3333365,111.35372,107.39711)" />
    <path
       id="path15"
       d="M 2.2134291,-7.4066614e-4 V -0.28199001 c -0.597657,0 -0.6328133,-0.0468749 -0.6328133,-0.38671784 V -3.9616689 l -1.25390771,0.09375 v 0.2812493 c 0.5859382,0 0.66796955,0.058594 0.66796955,0.4921864 v 2.41405683 c 0,0.39843656 -0.10546888,0.39843656 -0.70312585,0.39843656 V -7.4066614e-4 L 1.275928,-0.02417811 c 0.3164066,0 0.6328132,0.01171872 0.9375011,0.0234374439 z M 1.721241,-5.4147905 c 0,-0.2460932 -0.2109377,-0.4804676 -0.4804693,-0.4804676 -0.30468788,0 -0.48046934,0.2578119 -0.48046934,0.4804676 0,0.2460932 0.21093775,0.4687489 0.48046934,0.4687489 0.3046878,0 0.4804693,-0.2460932 0.4804693,-0.4687489 z M 7.2847242,-7.4066614e-4 V -0.28199001 c -0.4687505,0 -0.691407,0 -0.691407,-0.26953062 V -2.2624541 c 0,-0.7734357 0,-1.0429663 -0.2812504,-1.3710906 -0.1289064,-0.1523433 -0.4218755,-0.3281242 -0.9375011,-0.3281242 -0.6562508,0 -1.0781263,0.3867179 -1.3359391,0.9374978 v -0.9374978 l -1.2656265,0.09375 v 0.2812493 c 0.6328132,0 0.7031258,0.058594 0.7031258,0.5039051 v 2.40233813 c 0,0.39843656 -0.09375,0.39843656 -0.7031258,0.39843656 V -7.4066614e-4 L 3.7925326,-0.02417811 4.8003463,-7.4066614e-4 V -0.28199001 c -0.6093758,0 -0.7031259,0 -0.7031259,-0.39843656 V -2.3327665 c 0,-0.925779 0.6328133,-1.4296841 1.2070327,-1.4296841 0.5625007,0 0.6679696,0.4804676 0.6679696,0.9960914 v 2.08593263 c 0,0.39843656 -0.1054689,0.39843656 -0.7031259,0.39843656 V -7.4066614e-4 L 6.2886293,-0.02417811 Z m 0,0"
       style="fill:#000000;fill-opacity:1;fill-rule:nonzero;stroke:none"
       aria-label="in"
       transform="matrix(1.3333317,0,0,1.3333365,118.65033,100.81739)" />
    <path
       id="path16"
       d="m 5.145091,-1.278596 c 0,-0.070313 -0.082031,-0.1523442 -0.1523427,-0.1523442 -0.058593,0 -0.082031,0.023438 -0.1523427,0.1171878 -0.9374934,1.18359671 -2.2499843,1.18359671 -2.3906083,1.18359671 -0.7499947,0 -1.0781174,-0.58593896 -1.0781174,-1.30078451 0,-0.4921887 0.246092,-1.6523478 0.6445267,-2.3906309 0.3749974,-0.691408 1.0312428,-1.1953155 1.6874882,-1.1953155 0.4101534,0 0.8671815,0.1523441 1.0312428,0.4687512 -0.1874987,0 -0.3632787,0 -0.52734,0.1757817 -0.1874987,0.1757816 -0.2109361,0.3750009 -0.2109361,0.4570323 0,0.2929695 0.2109361,0.4218761 0.4335908,0.4218761 0.35156,0 0.6796827,-0.2812507 0.6796827,-0.7617207 0,-0.5859389 -0.5624961,-1.0312525 -1.4179588,-1.0312525 -1.6171763,0 -3.19919645,1.7109417 -3.19919645,3.3984459 0,1.07812772 0.69140145,2.01563005 1.93358025,2.01563005 1.7109255,0 2.718731,-1.26562815 2.718731,-1.40625345 z m 0,0"
       style="fill:#000000;fill-opacity:1;fill-rule:nonzero;stroke:none"
       aria-label="ð‘"
       transform="matrix(1.3333426,0,0,1.33333,42.128112,107.1462)" />
    <path
       id="path17"
       d="m 4.2194753,-1.9219619 c 0,-1.1484404 -0.8906188,-2.0976615 -1.980455,-2.0976615 -1.1132734,0 -1.99217355,0.9843775 -1.99217355,2.0976615 0,1.16015911 0.93749345,2.01562999 1.98045495,2.01562999 1.0898361,0 1.9921736,-0.87890844 1.9921736,-2.01562999 z m -0.7382761,-0.070313 c 0,0.3281258 0,0.8085958 -0.1992174,1.20703425 -0.1992174,0.39843849 -0.5976521,0.65625163 -1.0429615,0.65625163 -0.386716,0 -0.7734321,-0.18750046 -1.0195241,-0.59765773 C 0.99684151,-1.1250849 0.99684151,-1.6641488 0.99684151,-1.9922746 c 0,-0.3515634 0,-0.8320333 0.21093599,-1.2304718 0.2460921,-0.4101573 0.6679641,-0.5976578 1.0195242,-0.5976578 0.3984347,0 0.7851507,0.1992193 1.0195241,0.585939 0.2343734,0.3867197 0.2343734,0.902346 0.2343734,1.2421903 z M 9.2760806,-8.2145542e-5 V -0.28133285 c -0.6210894,0 -0.6914014,-0.0585939 -0.6914014,-0.5039075 V -3.9610295 l -1.3242095,0.09375 v 0.2812507 c 0.632808,0 0.70312,0.058594 0.70312,0.5039075 v 1.593754 c 0,0.7851582 -0.4335907,1.39453472 -1.0898361,1.39453472 -0.7499948,0 -0.7851508,-0.42187605 -0.7851508,-0.89062721 V -3.9610295 l -1.3242095,0.09375 v 0.2812507 c 0.7031201,0 0.7031201,0.023438 0.7031201,0.8203146 v 1.3476596 c 0,0.70312673 0,1.51172249 1.3593655,1.51172249 0.5039028,0 0.9023375,-0.24609436 1.1601482,-0.79687699 V 0.09366809 Z M 12.44598,-1.1133662 v -0.5039075 h -0.222654 v 0.4921888 c 0,0.65625159 -0.26953,0.99609618 -0.597652,0.99609618 -0.609371,0 -0.609371,-0.80859576 -0.609371,-0.96093988 v -2.4961 h 1.289053 v -0.2812507 h -1.289053 v -1.6406291 h -0.222655 c -0.01172,0.7265644 -0.269529,1.6875042 -1.1484294,1.7226606 v 0.1992192 h 0.7617134 v 2.4726624 c 0,1.10156528 0.832025,1.20703429 1.14843,1.20703429 0.644526,0 0.890618,-0.63281408 0.890618,-1.20703429 z m 0,0"
       style="fill:#000000;fill-opacity:1;fill-rule:nonzero;stroke:none"
       aria-label="out"
       transform="matrix(1.3333426,0,0,1.33333,49.424775,100.56652)" />
    <path
       id="path18"
       d="m 8.6260148,-2.9873487 c 0,-0.1289067 -0.1054688,-0.2343757 -0.234375,-0.2343757 H 4.8877332 v -3.5039168 c 0,-0.1289066 -0.1054688,-0.2460945 -0.234375,-0.2460945 -0.1289063,0 -0.2460938,0.1171879 -0.2460938,0.2460945 v 3.5039168 H 0.91507653 c -0.14062501,0 -0.24609377,0.105469 -0.24609377,0.2343757 0,0.1289066 0.10546876,0.2343757 0.24609377,0.2343757 H 4.4072644 v 3.50391674 c 0,0.12890663 0.1171875,0.24609449 0.2460938,0.24609449 0.1289062,0 0.234375,-0.11718786 0.234375,-0.24609449 V -2.752973 h 3.5039066 c 0.1289062,0 0.234375,-0.1054691 0.234375,-0.2343757 z m 0,0"
       style="fill:#000000;fill-opacity:1;fill-rule:nonzero;stroke:none"
       aria-label="+"
       transform="matrix(1.3333332,0,0,1.3333293,79.174429,104.25265)" />
    <path
       id="path19"
       d="M 63.779512,0 H 39.12862"
       style="fill:none;stroke:#000000;stroke-width:0.5;stroke-linecap:round;stroke-linejoin:round;stroke-miterlimit:10;stroke-dasharray:none;stroke-opacity:1"
       transform="matrix(1.3333333,0,0,-1.3333333,85.371689,100.26986)" />
    <path
       id="path20"
       d="M 39.128637,1.530757 35.433062,0 39.128637,-1.530757 Z"
       style="fill:#000000;fill-opacity:1;fill-rule:nonzero;stroke:#000000;stroke-width:0.5;stroke-linecap:round;stroke-linejoin:round;stroke-miterlimit:10;stroke-dasharray:none;stroke-opacity:1"
       transform="matrix(1.3333333,0,0,-1.3333333,85.371689,100.26986)" />
    <path
       id="path21"
       d="M -35.433062,0 H -60.083955"
       style="fill:none;stroke:#000000;stroke-width:0.5;stroke-linecap:round;stroke-linejoin:round;stroke-miterlimit:10;stroke-dasharray:none;stroke-opacity:1"
       transform="matrix(1.3333333,0,0,-1.3333333,85.371689,100.26986)" />
    <path
       id="path22"
       d="M -60.083938,1.530757 -63.779512,0 l 3.695574,-1.530757 z"
       style="fill:#000000;fill-opacity:1;fill-rule:nonzero;stroke:#000000;stroke-width:0.5;stroke-linecap:round;stroke-linejoin:round;stroke-miterlimit:10;stroke-dasharray:none;stroke-opacity:1"
       transform="matrix(1.3333333,0,0,-1.3333333,85.371689,100.26986)" />
  </g>
</svg>
